<svg width="248" height="159" viewBox="0 0 248 159" fill="none" xmlns="http://www.w3.org/2000/svg">
<g id="jos">
<path id="Vector" d="M31.3022 101.972C33.5706 99.3915 35.1039 96.3089 36.7162 93.3072C40.3914 87.9025 46.003 88.4526 51.33 88.574C53.3272 88.7192 55.268 89.3161 57.0127 90.3217C55.432 89.6987 54.0173 89.1889 55.8825 87.0853C58.5934 85.5885 61.415 84.3263 64.205 82.967C67.2479 82.1013 69.8245 80.1271 72.8436 79.2129C75.7205 78.9621 76.2896 80.6207 75.5862 82.967C74.4098 86.4359 73.4126 89.9657 72.5986 93.5418C72.0296 96.5435 69.864 96.2118 67.7142 95.3541C66.1335 94.2861 64.1655 93.914 62.5927 92.757C64.0074 93.914 65.8094 94.2457 67.3348 95.1843C69.8166 95.9448 69.3186 97.4982 67.6826 98.2911C62.4869 100.847 56.9945 102.714 51.3379 103.85C48.8641 104.335 48.9668 102.272 49.2355 101.269C48.627 102.757 47.5442 104.375 46.2954 101.714C47.9552 103.971 46.8882 105.419 43.5133 105.532C40.3299 105.72 37.1379 105.693 33.9579 105.452C32.1084 105.209 30.0693 104.869 31.3022 101.972Z" fill="#171621"/>
<path id="Vector_2" d="M46.8724 43.7426L51.1641 38.3864C51.7331 37.6825 52.3733 37.0757 51.5671 36.0158C49.615 33.4672 51.9307 32.0513 53.3375 30.8538C54.9183 29.4703 56.744 29.9557 57.8584 31.9865C56.0248 34.7374 56.1592 34.6888 57.566 38.8556C58.6014 41.8978 58.8069 45.1827 59.6209 48.3139C59.8976 55.9921 63.2487 63.0554 63.8652 70.677C62.9325 72.8292 60.9962 72.6755 59.2178 72.724C56.2066 72.8211 53.1874 72.7969 50.1682 72.724C44.5724 72.627 43.0154 70.9926 42.8653 65.1591C42.823 63.9254 42.86 62.6902 42.9759 61.4615C43.0206 60.9413 43.1132 60.4267 43.2525 59.9243C43.9182 56.7983 44.4221 53.6384 44.7621 50.458C45.1731 46.2264 46.0425 45.8947 49.7098 48.3544C50.5166 48.9803 51.3824 49.5224 52.2943 49.9725C51.5822 49.5964 50.8909 49.1804 50.2235 48.7265C49.1328 47.0436 45.4893 47.165 46.8724 43.7426Z" fill="#171723"/>
<path id="Vector_3" d="M37.7121 136.221C35.2304 134.854 35.8785 132.645 36.3764 129.093C36.6372 132.54 37.1667 133.681 39.7433 132.621C43.4975 131.083 47.6469 130.679 51.3537 128.866C51.1222 128.512 51.0266 128.083 51.085 127.661C51.7331 123.761 51.8753 120.096 47.4493 118.227C47.1121 117.985 46.8402 117.659 46.659 117.28C46.8091 115.104 48.951 115.063 50.0733 113.923C50.8233 113.188 51.6151 112.499 52.4444 111.86C53.5746 111.374 54.8945 110.694 55.2186 112.669C55.4794 114.174 56.5227 114.133 57.5186 114.416C62.8614 115.929 62.814 115.913 65.1455 110.646C65.7778 109.222 65.7146 107.078 68.0304 107.005C69.8877 109.222 68.1094 111.455 68.0304 114.287C72.077 112.305 75.7838 110.241 79.5459 108.38C80.0834 108.105 80.9606 107.806 80.8895 107.232C80.2098 101.568 84.3039 103.995 86.1375 104.424C90.7295 105.419 95.1081 104.764 99.6527 104.335C103.701 104.007 107.52 102.278 110.481 99.432C111.872 98.1698 113.713 98.2102 113.642 100.589C113.429 105.5 116.693 106.253 120.163 107.321C122.028 107.879 124.707 107.24 125.332 110.225C125.254 110.657 125.03 111.046 124.699 111.325C121.625 112.385 118.945 110.759 116.424 109.602C113.136 108.089 111.168 108.68 109.888 112.029C109.677 112.058 109.463 112.032 109.265 111.953C109.068 111.874 108.893 111.744 108.758 111.576C107.604 108.753 105.699 107.846 102.609 108.17C98.1036 108.631 93.5274 108.34 88.6746 109.675C90.8007 112.029 92.7133 114.271 92.4525 117.499C92.3496 117.926 92.1239 118.312 91.8044 118.607C88.8327 118.365 88.153 115.614 86.8963 113.664C85.1654 110.97 83.3159 110.193 80.4785 111.86C77.8886 113.444 75.1702 114.798 72.3536 115.905C69.5162 116.957 68.6231 118.437 69.8798 121.229L65.2562 119.732C64.5607 124.506 63.6122 129.19 63.3119 133.907C63.3037 134.634 63.1525 135.352 62.8673 136.018C62.5821 136.684 62.1689 137.284 61.6521 137.783C60.1821 139.401 57.0996 139.619 57.6292 143.163C57.7398 143.916 54.2939 143.786 53.543 143.163C50.8242 140.922 48.0895 141.027 45.0466 141.771C44.6673 141.868 44.0903 141.116 43.6082 140.76C44.4855 138.996 46.0662 138.616 47.805 138.503C49.9197 138.277 52.0049 137.822 54.0251 137.143C55.1316 136.828 56.7993 136.796 56.6571 135.145C56.499 133.325 55.021 132.831 53.3533 132.637C47.6548 131.957 42.7151 134.198 37.7121 136.221Z" fill="#5A6C86"/>
<path id="Vector_4" d="M69.8008 121.221C69.4372 119.465 67.3111 119.602 66.4496 117.701C71.4842 115.12 76.4635 112.377 81.6088 110.007C83.4977 109.141 85.5606 109.287 86.9358 111.738C88.311 114.19 89.9392 116.35 91.4646 118.648C93.1401 119.279 93.4247 120.784 93.6539 122.321C91.6859 122.483 90.4055 124.894 88.1213 124.085C85.3472 122.548 83.0551 124.004 80.7315 125.315L78.8346 125.849C78.5235 125.544 78.2994 125.158 78.1865 124.732C77.9494 124.036 78.4947 123.381 78.2972 122.677C74.8038 126.035 72.488 122.297 69.7296 121.196L69.8008 121.221Z" fill="#171B22"/>
<path id="Vector_5" d="M24.8371 62.748C27.0976 60.2398 30.1405 58.9614 32.9542 57.3271C35.8153 56.9145 38.1547 57.5132 39.2217 60.6524C40.265 61.7366 39.1348 63.4681 40.3203 64.528C41.0396 66.2918 41.735 68.1203 39.9409 69.6171C38.2733 71.0168 36.8269 69.7628 35.3806 68.9618C35.9354 69.3848 36.5313 69.7481 37.1589 70.046C38.1784 70.5557 39.7671 70.6123 39.53 72.3276C39.3561 73.6869 38.1864 74.3341 37.064 74.8276C33.9026 76.2354 30.4329 77.0203 27.2715 78.5252C26.8536 78.681 26.418 78.7816 25.9752 78.8245C24.6316 78.776 23.4619 78.3633 23.5409 76.729C23.7385 72.5864 22.7506 68.2902 24.9004 64.35C25.0189 64.1558 24.3708 63.3386 24.8371 62.748Z" fill="#19132E"/>
<path id="Vector_6" d="M24.8371 62.748C25.0347 64.1477 26.2202 64.6412 27.1449 65.3208C27.1449 66.939 23.1457 63.0797 24.5605 67.6267C25.169 69.5685 24.0862 72.8777 23.9361 75.5962C23.8096 77.8374 25.0268 78.1449 26.734 78.0235C26.979 78.509 26.7339 78.8973 26.5521 79.318C26.481 79.5041 26.7655 79.5446 27.0975 79.6983C30.7806 81.4298 33.7049 84.5528 37.3722 86.0254C37.9096 85.726 38.1072 85.4833 38.1626 85.1596C38.5894 82.2712 40.6285 78.6465 38.8897 76.6966C37.1509 74.7467 34.0132 77.6918 31.4208 78.1691C29.8401 78.4604 28.2594 79.5284 26.6786 78.072C30.2195 75.0299 35.3726 75.5477 38.9529 72.4084C38.044 70.499 35.6808 70.5475 34.5822 68.9213C40.4546 69.9084 40.4862 69.876 39.3797 63.8807C41.6086 63.9373 41.9484 65.2076 41.5453 67.2141C43.126 65.159 39.5299 60.9356 44.1298 60.1832C45.1968 63.4195 42.4305 67.1494 45.505 70.1754C45.916 70.5799 45.8686 71.5347 46.8249 71.5185C52.0808 71.4295 57.3446 71.3647 62.6322 71.1948C62.8851 71.1948 63.1143 70.2077 63.3514 69.6818L63.9046 69.3582C68.797 70.7579 65.2087 72.5379 64.126 74.2127C63.5881 74.8933 62.8268 75.3505 61.9841 75.4992C61.5727 75.4114 61.2055 75.1761 60.9487 74.8357C55.7244 72.2143 47.2359 73.3308 44.2642 76.8989C42.1144 79.4637 42.2803 82.6758 41.6797 85.6613C41.3635 87.2794 42.6677 87.2794 43.7821 87.2147C46.7775 86.9801 49.8757 87.6435 52.7052 86.0173C53.9856 85.281 55.3055 84.8926 56.0484 86.8264L56.0959 87.4817C54.6969 89.9656 57.8347 89.5773 58.4117 91.2763C50.761 89.108 43.3948 88.1937 36.7399 93.3476C36.9138 91.3249 35.6413 91.244 34.2107 91.3896L33.8867 91.0012C36.2578 89.9575 37.3722 89.0028 34.2266 87.2066C30.9545 85.3376 27.9037 83.0237 24.8766 80.9605C23.1378 82.3278 24.3787 84.1968 23.3986 85.5642C22.6557 83.0398 24.3076 79.8197 21.1619 78.1853C21.7073 77.1012 23.288 76.9232 23.043 75.0056C22.6636 72.1091 23.2168 69.0669 22.7742 66.1785C22.4265 63.9939 23.3512 63.3629 24.8371 62.748Z" fill="#5A7385"/>
<path id="Vector_7" d="M109.192 111.795C110.876 110.557 109.595 108.558 110.623 106.689L124.676 110.986C128.841 113.826 129.291 115.476 127.047 119.764L115.523 121.164C114.804 120.452 113.832 120.719 112.994 120.525C107.73 119.327 106.829 117.329 109.192 111.795Z" fill="#181428"/>
<path id="Vector_8" d="M52.3733 112.725C52.2043 113.195 51.9235 113.614 51.5564 113.944C51.1893 114.275 50.7475 114.507 50.2709 114.618C48.382 113.114 48.8483 108.745 44.7858 109.869C44.579 109.493 44.4625 109.071 44.446 108.639C44.1298 107.83 45.4813 106.358 44.5329 106.463C40.4151 106.932 36.0603 105.217 32.1717 107.757C31.8333 108.021 31.4417 108.203 31.0257 108.291C28.7178 106.867 29.0181 104.108 27.7931 102.062C29.0893 102.733 30.2195 103.405 31.3023 101.972C31.2627 103.793 32.2191 104.327 33.8789 104.295C37.9571 104.222 42.0433 104.295 46.2164 104.295C46.2638 101.447 43.6161 99.9821 43.3869 97.215C45.6395 98.2749 45.758 101.042 47.7655 102.175C49.2909 101.018 48.8641 98.7685 50.1366 97.4416C50.184 103.445 50.1919 103.461 56.1512 101.422C59.5972 100.241 62.9721 98.809 66.4734 97.8381C69.0815 97.1099 68.0541 96.1147 67.0424 94.9092L66.995 94.9577C69.9668 95.8396 72.3062 95.0144 71.8083 91.5757C71.2867 87.9429 73.9344 85.6937 74.5825 82.603C75.0567 80.3052 74.701 79.8036 72.6461 80.0463L72.2904 79.5284C71.8162 74.504 76.5347 74.6739 78.969 72.4975C80.3047 73.9215 79.2535 75.8309 79.9095 77.352C80.0913 78.2582 80.4549 79.3019 79.7277 80.0058C75.4045 84.1241 74.0529 89.1404 75.2385 94.9658C75.3017 95.2814 75.4361 95.6454 75.199 95.8477C72.4327 98.2102 72.1324 102.458 68.9235 104.473C67.9988 100.735 65.9913 99.8203 62.5058 101.511C60.0373 102.658 57.464 103.553 54.8234 104.181C51.1799 105.112 50.0339 106.981 51.9861 110.46C52.3194 111.163 52.4535 111.948 52.3733 112.725V112.725Z" fill="#577082"/>
<path id="Vector_9" d="M1.61627 89.4963C6.56575 86.0991 11.7663 83.1018 17.1706 80.5317C18.7513 79.7226 19.5417 80.2889 19.4311 82.0123C19.1307 85.8797 18.7908 89.7553 18.3166 93.6065C18.1507 94.99 16.9019 95.2247 15.8112 94.8444C11.2824 93.1777 6.79314 91.4381 1.61627 89.4963Z" fill="#202A2C"/>
<path id="Vector_10" d="M37.7121 136.221C37.965 134.482 39.2217 133.859 40.668 133.478C45.0229 132.354 49.2909 130.477 53.8513 130.865C56.2224 131.067 57.977 133.13 58.5935 135.323C59.1546 137.33 57.0127 137.621 55.5585 137.969C51.6066 138.956 47.56 139.83 43.5528 140.752L37.7121 136.221Z" fill="#1D1B30"/>
<path id="Vector_11" d="M172.232 95.6778C172.366 96.9723 172.279 97.5468 170.651 96.8914C163.727 94.0758 156.337 93.291 148.363 91.5838C149.943 95.3785 146.086 99.9578 151.406 102.417C148.916 104.756 146.727 107.094 148.529 111.05C148.94 111.949 147.509 111.682 146.853 111.795C145.494 111.544 143.881 112.159 142.901 110.622C143.557 108.696 145.375 107.134 144.055 104.634C143.549 103.688 144.292 102.134 145.193 101.244C147.035 99.4482 146.695 97.1989 146.434 95.0871C146.031 91.8508 143.21 93.7765 141.621 93.0078C141.195 92.8409 140.789 92.6237 140.412 92.3605C139.819 90.8475 141.004 90.3864 141.921 90.2569C144.569 89.9009 144.956 87.8297 145.462 85.8069C149.003 86.6808 149.667 86.6969 152.449 85.9364C152.862 86.0444 153.218 86.3109 153.445 86.6808C152.939 88.93 153.737 90.0789 156.053 90.4673C160.526 91.2197 164.937 92.3363 169.426 93.0725C170.058 93.2564 170.64 93.5872 171.126 94.039C171.613 94.4909 171.991 95.0518 172.232 95.6778Z" fill="#5774C1"/>
<path id="Vector_12" d="M19.1781 110.047C19.518 112.555 18.3877 113.785 17.874 115.193C14.7125 123.381 12.6734 123.915 5.33887 118.85C3.41039 117.515 3.9162 116.811 5.56806 116.067C9.97037 114.093 14.3964 112.151 19.1781 110.047Z" fill="#232D30"/>
<path id="Vector_13" d="M58.7278 31.8651C60.8934 29.0576 65.0903 29.4945 67.0504 26.3714C70.4015 26.8488 71.342 29.4945 72.1166 32.2939C70.8283 38.9689 70.7888 38.9851 61.9525 36.7035C59.6763 35.9349 57.4237 35.1339 58.7278 31.8651Z" fill="#1C153A"/>
<path id="Vector_14" d="M44.1299 60.1589C40.4231 61.8903 44.7305 65.604 42.2567 67.7724C40.4784 67.1251 41.1581 64.4794 39.3798 63.8564L38.6526 61.3159C38.3128 59.0504 35.6018 57.0601 37.9018 54.4872C40.4705 52.4321 41.9326 49.4385 44.0192 46.9708C46.493 47.2701 45.6869 49.4789 45.3628 50.4336C44.2642 53.67 44.9597 57.0358 44.0982 60.2317L44.1299 60.1589Z" fill="#130F32"/>
<path id="Vector_15" d="M71.4289 32.0512C69.9114 30.2146 69.1211 27.7873 67.0424 26.3876C65.6593 23.4101 64.5054 20.2871 60.7748 19.4618C58.712 19.0087 60.4903 17.8436 60.5456 17.0345L62.3556 14.1542C62.8984 14.4882 63.3307 14.9815 63.5964 15.5701C65.1772 18.4181 67.9276 20.2466 69.7692 22.8519C70.9784 24.3244 71.8636 26.1692 73.9343 26.6627C76.993 30.6353 81.4902 30.1499 85.6712 30.6434C86.0978 30.6262 86.5232 30.7006 86.92 30.8619C88.5955 34.6161 84.8177 33.4914 83.6479 34.7131C83.1239 35.0624 82.5545 35.3348 81.9565 35.5222C81.558 35.6004 81.1499 35.6141 80.7473 35.5627C80.3596 35.4509 80.0025 35.2487 79.704 34.972C77.3329 32.8603 74.4165 33.1435 71.5712 33.2001C71.4637 33.1104 71.3799 32.9945 71.3274 32.8631C71.2749 32.7316 71.2555 32.5888 71.2708 32.4477C71.3182 32.1564 71.3736 32.0512 71.4289 32.0512Z" fill="#65DDF6"/>
<path id="Vector_16" d="M127.078 119.764C128.216 116.277 126.683 113.559 124.707 110.986L124.897 110.775C126.067 108.3 126.256 105.532 127.11 102.968C127.537 101.689 127.11 99.7313 129.354 99.6666C131.402 102.053 130.327 104.651 129.671 107.102C128.959 109.756 130.959 110.662 132.389 110.67C135.733 110.67 138.934 111.641 142.245 111.714C143.036 111.997 144.095 112.191 144.016 113.267C143.921 114.538 142.704 114.578 141.779 114.837C138.452 113.445 134.942 114.529 131.504 114.076C131.211 113.985 130.896 114.009 130.619 114.143C130.343 114.278 130.126 114.514 130.01 114.805C129.962 114.95 129.961 115.108 130.008 115.254C130.055 115.4 130.147 115.527 130.271 115.614C130.506 115.813 130.801 115.922 131.105 115.922C131.41 115.922 131.705 115.813 131.939 115.614C134.737 113.381 137.93 114.279 141.02 114.368C141.116 114.411 141.203 114.473 141.275 114.55C141.348 114.628 141.404 114.719 141.442 114.819C141.479 114.919 141.497 115.026 141.494 115.133C141.491 115.241 141.467 115.346 141.423 115.444C140.941 116.609 142.253 119.958 138.673 117.151C137.392 116.14 132.935 117.28 131.654 118.882C129.916 121.148 128.477 119.19 127.078 119.764Z" fill="#5A6C86"/>
<path id="Vector_17" d="M45.023 108.963L45.0941 110.144C46.4456 113.591 42.9522 115.209 42.4701 117.968C43.7663 117.701 45.0625 116.172 46.6985 117.313L46.9514 117.644C46.825 120.759 43.6319 120.646 42.2488 122.175C45.1257 124.441 49.5912 123.721 51.4565 127.726C51.4169 128.106 51.3853 128.486 51.3537 128.867L38.052 123.324L37.4434 127.904C36.7163 120.808 33.0806 114.813 31.0257 108.291C31.1565 108.158 31.3125 108.054 31.4841 107.984C35.4359 109.74 35.1435 114.457 37.7121 117.491C39.6564 116.633 39.933 114.384 41.1423 112.952C42.3515 111.52 42.5017 109.036 45.023 108.963Z" fill="#4C6772"/>
<path id="Vector_18" d="M109.192 111.795C109.192 113.623 109.192 115.452 109.279 117.28C109.319 118.203 109.603 119.505 110.702 118.996C113.286 117.798 113.942 120.484 115.555 121.164C108.355 123.518 100.925 121.455 93.6539 122.321C92.9211 122.076 92.2978 121.572 91.8964 120.898C91.495 120.225 91.3418 119.427 91.4645 118.648C91.6779 118.454 91.8835 118.251 92.089 118.041C93.0295 117.628 93.8199 118.081 94.6497 118.47C101.154 121.528 103.201 120.687 106.244 114.149C106.734 113.097 107.454 111.56 109.2 111.811L109.192 111.795Z" fill="#5A6C86"/>
<path id="Vector_19" d="M19.842 106.366C18.5142 105.557 15.7163 107.175 16.2617 104.384C16.6489 102.393 17.3919 98.9465 19.7155 99.1164C21.9048 99.2782 23.5725 102.393 23.6674 104.667C23.8333 107.224 21.0512 105.476 19.842 106.366Z" fill="#29363B"/>
<path id="Vector_20" d="M8.43713 74.3745C7.50451 76.381 7.76533 79.4636 4.88051 79.6659C3.29978 79.7792 0.138369 79.0753 0.517742 77.3762C1.10261 74.5849 4.46955 73.8567 6.84064 72.6997C8.0736 72.101 8.20003 73.4279 8.43713 74.3745Z" fill="#2F3E44"/>
<path id="Vector_21" d="M58.7278 31.8651C58.4749 34.082 60.3085 34.7454 61.5573 35.8377C61.415 35.9995 61.2728 36.1533 61.1384 36.3151C59.0439 37.1242 58.6804 38.6857 59.1467 40.7732C59.6367 42.9981 60.3797 45.2636 59.2732 47.5371L58.8069 47.974C57.2894 45.927 57.6371 43.3541 56.9495 41.0806C56.6413 40.0692 56.665 38.8394 56.088 38.0465C52.8475 33.5642 52.9266 33.2486 57.8584 31.9864C58.1523 31.9869 58.4448 31.9461 58.7278 31.8651V31.8651Z" fill="#586A99"/>
<path id="Vector_22" d="M69.7454 121.196C70.4627 121.362 71.1678 121.578 71.8557 121.844C76.3766 123.955 76.5979 123.907 79.9727 119.206L78.7951 125.161C77.0958 125.355 75.6336 125.857 75.3491 127.904L69.777 131.569C72.7172 127.928 75.112 124.635 69.7454 121.196Z" fill="#525885"/>
<path id="Vector_23" d="M44.0982 60.2317C44.0192 58.8401 44.3907 57.1652 43.7663 56.1215C42.6835 54.3334 42.5175 53.5405 44.3275 52.0195C45.6316 50.9191 45.426 48.5889 44.0192 46.9708L46.8724 43.7344C46.8724 46.4044 49.9074 46.7119 50.6187 48.8317L50.4211 49.0582L46.4693 47.2135C45.671 51.6715 45.8923 56.1701 44.0982 60.2317Z" fill="#5A7385"/>
<path id="Vector_24" d="M36.8032 158.269C36.6135 154.563 36.4396 152.039 38.4313 150.607C39.3403 149.951 41.6876 151.278 41.7666 152.273C41.9959 155.194 38.8502 155.477 36.8032 158.269Z" fill="#394D55"/>
<path id="Vector_25" d="M17.8819 126.108C20.253 121.738 21.4228 121.892 29.0102 126.415C26.6391 127.855 24.5052 129.352 20.5059 129.724L26.6233 126.156C23.6516 125.59 21.6361 122.742 17.8819 126.108Z" fill="#3D535B"/>
<path id="Vector_26" d="M24.2838 133.341C25.4299 131.723 27.1687 131.156 28.8522 130.679C30.0614 130.339 30.5593 131.415 30.1879 132.346C29.6741 133.624 30.2827 136.003 28.3463 135.93C27.5098 135.888 26.6975 135.629 25.9866 135.175C25.2756 134.722 24.6895 134.091 24.2838 133.341V133.341Z" fill="#374952"/>
<path id="Vector_27" d="M34.1871 91.3492C31.1995 94.0191 26.5759 92.8864 23.699 96.147C23.0034 96.9561 21.8654 95.4674 21.9049 94.3104C22.016 92.4809 22.2804 90.6646 22.6952 88.8815C22.3554 94.3023 24.8529 93.9059 28.2278 92.3929C29.9824 91.5838 31.9978 91.422 33.8946 90.9689C33.9658 91.1145 34.0764 91.2197 34.1871 91.3492Z" fill="#5F7882"/>
<path id="Vector_28" d="M8.23953 108.583C7.0698 106.641 12.1914 103.615 6.76947 103.485C6.12927 103.485 5.03066 103.251 5.71827 104.642C5.93167 105.079 6.67461 105.905 5.66294 105.937C4.65128 105.969 3.84513 104.885 3.363 103.89C3.28739 103.749 3.24891 103.591 3.25133 103.431C3.25375 103.27 3.29699 103.113 3.3768 102.975C3.45661 102.837 3.57019 102.723 3.70638 102.643C3.84257 102.564 3.99665 102.522 4.15337 102.523C6.09766 102.223 8.04984 101.972 10.0099 101.835C10.2081 101.799 10.4122 101.823 10.597 101.905C10.7818 101.986 10.9391 102.122 11.0494 102.294C11.1597 102.467 11.2181 102.668 11.2173 102.874C11.2166 103.08 11.1568 103.282 11.0453 103.453C10.1838 105.079 10.3893 107.385 8.23953 108.583Z" fill="#3C515A"/>
<path id="Vector_29" d="M151.334 102.442C155.776 100.249 159.918 97.0532 165.561 97.9918L160.281 100.362C157.167 100.5 154.527 102.733 151.334 102.442Z" fill="#5774C1"/>
<path id="Vector_30" d="M37.9018 54.4872C38.1547 56.758 38.405 59.0315 38.6526 61.3077C37.4276 60.3854 37.3011 57.1005 34.5348 59.2527C34.5348 59.2527 33.4995 57.9986 32.9541 57.3271C33.7445 56.4695 35.6018 56.3076 35.5623 55.0131C35.3884 49.8512 37.1351 54.6167 37.9018 54.4872Z" fill="#7579A5"/>
<path id="Vector_31" d="M141.423 115.476C141.371 115.169 141.261 114.875 141.099 114.61L141.155 114.562C142.198 114.788 142.672 113.85 143.383 113.405L142.111 112.596C141.629 111.479 141.803 110.743 143.17 110.735C144.213 111.795 146.197 109.448 146.869 111.819C147.256 116.431 143.605 114.813 141.423 115.476Z" fill="#D4D2E9"/>
<path id="Vector_32" d="M30.4803 120.096C27.6508 120.42 25.1137 119.052 22.7743 117.968C20.0554 116.714 22.7743 115.387 23.5646 112.855C22.711 120.023 28.7494 117.191 30.4803 120.096Z" fill="#4C6772"/>
<path id="Vector_33" d="M32.1638 146.82C34.3689 144.466 37.3564 144.619 39.4508 142.686C39.9646 142.216 40.4151 141.877 40.9209 142.475C41.7113 143.43 40.8498 143.956 40.2017 144.183C37.5461 145.129 34.8431 145.954 32.1638 146.82Z" fill="#3E545C"/>
<path id="Vector_34" d="M75.3807 127.904C74.4639 124.279 75.9498 123.81 78.8267 125.153C78.8608 125.383 78.8793 125.616 78.882 125.849C77.8783 126.868 77.1906 128.422 75.3807 127.904Z" fill="#B4BBD2"/>
<path id="Vector_35" d="M16.7438 127.742C17.8819 130.072 19.1623 131.504 16.8861 132.831C16.2143 133.227 15.4397 133.988 15.005 133.268C13.6614 131.019 16.8071 130.404 16.7438 127.742Z" fill="#6A7B83"/>
<path id="Vector_36" d="M80.7473 125.315C82.9049 122.976 85.0864 120.776 88.1371 124.085C85.5448 123.664 83.2843 125.096 80.7473 125.315Z" fill="#525885"/>
<path id="Vector_37" d="M72.654 80.0219C70.2227 81.9287 67.3931 83.2331 64.3868 83.8328C64.292 83.6305 64.1892 83.4282 64.0865 83.2259C65.7937 80.4993 68.4335 79.5769 71.3736 79.1805C71.8028 79.3066 72.196 79.537 72.5196 79.852L72.654 80.0219Z" fill="#576489"/>
<path id="Vector_38" d="M64.3868 83.8328C61.8418 85.5885 59.2257 87.1824 56.0643 87.4656V87.4008C57.6924 83.6952 60.4508 82.5463 64.2208 83.5576L64.3868 83.8328Z" fill="#556A82"/>
<path id="Vector_39" d="M67.0504 94.8849C64.7978 95.071 63.0985 93.5661 61.17 92.7975C62.4504 91.8589 62.4504 91.8589 67.0029 94.9334L67.0504 94.8849Z" fill="#708192"/>
<path id="Vector_40" d="M63.3277 69.6576C60.9566 62.6266 58.5856 55.5876 58.8069 47.9741C62.0236 48.7832 60.7748 51.7687 61.2886 53.6862C61.3992 51.259 61.9999 49.034 64.45 47.7556C64.6579 47.717 64.8721 47.7357 65.0707 47.8096C65.2692 47.8835 65.4451 48.0101 65.5802 48.1763C65.7462 48.589 65.9754 49.123 65.7699 49.4628C64.1892 52.1166 65.7699 52.513 67.8486 52.5211C68.6389 55.6442 64.9796 55.5552 64.3552 57.6589C64.1497 58.0149 63.9126 58.3466 63.6755 58.6783C62.6322 60.4987 63.6755 62.2221 63.9442 63.9697C64.2525 65.8792 65.0665 67.8371 63.4225 69.5524L63.3277 69.6576Z" fill="#586A99"/>
<path id="Vector_41" d="M57.89 59.3984C56.7367 61.0581 55.2422 62.439 53.5114 63.4438C52.4207 64.0182 51.7726 63.4438 51.4802 62.4648C51.3063 61.8985 51.662 60.8466 52.2706 61.2188C54.6654 62.659 55.4004 59.4388 57.89 59.3984Z" fill="#5F7784"/>
<path id="Vector_42" d="M50.6187 48.8398C53.4403 48.2896 54.7681 49.3981 54.452 52.4321C52.397 52.1328 51.2905 50.7492 50.4211 49.0663L50.6187 48.8398Z" fill="#5A7385"/>
<path id="Vector_43" d="M129.378 99.6018C127.797 101.657 128.224 104.295 127.394 106.528C126.841 108.041 127.592 110.573 124.865 110.775C123.703 107.264 120.408 108.995 118.202 108.105C112.314 105.727 111.88 105.46 112.543 99.3753C109.437 101.212 109.437 101.212 109.706 103.971L106.039 101.026C107.398 103.704 108.521 105.945 105.059 105.209C100.056 104.149 95.4401 106.738 90.4529 106.471C87.2915 106.293 84.5252 104.982 81.2531 104.853C83.6795 107.062 82.5335 108.308 79.9727 109.489C75.5388 111.528 71.2787 113.858 66.5761 116.212C66.0465 112.677 68.4888 109.893 68.1568 106.698C68.0113 106.361 67.9983 105.979 68.1205 105.633C68.2427 105.286 68.4906 105.001 68.8128 104.837C70.6544 101.956 70.6227 97.9028 74.045 96.0014C74.3928 95.8072 74.9934 95.4108 74.535 95.1276C69.9588 92.3767 74.3612 89.464 74.7484 86.9477C75.1357 84.4315 74.5903 79.9653 79.2614 79.666C79.1744 78.7921 79.0796 77.9184 78.9927 77.0526L79.3325 76.551C82.8496 74.7548 86.6671 73.6788 90.2 71.9069C90.5739 71.7149 90.9593 71.5473 91.3539 71.4052C92.7845 70.944 94.215 70.4829 95.6298 69.9731C97.2816 69.3825 98.9335 68.0475 100.712 69.3421C102.609 70.7175 99.7396 72.3114 100.712 73.9215C101.81 68.3145 102.213 67.9909 105.897 69.6252C109.058 71.4619 111.216 75.0785 115.302 75.3778C117.31 75.5258 119.19 76.4447 120.566 77.9507C121.356 80.378 120.613 81.7372 118.029 82.2227C111.532 83.4444 105.035 84.7227 98.5067 85.7826C96.2329 86.1527 93.9093 86.0459 91.6771 85.4687C89.4448 84.8915 87.3504 83.856 85.5211 82.425C87.8526 84.383 91.7649 84.1807 92.3181 88.396C92.4683 89.5126 93.3298 88.5416 93.6618 88.2746C99.3761 83.6224 106.687 85.3538 113.01 83.1693C116.171 82.0851 119.854 82.967 122.494 80.2809C127.402 79.4718 131.789 77.0445 136.444 75.4264C137.369 74.8519 138.712 74.1157 139.234 75.2484C140.024 77.0526 138.191 78.4847 137.653 80.4185C141.147 74.6173 141.147 74.6173 144.118 78.4362C145.075 80.6369 147.217 82.5382 145.818 85.3458C146.956 89.0837 146.118 91.3411 141.787 91.2278C141.226 91.2278 140.641 92.0369 140.072 92.5061C138.704 94.6502 136.42 93.3153 134.666 93.9949C133.875 93.9949 132.974 93.9949 132.54 93.3476C131.441 91.7295 130.595 92.401 129.844 93.558C129.386 94.2781 127.932 94.8849 129.592 96.0823C130.485 96.7215 130.334 98.0484 129.821 99.1164L129.378 99.6018Z" fill="#191032"/>
<path id="Vector_44" d="M109.2 111.811C109.627 113.664 103.897 113.866 107.912 117.167C108.465 117.62 104.442 120.403 102.04 121.107C98.1985 122.232 95.0054 120.444 92.089 118.049C91.5436 114.206 88.1372 111.94 86.4616 108.647C92.9742 106.544 99.2496 107.418 105.351 106.52C107.786 106.164 109.279 108.963 109.2 111.811Z" fill="#15151F"/>
<path id="Vector_45" d="M68.7812 104.869C68.5599 105.492 68.3386 106.115 68.1252 106.73C66.0149 108.809 65.3589 111.973 64.6318 114.408C63.6755 117.644 61.9919 117.102 60.7353 116.326C58.5776 114.983 53.622 117.515 54.4124 111.9L52.3575 112.749C52.1387 112.541 51.9377 112.314 51.7568 112.07C47.9157 105.783 48.0263 105.46 54.6811 103.17C57.3921 102.239 60.0872 101.269 62.7982 100.338C69.2001 98.105 69.2001 98.1131 68.7812 104.869Z" fill="#171C1D"/>
<path id="Vector_46" d="M61.1543 135.096C57.2815 131.011 52.0018 128.13 54.5389 121.213C54.5942 121.067 54.7365 120.857 54.6891 120.784C53.6458 119.166 50.0022 116.924 55.3134 116.552C60.846 116.164 64.2841 118.696 63.1381 122.839C62.2055 126.213 62.8694 129.449 62.158 132.661C61.8868 133.499 61.5511 134.313 61.1543 135.096V135.096Z" fill="#1A192B"/>
<path id="Vector_47" d="M51.4565 127.726L39.9962 122.507C41.7429 119.95 45.2601 120.145 46.9514 117.653C49.37 117.564 51.8991 118.106 51.9781 120.889C52.0414 123.082 54.5784 125.735 51.4565 127.726Z" fill="#192020"/>
<path id="Vector_48" d="M46.6985 117.313L40.0121 120.177C41.8457 116.568 43.4659 113.348 45.0941 110.136L47.9473 107.078C49.4411 109.594 49.7414 112.151 50.3184 114.618C50.0892 116.949 46.9277 115.088 46.6985 117.313Z" fill="#192020"/>
<path id="Vector_49" d="M64.1813 83.5334C61.1711 84.0293 58.3506 85.3583 56.0248 87.3765C55.4874 86.8992 54.4994 85.9768 54.4441 86.0011C50.3342 90.3701 44.7859 87.239 39.7275 89.3749C40.3914 85.5642 40.7392 82.2308 41.5928 79.043C42.557 75.4021 45.1099 72.9263 48.7772 72.5703C52.4445 72.2143 56.3726 72.5702 60.1742 72.4327C62.9484 72.3437 61.3676 74.1237 61.4546 75.1998C60.4982 76.5267 60.0478 78.1853 58.8543 79.3666C60.1979 78.339 60.3401 76.4377 61.6284 75.3697L63.5174 73.4198C68.7812 72.4085 71.8241 74.7791 71.5317 79.6902C69.0579 80.9281 66.3311 81.632 64.1813 83.5334Z" fill="#171821"/>
<path id="Vector_50" d="M71.5553 79.6579C70.765 75.0461 67.3032 73.9943 63.5411 73.3875C65.3273 72.0282 67.0107 70.6689 63.3593 69.5848C63.5964 66.4293 62.4345 63.5328 61.7785 60.5472C61.4624 59.188 61.0909 57.586 63.4778 58.12C69.9193 57.1086 75.7838 59.3498 82.6836 61.0894C79.2851 64.1153 75.8549 64.9649 73.0649 66.8824C75.3412 65.5717 77.6964 64.4552 80.0517 63.2739C80.8421 62.8774 81.7194 62.1978 82.5098 63.1282C83.3002 64.0587 82.8338 64.9406 82.5098 65.7821C81.695 67.9614 80.698 70.0647 79.5301 72.0687L78.9927 72.4651C77.0642 73.5088 77.4119 77.9912 73.6024 76.2031C74.0134 77.6514 73.879 78.9459 72.5828 79.9006L71.5553 79.6579Z" fill="#1B1145"/>
<path id="Vector_51" d="M26.6787 78.0398C30.6305 77.7485 34.1239 75.6125 37.9018 74.6659C39.7987 74.1723 40.6602 74.1238 40.4389 76.9637C40.1543 80.6855 40.6997 85.6128 38.1152 87.3038C35.9338 88.7358 32.7803 84.3749 29.9508 82.7648C28.6309 82.0205 27.4532 81.0334 26.1728 80.2081C24.0309 78.8246 27.2952 78.9298 26.734 77.9912L26.6787 78.0398Z" fill="#191F20"/>
<path id="Vector_52" d="M78.9611 77.0931C77.0958 75.5477 79.7989 73.9781 78.9611 72.4327C80.0202 69.7385 81.7352 67.2788 82.4861 64.5279C83.4266 61.0812 85.3076 61.1298 87.8763 62.1007C90.9745 63.2577 94.1281 64.2367 97.3132 65.1429C100.475 67.9342 100.419 68.1284 97.005 69.9974C95.0449 71.0573 92.7844 71.3162 90.8718 72.4732H90.9271C86.9279 74.0186 82.9129 75.5235 78.9532 77.1821L78.9611 77.0931Z" fill="#1B1145"/>
<path id="Vector_53" d="M45.0229 108.963L37.7358 120.557C35.0723 116.253 34.1871 111.609 31.4761 107.984C31.0414 106.018 31.729 105.193 33.7682 105.257C36.9101 105.412 40.0582 105.385 43.1972 105.176C47.3466 104.82 46.3824 106.714 45.0229 108.963Z" fill="#192020"/>
<path id="Vector_54" d="M134.974 93.024L140.08 92.5385C142.395 91.7295 144.94 92.5385 147.675 91.0741C147.675 94.3104 147.675 97.118 147.675 99.9012C147.675 100.637 147.675 101.196 146.719 101.657C145.446 102.264 145.525 104.036 146.15 105.443C147.533 108.51 144.608 109.206 143.178 110.711C142.182 110.945 142.222 111.803 142.119 112.572C138.444 113.235 134.903 111.892 131.323 111.536C129.979 111.398 126.746 109.626 128.533 106.342C129.686 104.23 129.663 101.924 129.386 99.6019V99.6585C130.461 94.0515 130.461 94.0515 134.824 96.1228C135.314 96.495 135.251 95.5322 134.974 96.1228C134.974 96.1956 134.832 96.1228 134.595 95.9367C134.112 95.5969 133.338 95.4512 133.164 94.9334C132.54 93.1453 134.5 93.8169 134.974 93.024Z" fill="#181428"/>
<path id="Vector_55" d="M145.826 85.3862L143.51 78.9782C142.482 77.8536 141.526 76.4134 142.577 75.1189C143.518 73.9538 145.035 74.7791 146.26 75.305C146.173 77.1093 149.034 74.8519 148.631 77.1012C153.761 80.8149 154.417 82.6758 151.927 86.4623L148.205 88.8895L145.826 85.3862Z" fill="#14204E"/>
<path id="Vector_56" d="M153.129 86.5837C159.554 86.8264 165.474 88.2585 169.6 93.9139C164.613 93.5984 159.815 92.0854 154.899 91.4867C150.465 90.8799 150.56 89.4155 153.129 86.5837Z" fill="#14204E"/>
<path id="Vector_57" d="M79.87 34.7778L80.8105 34.9478C80.6367 37.2698 78.6054 37.3184 77.1591 37.7553C73.2942 38.9365 70.4093 41.0644 68.8128 44.9885C68.1963 46.4934 67.4534 48.2249 65.3352 48.1521C65.1852 48.0322 65.0267 47.924 64.861 47.8284C64.1338 46.008 65.1613 44.5354 65.9201 43.1114C67.2242 40.6842 66.8606 39.1712 64.126 38.2569C63.0115 37.9009 61.336 37.7634 61.5731 35.7811C62.3081 35.7811 63.1538 35.5788 63.7782 35.8782C68.0304 37.9737 70.8915 37.3022 71.4527 31.9622C71.5505 32.0784 71.6195 32.217 71.6539 32.3663C71.6883 32.5156 71.687 32.6712 71.6502 32.8199C72.654 34.2196 73.9028 34.5675 75.6021 34.171C76.9615 33.8959 78.5422 33.5885 79.87 34.7778Z" fill="#4B5CB5"/>
<path id="Vector_58" d="M98.4039 18.0622C100.459 20.9668 100.135 21.9862 97.5187 22.7467C94.5312 23.6205 92.8556 26.5413 90.4529 28.564C89.0935 26.0397 91.9625 23.7095 90.4529 21.2823C88.7457 24.4377 89.7653 28.645 86.6355 31.1127L86.3905 31.1774H86.1375C82.5256 30.0366 82.5967 30.0285 81.9644 25.3844C81.8222 24.3568 80.6603 23.7014 79.8384 23.0784C78.6212 22.148 78.5975 23.5315 78.0363 24.1464C76.8034 25.5057 74.0845 23.9361 73.2942 26.4524C72.5038 26.8164 72.1402 29.1223 70.9231 26.9135C70.2908 25.7727 69.6743 24.6238 69.0499 23.483C71.421 21.5493 73.5392 19.1625 77.001 19.6641C78.8109 19.8259 80.2098 18.8551 81.6483 17.9489C84.3355 17.8437 86.5485 16.3307 88.9512 15.3679C90.1289 13.5394 91.9941 13.3533 93.8673 13.1753C97.3607 12.9164 96.1356 17.1722 98.4039 18.0622Z" fill="#5B79CE"/>
<path id="Vector_59" d="M65.3352 48.1521C66.0395 47.369 66.6498 46.5025 67.1531 45.5711C69.0895 40.6437 72.4722 37.6015 77.5937 36.4931C78.7212 36.1082 79.8008 35.5896 80.8104 34.9477C81.1061 34.9017 81.4079 34.921 81.6956 35.0044C85.7976 37.019 84.0193 39.8589 82.731 42.6341C80.9527 44.5273 77.9414 45.0613 77.0958 47.9902C76.8021 48.296 76.476 48.5674 76.1236 48.7993C73.5787 50.0534 71.1048 51.4693 68.552 52.6991L67.9435 52.7558C66.0782 52.2865 64.9875 54.1312 62.8693 54.374L65.3352 48.1521Z" fill="#1B134E"/>
<path id="Vector_60" d="M81.7036 42.3509C82.9603 39.9236 84.0747 37.4398 81.7036 35.0044L82.818 34.0173C86.4616 34.0173 89.631 35.0772 91.9467 38.1517C93.2903 38.4592 93.8515 40.2634 96.0961 39.2683C97.748 38.532 101.629 38.346 102.095 41.5256C102.514 44.1794 99.9768 45.7409 97.5346 46.5581C96.7961 46.7604 96.0427 46.9011 95.282 46.9789C91.5439 47.5217 87.7581 47.6329 83.9957 47.3106C80.2098 47.0678 79.8463 46.0807 81.7036 42.3509Z" fill="#282F84"/>
<path id="Vector_61" d="M73.3416 26.4442C74.5034 25.7484 73.7131 21.9538 76.7718 24.2193C77.246 24.5672 77.823 24.4215 77.3804 23.4102C76.1474 20.5945 78.7161 20.7078 79.7515 21.1123C81.6118 22.0145 83.1109 23.5464 83.9957 25.4491C85.1417 28.4184 81.9012 25.5704 80.9607 27.0673L86.1849 31.1693C81.7826 32.9655 77.9968 30.1175 73.9423 29.3731C73.0097 29.1951 73.5708 27.4475 73.3416 26.4442Z" fill="#212568"/>
<path id="Vector_62" d="M79.8699 34.7778C78.2892 34.9558 76.2659 34.5513 75.1673 35.3927C70.9863 38.6291 71.753 35.2309 71.6344 32.8765C74.7958 30.0123 77.5779 33.3296 80.5576 33.3215L79.8699 34.7778Z" fill="#1A2062"/>
<path id="Vector_63" d="M141.099 114.578C138.159 115.055 135.361 114.279 132.358 116.771C128.359 120.088 128.849 115.322 128.106 112.895C132.698 112.588 136.902 113.793 141.162 114.513L141.099 114.578Z" fill="#0A0A0A"/>
<path id="Vector_64" d="M61.5731 35.8135C63.4937 37.909 67.896 36.7439 68.3228 39.4463C68.6627 41.7279 66.2995 44.4222 65.1614 46.9385C65.0515 47.2291 64.9591 47.5263 64.8847 47.8284L61.2965 53.6539C59.0282 52.4483 60.6642 49.3981 58.7911 47.9903C59.21 45.3445 58.5144 42.804 57.8584 40.3363C56.8626 36.7358 57.8743 35.2067 61.5731 35.8135Z" fill="#130F22"/>
<path id="Vector_65" d="M161.388 72.5622C159.357 71.7531 156.369 73.5735 155.215 70.8146C154.298 68.6138 152.473 65.8144 153.698 63.8645C154.63 62.392 157.523 64.1072 159.53 64.4228C162.378 64.8238 165.183 65.4956 167.908 66.4293C168.525 66.6558 172.477 65.2319 170.113 68.8566C170.058 68.9375 170.335 69.2449 170.453 69.4472C174.508 66.4212 174.555 71.9635 176.903 72.6027C177.345 74.3179 178.705 75.3616 179.732 76.6481C180.76 77.9346 179.495 77.9831 178.823 78.3472L177.922 78.0155C176.642 77.5624 175.172 77.5138 174.105 76.6158C171.394 74.3422 168.43 74.2451 165.269 75.2807C163.957 74.3827 163.269 72.5784 161.388 72.5622Z" fill="#5E79E3"/>
<path id="Vector_66" d="M155.998 74.6011L161.309 74.415C163.269 78.7031 166.501 81.6159 170.611 83.679C172.753 84.7551 175.765 86.4704 174.563 88.8733C172.856 92.3039 170.548 88.6549 168.58 87.9915C167.047 87.4656 165.711 86.3166 164.296 85.4428C162.573 84.3748 160.479 84.2454 160.439 80.9039C160.439 79.2857 156.756 77.6675 155.942 75.0461L155.998 74.6011Z" fill="#213D83"/>
<path id="Vector_67" d="M179.851 79.2857C182.222 81.3812 185.383 78.9782 187.802 80.8391C188.521 81.3893 190.173 80.9039 190.307 82.2065C190.442 83.5091 189.058 83.8247 188.142 84.2535C186.039 85.3377 183.897 86.349 181.771 87.3846C177.819 86.8587 174.903 84.3344 172.129 81.7211C171.078 80.7259 172.524 79.6579 173.03 80.1029C175.685 82.2631 177.59 79.3828 179.851 79.2857Z" fill="#3533AD"/>
<path id="Vector_68" d="M165.268 75.2484C169.181 72.012 171.852 72.5784 177.914 77.9831C175.029 79.6013 171.781 78.9378 168.722 79.3262C166.652 79.5932 165.885 77.1335 165.268 75.2484Z" fill="#344596"/>
<path id="Vector_69" d="M142.514 72.368C144.727 72.368 146.513 68.4763 149.058 71.6317C149.019 73.4684 153.642 75.6771 148.639 77.1335L146.782 76.3244C145.723 74.6092 141.953 75.928 142.514 72.368Z" fill="#1D3368"/>
<path id="Vector_70" d="M155.998 74.6011C156.047 74.6642 156.074 74.7427 156.074 74.8236C156.074 74.9045 156.047 74.9829 155.998 75.0461C155.998 76.4053 156.369 77.797 155.397 79.3828C153.816 77.5057 152.235 75.8956 154.219 73.4036L155.998 74.6011Z" fill="#2D7DCF"/>
<path id="Vector_71" d="M81.7036 42.3508C80.4944 45.3687 81.4981 46.3963 84.628 46.2102C88.4454 45.9594 92.2945 46.0727 96.1277 46.0322C96.9971 47.7151 95.4401 47.9255 94.6497 48.597C91.9072 49.7136 89.2516 48.3624 86.5485 48.2896C82.5967 48.1763 82.1936 48.6537 83.0709 52.4483C83.2843 53.3545 83.5768 54.2445 83.8613 55.1345C84.1676 56.0816 84.3665 57.0616 84.4541 58.0553C85.5843 57.2462 86.2798 56.0002 87.4891 55.4581C88.1846 55.1425 88.9354 54.8351 89.6231 55.4581C89.7653 55.5893 89.879 55.7497 89.9568 55.9288C90.0347 56.1079 90.0749 56.3018 90.0749 56.4978C90.0749 56.6938 90.0347 56.8876 89.9568 57.0667C89.879 57.2458 89.7653 57.4062 89.6231 57.5374C87.252 60.5472 89.1567 61.3563 91.6543 62.2463C93.725 62.9826 96.2463 63.0554 97.5029 65.4018L97.2105 66.0005C96.9112 66.0373 96.6087 66.0373 96.3095 66.0005C92.4367 64.8273 88.2557 62.1331 84.7939 62.8936C81.3321 63.6541 81.917 69.7708 78.9611 72.4894C78.7951 69.1883 81.4744 66.9229 81.9802 63.2092L70.4805 68.8728C70.3303 68.5653 70.1881 68.2579 70.0458 67.9585L81.5772 61.6719L63.4779 58.1443C63.4702 57.9189 63.4465 57.6945 63.4067 57.4727C66.2599 55.1344 69.208 57.0115 72.1007 57.2785C72.5512 57.2785 72.9859 57.5132 73.4364 57.5374C75.7443 57.6426 79.1586 59.9161 80.0597 57.675C81.1583 54.9322 79.8937 51.3156 77.1353 49.0582C76.7717 48.7803 76.4541 48.4442 76.1948 48.063C76.59 47.2539 77.5384 46.2021 77.3092 45.8057C75.5941 42.8039 77.1749 43.6535 78.8899 44.1875C80.2731 44.5192 80.4628 42.4317 81.7036 42.3508Z" fill="#5C69D6"/>
<path id="Vector_72" d="M76.1711 48.0064C80.0044 47.1973 80.0676 50.2233 80.7236 52.691C82.7628 60.4259 82.7707 60.442 75.0172 59.1637C71.1365 58.5326 67.3743 57.1167 63.3672 57.3999C63.3672 54.3011 67.319 55.2154 67.9355 52.7072C70.52 50.7978 73.6814 49.9239 76.2501 47.9659L76.1711 48.0064Z" fill="#150E42"/>
<path id="Vector_73" d="M119.973 78.0559L114.717 76.1384C111.042 75.1917 108.86 71.9473 105.794 70.0702C105.256 69.0022 105.486 68.3064 106.734 68.1931C107.477 68.1284 108.236 68.1931 108.995 68.1931C112.156 68.1931 115.239 68.1931 118.361 68.1931C114.938 68.1931 111.516 68.2741 108.086 68.1285C106.118 68.0475 103.897 67.9019 104.545 64.7788C105.825 62.0684 107.944 59.9243 109.414 57.3514C110.745 55.6167 112.46 54.2302 114.417 53.306C114.836 53.2098 115.273 53.2322 115.681 53.3707C116.194 53.7722 116.613 54.2865 116.906 54.8756C117.111 55.2581 117.288 55.6556 117.436 56.065C118.291 58.7134 119.473 61.2393 120.953 63.5814C121.438 64.3218 121.794 65.1432 122.004 66.0086C122.24 67.1197 122.124 68.2789 121.672 69.3178C120.882 70.8065 119.04 71.2434 118.226 72.6836C118.843 74.2451 120.7 73.9539 121.388 75.2403C121.544 75.8058 121.484 76.4107 121.222 76.9332C120.959 77.4557 120.513 77.8569 119.973 78.0559V78.0559Z" fill="#15114D"/>
<path id="Vector_74" d="M142.514 72.368C142.846 74.9166 145.897 74.3826 146.782 76.3083L142.561 75.3778L143.51 78.9782C141.55 78.9135 142.269 76.6643 140.736 76.0494C141.02 79.3747 137.448 80.4669 135.725 82.9994C136.657 80.9686 137.859 79.0106 138.444 76.8827C139.115 74.4554 137.653 75.9118 136.863 76.2031C136.703 76.0998 136.567 75.9626 136.463 75.8007C136.359 75.6387 136.291 75.4559 136.262 75.2645C136.642 72.9343 134.682 74.1561 133.844 73.6949C132.263 72.8292 130.224 72.8858 129.173 71.0573C129.159 70.8476 129.199 70.6377 129.289 70.4488C129.379 70.2599 129.516 70.0986 129.686 69.9812C130.076 69.7297 130.512 69.562 130.967 69.4883C131.422 69.4145 131.887 69.4363 132.334 69.5524C135.187 70.5799 136.017 68.5653 136.926 66.5668C137.29 62.5214 133.765 59.8029 133.227 56.0487C139.55 55.1344 140.206 55.6523 140.427 61.8094C140.546 65.0458 140.427 68.2821 141.131 71.5185V58.5731C148.015 63.4276 148.173 64.6655 143.391 70.2644C142.99 70.9127 142.694 71.6231 142.514 72.368Z" fill="#5087D4"/>
<path id="Vector_75" d="M119.973 78.0558C120.297 77.1092 120.621 76.1545 120.937 75.2079C119.87 73.5007 119.712 71.8501 121.23 70.3129C121.632 70.07 122.111 69.9974 122.565 70.1106C124.731 73.3469 122.384 76.818 122.913 80.1514L122.96 80.7906C120.953 85.3134 116.772 82.5382 113.697 83.5172C109.105 84.9816 104.213 85.3781 99.4709 86.3329C95.5191 87.1419 95.5191 87.1419 96.9655 90.6777C95.4875 91.1388 94.5944 86.438 92.5236 90.265C91.9704 91.2602 91.8676 89.5449 91.7333 89.0999C90.5714 84.8279 87.1413 83.6547 83.5293 82.8133C82.5651 82.5867 81.427 82.4573 81.7589 81.3246C82.0909 80.1919 83.1737 80.6935 84.0193 81.1385C86.0506 82.2146 88.0818 83.2826 90.1446 84.2858C91.5831 84.9817 92.8556 86.1629 94.5232 84.1483C95.8115 82.5949 95.3136 85.8878 96.9892 85.5318C104.245 83.9622 111.563 82.7486 118.819 81.2113C120.099 80.9362 120.336 79.4151 119.973 78.0558Z" fill="#5B6892"/>
<path id="Vector_76" d="M105.731 64.1234C104.695 66.8824 106.118 67.6186 108.473 67.6995C112.148 67.8209 115.855 67.3192 119.483 68.638C115.61 68.638 111.745 68.638 107.872 68.638C106.347 68.638 105.889 69.0588 106.845 70.4423C106.783 70.5561 106.696 70.653 106.59 70.7248C106.484 70.7965 106.362 70.8411 106.236 70.8546C106.109 70.8681 105.982 70.8502 105.863 70.8023C105.745 70.7545 105.64 70.6782 105.557 70.5799C100.949 68.1526 102 74.1722 99.4077 74.8519C98.8387 73.0962 101.052 71.9149 100.301 69.9974C96.9023 69.8032 94.2545 72.8291 90.8165 72.4893C92.4841 70.5313 94.9896 70.3452 97.1394 69.4067C99.9135 68.1931 98.4119 67.1574 97.1394 66.0247L97.2974 65.8224C97.7339 65.3537 98.3306 65.0759 98.9626 65.0473C99.5945 65.0186 100.213 65.2413 100.688 65.6687C99.5026 60.4501 97.0366 55.1506 97.3606 49.1957C97.4573 48.8596 97.6402 48.5561 97.8905 48.317C98.1407 48.0779 98.449 47.912 98.7833 47.8365C101.613 51.1456 101.194 55.5794 102.577 59.3902C103.17 61.0084 102.925 63.2091 105.264 63.7188L105.731 64.1234Z" fill="#5B72D4"/>
<path id="Vector_77" d="M134.974 93.024C133.678 94.6421 133.678 94.6421 137.29 97.6357C133.923 95.7506 130.508 93.6955 129.347 99.6584C129.347 97.5872 130.2 94.6907 126.09 96.5273C128.801 94.3185 129.758 90.7666 132.468 89.0514C134.753 89.6663 130.975 93.6227 134.974 93.024Z" fill="#76839E"/>
<path id="Vector_78" d="M136.578 75.0137C136.673 75.4263 136.76 75.8228 136.855 76.2354C132.303 78.0073 128.201 81.2113 122.961 80.7906L123.008 80.8472C124.952 77.2549 131.963 74.2451 136.578 75.0137Z" fill="#559AB7"/>
<path id="Vector_79" d="M78.9215 77.1093C82.6599 74.8681 86.4695 72.813 90.8955 72.4003C87.3152 75.0703 83.1816 76.2435 78.9215 77.1093Z" fill="#5862B1"/>
<path id="Vector_80" d="M105.557 70.5637L106.845 70.4261L114.749 76.1383C112.646 78.1611 112.093 75.3859 110.987 74.7224C109.093 73.4537 107.28 72.0647 105.557 70.5637V70.5637Z" fill="#586CAE"/>
<path id="Vector_81" d="M118.653 100.581C118.234 100.694 119.246 103.299 117.072 103.259C116.756 103.259 116.163 102.684 116.179 102.401C116.29 100.152 118.487 100.872 118.653 100.581Z" fill="#738096"/>
<path id="Vector_82" d="M59.7869 108.178C60.6484 105.573 62.237 103.68 65.0586 103.154L59.7869 108.178Z" fill="#526F7D"/>
<path id="Vector_83" d="M61.6522 75.3373C61.0752 78.2177 58.9649 80.0624 57.313 82.2227C57.9938 79.5029 59.4425 77.0489 61.4783 75.1674L61.6522 75.3373Z" fill="#546884"/>
<path id="Vector_84" d="M89.1014 11.2173C91.267 11.5328 93.5669 11.5975 94.4916 14.2432L88.9591 15.3517C88.3793 15.174 87.8181 14.9382 87.2835 14.6478C86.3667 14.041 84.462 14.4374 84.7149 12.6332C84.9678 10.8289 86.6117 11.5571 87.7182 11.3548C88.1765 11.2834 88.6382 11.2375 89.1014 11.2173V11.2173Z" fill="#13318A"/>
<path id="Vector_85" d="M99.305 48.2329L98.1826 48.9935C96.5545 50.0048 95.4164 49.3333 94.4916 47.8931C94.7841 47.0274 96.2621 47.2944 96.1514 46.0565C96.681 44.4383 98.3565 46.6391 99.0362 45.118C99.7159 43.5969 102.379 42.456 101.036 41.1291C99.8187 39.9317 97.084 39.8589 95.1397 40.0773C93.8831 40.2149 95.9301 41.8735 95.0133 42.8525C93.0216 41.9625 93.3061 39.4786 91.9309 38.1679C91.9309 37.3021 91.8518 35.7406 93.0216 36.2908C96.183 37.7957 99.9689 37.2132 102.949 39.2844C103.668 39.778 104.261 40.9026 105.209 39.9721C105.715 39.4948 106.292 38.4025 106.086 37.9414C105.47 36.574 104.932 38.4187 104.229 38.2002C103.525 37.9818 103.067 37.5611 103.257 36.93C103.518 36.0643 103.929 35.1338 104.996 34.9801C108.465 34.4622 110.528 35.9671 111.224 39.5109C111.144 39.8626 111.163 40.2301 111.279 40.5709C111.396 40.9118 111.604 41.2119 111.88 41.4366C114.124 42.812 115.626 44.414 113.524 47.1002L111.856 48.2329C111.526 48.5012 111.133 48.6748 110.716 48.7359C110.3 48.7971 109.875 48.7435 109.485 48.5808C109.101 48.41 108.746 48.1779 108.434 47.8931C106.387 47.084 107.058 42.5531 103.36 44.0419C102.246 44.7374 101.346 45.7379 100.759 46.9303C100.655 47.2945 100.503 47.6428 100.309 47.9659C100.182 48.1013 100.021 48.1979 99.8438 48.2451C99.6666 48.2922 99.48 48.288 99.305 48.2329V48.2329Z" fill="#6FD1F8"/>
<path id="Vector_86" d="M76.2422 47.9821C73.9897 50.5227 71.0891 51.8738 67.9276 52.7234C70.1715 50.3245 73.0687 48.6724 76.2422 47.9821V47.9821Z" fill="#5668D2"/>
<path id="Vector_87" d="M217.211 67.651L206.818 73.3955L204.447 72.5864C205.308 70.7093 207.308 70.5233 208.968 69.4148C204.937 66.85 200.621 66.5668 196.187 66.8905L195.144 68.5086C193.484 66.8905 188.181 67.562 191.738 62.7561C189.454 61.0084 186.158 60.1346 186.545 56.2105C188.584 55.4014 189.952 56.8902 191.532 57.6993C192.56 58.2252 193.619 59.5359 194.789 58.5731C195.958 57.6103 195.974 55.8465 195.855 54.2688C195.761 52.8771 193.856 52.2137 194.48 50.555C196.346 49.2524 198.266 48.1278 200.645 48.419C200.787 48.4637 200.924 48.5206 201.056 48.589C207.822 52.3269 209.861 51.0971 209.845 43.2814C210.653 42.1527 211.698 41.2238 212.904 40.5628C214.627 39.4382 215.638 40.5628 216.761 41.7117C217.685 42.6826 218.729 43.6535 220.712 43.3784C219.843 38.265 216.555 32.1564 224.664 29.9719C224.971 30.2667 225.17 30.6611 225.225 31.0884C225.22 31.3906 225.153 31.6883 225.028 31.9623C224.838 32.3911 224.727 32.7713 225.407 32.4639C227.106 31.76 228.916 31.938 230.671 31.6548C232.655 31.5496 233.477 29.2275 235.413 29.0576C236.168 29.4051 236.866 29.869 237.484 30.4331C238.843 31.4282 240.645 32.3425 238.132 34.0659C237.065 34.8102 236.828 36.0805 236.306 37.1728C236.198 37.3535 236.054 37.5094 235.884 37.6305C235.714 37.7516 235.521 37.8354 235.318 37.8767C232.22 36.8572 229.715 34.2924 225.771 35.5222C223.076 36.3313 223.044 37.3265 223.328 39.6324C223.676 42.4399 226.111 44.0015 226.68 46.5743C226.806 46.9796 226.806 47.4151 226.68 47.8203C225.447 49.1958 224.886 51.0081 223.89 52.5373C222.119 52.7962 219.219 57.8044 219.282 51.2589C217.875 51.6077 216.508 52.1067 215.204 52.7477C213.038 53.6053 210.817 54.3658 211.773 57.6022C211.915 58.0578 211.89 58.5506 211.702 58.9885C211.514 59.4263 211.177 59.7791 210.754 59.9809C209.647 60.4259 209.173 59.3417 208.659 58.6378C208.011 57.7721 207.332 56.9306 206.715 56.0487C205.364 54.0988 203.032 52.602 201.349 53.2897C199.665 53.9775 199.444 56.8983 199.143 58.9533C198.78 61.5101 200.653 62.4243 202.645 63.0878C204.636 63.7512 206.391 64.3904 208.28 65.0134C209.126 65.2885 209.861 65.5474 210.817 64.8597C214.208 62.4486 215.717 63.1282 217.211 67.651Z" fill="#5D6BE1"/>
<path id="Vector_88" d="M156.258 59.4065C161.261 59.7382 166.533 58.7592 170.746 62.7642C172.959 59.0505 175.646 63.3872 178.08 62.3273C179.408 61.7447 180.862 62.4486 181.969 63.1364C184.783 64.884 181.708 64.7546 181.178 65.3937C184.206 66.4617 188.861 64.0264 189.809 69.5848L188.165 70.7499C184.332 71.3082 180.364 72.7564 177.242 68.9213C176.666 68.2498 172.706 69.6495 175.883 66.4941C176.231 66.1543 174.46 65.4261 173.512 65.4908C168.201 65.863 163.324 63.6461 158.211 62.8128C156.606 62.57 154.219 62.1493 156.258 59.4065Z" fill="#2A3C8B"/>
<path id="Vector_89" d="M196.148 66.8419C197.333 64.617 199.91 65.0053 201.293 65.2238C204.755 65.8306 208.043 67.4811 211.71 68.8242C209.339 71.0573 206.683 71.3647 204.407 72.5136L202.827 71.7045C201.19 73.3227 199.626 72.6755 198.084 71.5589C195.856 70.6689 196.606 68.5087 196.148 66.8419Z" fill="#2216AD"/>
<path id="Vector_90" d="M190.56 69.7466C192.868 68.0151 193.39 70.5556 194.559 71.5104C193.982 81.0576 193.982 81.0576 183.858 78.242C185.446 74.7872 188.813 72.8939 190.56 69.7466Z" fill="#5E79E3"/>
<path id="Vector_91" d="M177.227 68.9213C180.759 70.082 184.44 70.6983 188.15 70.7499C187.786 71.5589 186.632 71.3405 186.34 71.7855C185.13 73.6302 184.142 76.6399 182.19 76.5024C180.483 76.373 178.958 73.7435 177.345 72.2224C177.109 71.7087 176.977 71.1515 176.957 70.5842C176.937 70.017 177.028 69.4514 177.227 68.9213V68.9213Z" fill="#5E79E3"/>
<path id="Vector_92" d="M198.053 71.575L202.795 71.7207C202.7 72.5298 203.53 73.8081 202.384 74.0994C200.345 74.6253 199.128 73.0961 198.053 71.575Z" fill="#5D6BE1"/>
<path id="Vector_93" d="M136.918 66.5992C138.151 70.0621 137.377 71.7369 133.449 70.8712C132.106 70.6722 130.751 70.5748 129.394 70.5799C125.347 71.2515 123.229 68.4763 121.095 65.7254C120.803 65.1833 120.51 64.6493 120.226 64.1072C119.277 61.1055 117.641 58.4436 116.503 55.4824V55.5309C116.029 54.8189 116.163 53.5082 116.701 53.7024C120.171 54.9646 124.288 53.848 127.3 56.6798C127.511 56.8996 127.663 57.1714 127.742 57.469C127.821 57.7665 127.824 58.0799 127.75 58.3789C127.402 59.3579 127.055 60.3369 126.691 61.3402C127.647 61.7852 127.821 60.9761 128.09 60.6363C131.402 56.4614 131.362 56.4614 133.725 61.0004C134.729 62.9098 135.851 64.7383 136.918 66.5992Z" fill="#211B5B"/>
<path id="Vector_94" d="M164.257 53.581C158.242 56.9225 151.998 54.3901 145.849 54.3173L145.138 53.662C144.079 53.0956 142.767 52.6263 143.202 51.0405C143.549 49.8269 144.782 49.7136 145.818 49.6489C148.961 49.3451 152.132 49.5251 155.223 50.1829C157.44 50.6711 159.737 50.6241 161.933 50.0453C162.451 49.9145 162.993 49.9201 163.509 50.0616C164.024 50.2031 164.496 50.4758 164.881 50.8544L164.186 53.6296L164.257 53.581Z" fill="#1D3D7E"/>
<path id="Vector_95" d="M118.376 39.7214C119.04 37.2941 121.87 37.4964 123.119 35.7326C124.557 35.4413 125.845 36.4446 125.664 37.4641C125.158 40.2554 127.726 40.2878 128.714 41.6794C128.714 43.4432 130.042 45.0776 129.252 46.9304C128.374 47.1407 128.461 49.6651 126.707 47.8527C123.996 45.0533 121.151 42.4237 118.376 39.7214Z" fill="#5DAAE2"/>
<path id="Vector_96" d="M113.524 47.084C114.014 44.8833 112.575 43.2571 111.88 41.4204C113.247 39.7214 114.472 40.668 115.91 41.4204C118.321 42.7554 119.175 45.838 121.909 46.8008C122.116 46.9873 122.271 47.2258 122.36 47.4926C122.448 47.7594 122.467 48.0452 122.415 48.3219C122.233 48.7103 121.253 49.131 120.953 48.9611C118.645 47.6099 115.744 48.7184 113.524 47.084Z" fill="#5E8EF4"/>
<path id="Vector_97" d="M162.32 50.9515C156.962 53.0875 151.69 50.1424 146.292 50.6521C142.814 51 144.024 52.0519 145.106 53.662C143.178 54.293 141.305 54.471 141.945 51.5421C142.498 48.9773 141.155 47.9983 139.329 47.1812L139.4 46.5339C140.246 45.3203 139.93 42.7959 142.561 43.5807C143.352 45.3283 148.537 43.4027 146.213 48.0388C146.118 48.2249 148.386 48.5728 149.58 48.6375C153.958 48.856 158.416 48.3867 162.32 50.9515Z" fill="#5DCDED"/>
<path id="Vector_98" d="M129.22 46.9304C129.22 45.3122 126.746 44.1633 128.477 42.2781C130.129 41.6632 131.275 42.7959 132.54 43.5241C134.286 44.9562 136.602 45.7329 137.63 48.0226H137.582C138.246 48.9369 138.436 49.8269 137.44 50.6441L135.899 51.0567C133.528 51.793 131.868 50.5065 130.208 49.123C129.299 48.6699 129.536 47.6667 129.22 46.9304Z" fill="#1E377F"/>
<path id="Vector_99" d="M127.766 58.387C126.011 56.5827 124.067 54.9403 121.498 56.4613C119.412 57.6911 118.645 53.0228 116.519 55.539C115.326 55.539 115.46 54.6652 115.539 53.8561C114.994 52.7153 115.002 51.8334 116.511 51.6392C119.673 53.4111 123.269 53.1927 126.636 54.0098C130.003 54.827 130.24 56.162 127.766 58.387Z" fill="#5B72D4"/>
<path id="Vector_100" d="M137.63 48.0226L131.805 44.3655C132.382 42.7959 133.638 42.1324 135.116 41.736C138.072 42.0272 140.609 42.7231 139.716 46.7281L139.353 47.1812C139.015 47.0851 138.654 47.1173 138.337 47.272C138.021 47.4266 137.769 47.6932 137.63 48.0226V48.0226Z" fill="#5DCDED"/>
<path id="Vector_101" d="M109.145 48.0711L111.864 48.233C112.03 49.1958 112.654 49.2281 113.444 49.042C113.547 51.4046 111.477 50.7331 110.354 51.3884C109.905 51.4853 109.446 51.5341 108.987 51.5341C105.936 50.4903 101.945 51.8981 100.016 47.9336C99.9627 47.8344 99.9301 47.7248 99.9206 47.6119C99.9111 47.499 99.9248 47.3853 99.9609 47.2782C103.154 45.7167 106.063 48.0469 109.145 48.0711Z" fill="#5B72D4"/>
<path id="Vector_102" d="M115.997 49.9886C119.483 49.5922 122.787 50.1505 127.11 52.1813C122.644 52.5373 119.617 51.3722 116.511 50.9029C116.124 50.9029 115.721 50.9029 115.563 50.4741C115.507 50.3204 115.729 50.1343 115.997 49.9886Z" fill="#5B72D4"/>
<path id="Vector_103" d="M154.211 72.0282C152.733 70.6042 152.117 70.1349 151.651 69.5524C150.584 68.1931 149.785 66.6963 150.323 64.884C150.41 64.5684 151.192 64.0749 151.342 64.2205C152.741 65.1348 152.733 66.8015 153.208 68.2093C153.492 69.0589 153.674 69.9488 154.211 72.0282Z" fill="#5282E6"/>
<path id="Vector_104" d="M137.44 50.6602L137.582 48.0388C139.25 48.2896 138.373 50.1909 139.392 50.9191C140.412 51.6473 140.554 52.5939 139.613 53.1765C139.214 53.3899 138.773 53.5088 138.323 53.5242C137.873 53.5396 137.425 53.4511 137.013 53.2654C135.448 52.2784 137.993 51.6635 137.44 50.6602Z" fill="#5DAAE2"/>
<path id="Vector_105" d="M115.997 49.9886L116.511 50.9029V51.6392C116.11 51.8198 115.788 52.1466 115.608 52.5561C115.429 52.9657 115.404 53.4289 115.539 53.8561C115.382 53.6847 115.173 53.5733 114.946 53.5405C112.275 54.3496 111.342 52.2864 110.204 50.555L113.429 49.0825L115.997 49.9886Z" fill="#F5FCFE"/>
<path id="Vector_106" d="M130.208 49.1229C132.374 48.9207 133.978 50.4822 135.899 51.0566C133.117 53.1279 131.141 52.7395 130.208 49.1229Z" fill="#5DAAE2"/>
<path id="Vector_107" d="M94.4917 47.8689C95.8432 47.7961 96.6651 49.6165 98.1826 48.9692C99.305 54.4548 100.435 59.9485 101.629 65.7659H97.337C94.8632 63.8645 91.8044 63.4033 88.967 62.5943C85.4894 61.6072 84.8493 60.4987 87.9001 58.1524C88.694 57.6593 89.3672 56.9868 89.8681 56.1863C87.0386 55.8546 86.3668 59.0666 83.9403 59.5602C83.0077 56.3238 82.1146 53.0875 81.1503 49.8511C80.5339 47.8284 81.1029 46.898 83.2448 47.0598C86.9911 47.3753 90.7374 47.61 94.4917 47.8689Z" fill="#181056"/>
<path id="Vector_108" d="M122.107 70.5314C120.597 71.7936 121.364 73.6545 120.937 75.2079C119.119 75.1351 116.25 74.7548 116.282 73.4036C116.337 70.9764 119.04 70.1674 121.206 69.5444C121.957 69.4392 122.297 69.7385 122.107 70.5314Z" fill="#191032"/>
<path id="Vector_109" d="M110.204 50.555C112.575 50.1747 113.247 52.7395 114.946 53.5405C113.942 55.4581 111.864 56.1135 110.465 57.586C110.232 57.5231 110.016 57.4066 109.834 57.2454C109.652 57.0841 109.508 56.8823 109.414 56.6555C108.845 54.6813 108.623 52.7476 110.038 50.9919L110.204 50.555Z" fill="#2F6DCA"/>
<path id="Vector_110" d="M122.107 70.5314L121.222 69.5443C121.182 68.2741 121.143 67.0038 121.111 65.7335C122.423 67.4811 123.348 66.3241 125.063 64.2529C122.644 70.4181 127.869 68.622 129.378 70.5799C127.149 72.4732 124.968 71.2839 122.779 70.4829C122.554 70.4873 122.33 70.5035 122.107 70.5314V70.5314Z" fill="#5B72D4"/>
<path id="Vector_111" d="M116.48 55.5147C118.581 57.9137 119.885 60.9337 120.202 64.1396C118.166 61.6981 116.872 58.7 116.48 55.5147Z" fill="#5B72D4"/>
<path id="Vector_112" d="M110.465 57.5698C109.267 60.019 107.662 62.2365 105.723 64.1234C105.598 64.0284 105.484 63.9199 105.383 63.7998C104.98 60.1831 106.766 58.1362 109.943 57.0277C110.088 57.2354 110.264 57.4183 110.465 57.5698V57.5698Z" fill="#5864D4"/>
<path id="Vector_113" d="M122.802 70.4747C125.031 68.6219 127.189 71.5508 129.402 70.5718C131.828 71.7288 134.073 73.1609 136.855 73.614C138.894 73.9457 136.278 74.423 136.594 75.0137C131.402 75.3211 127.387 78.5171 123.024 80.8472C122.391 80.6045 121.119 80.645 121.443 79.7469C122.629 76.729 121.696 73.4522 122.802 70.4747Z" fill="#191032"/>
<path id="Vector_114" d="M109.951 57.0277C108.11 59.0585 106.355 61.1541 105.391 63.7998C104.419 64.0263 103.28 66.3403 102.585 63.4276C101.368 58.3789 99.4789 53.492 99.305 48.2086C99.543 48.1512 99.7758 48.0727 100.001 47.974C103.036 50.0695 106.837 49.4951 110.038 50.9838C110.017 53.0012 109.988 55.0158 109.951 57.0277Z" fill="#1B115A"/>
<path id="Vector_115" d="M142.032 2.78656C144.853 3.83837 147.24 7.05853 151.066 4.40473C147.73 6.69445 149.856 11.1606 146.916 13.3047C146.039 12.9487 145.652 11.8645 144.798 11.5975C143.945 11.3305 141.905 9.67189 143.091 12.7545C143.14 12.9895 143.096 13.2348 142.969 13.4366C142.841 13.6384 142.641 13.7801 142.411 13.8306C137.946 13.8306 136.27 18.1996 133.03 20.0929C131.583 18.766 132.864 16.9132 132.397 15.1575C130.342 15.7886 127.56 15.5297 127.418 17.7466C127.276 19.9634 128.208 22.601 131.109 23.2888C133.48 21.2984 135.962 19.7854 139.163 20.3032C140.348 20.4893 141.795 20.6997 142.103 22.0347C142.443 23.5234 140.886 23.8956 139.969 24.5914C138.214 25.9183 135.456 25.4733 134.381 27.9572C134.338 28.3648 134.234 28.7633 134.073 29.1385C130.912 30.1337 129.481 32.8279 128.074 35.5464C126.351 36.7682 124.818 36.0966 123.332 35.0529C123.18 34.9092 123.061 34.7322 122.984 34.5351C122.881 32.3101 125.411 32.6337 126.233 30.9184C125.055 29.5754 123.071 31.412 122.004 30.0366C121.364 29.0171 120.297 29.4459 119.428 29.2275C118.266 27.1481 119.356 26.3633 121.19 26.3228C122.889 26.3228 125.221 27.9976 126.003 25.5623C126.683 23.4587 124.818 21.5169 123.632 19.7126C123.142 19.1046 122.45 18.7039 121.688 18.588C120.487 18.1915 119.072 18.2482 118.282 16.9698C118.317 16.7474 118.317 16.5207 118.282 16.2983C119.929 14.5937 122.058 13.4617 124.367 13.062C129.339 12.6655 133.717 11.0311 136.879 6.80769C137.946 5.39988 139.163 2.76228 140.088 6.92098C140.135 7.13943 139.993 8.12651 140.451 7.37406C140.997 6.47598 142.759 6.96144 142.443 5.46463C142.285 4.54227 141.55 3.78174 142.032 2.78656Z" fill="#6178DA"/>
<path id="Vector_116" d="M124.818 13.2562C122.502 13.9277 121.135 16.7433 118.305 16.2336C114.077 17.2369 109.659 16.4521 104.822 18.1674C106.284 16.1042 107.295 14.6721 108.315 13.2481C110.37 10.9017 110.939 6.16044 115.816 8.39353C115.239 7.29317 115.389 6.38697 116.503 5.74779C118.329 3.92734 120.834 3.7898 123.071 2.98071C127.695 3.67653 128.066 4.2348 126.738 8.83852C126.443 10.1938 125.978 11.5045 125.355 12.7383L124.818 13.2562Z" fill="#171A5F"/>
<path id="Vector_117" d="M96.3094 2.98886C97.8507 4.45331 99.1785 6.34656 100.988 7.22037C102.166 7.79482 102.869 9.30782 104.624 9.146C104.442 6.81583 101.787 2.53576 105.849 3.0293C108.094 3.30439 113.95 -3.27349 113.895 5.45657C113.667 6.37891 113.151 7.19948 112.424 7.79272C111.698 8.38595 110.801 8.71919 109.872 8.74146C107.382 8.90328 108.355 10.6186 108.133 11.8403C107.542 12.5342 106.897 13.1782 106.205 13.7659C104.901 14.7044 104.292 17.2369 102.466 16.5896C100.641 15.9423 101.21 12.7222 100.822 12.2286C98.6431 9.54559 97.0986 6.38348 96.3094 2.98886Z" fill="#123B97"/>
<path id="Vector_118" d="M118.289 16.9052C119.507 17.3421 121.143 16.2659 122.012 17.9731C122.012 18.1835 121.933 18.3939 121.901 18.6123C120.265 20.7645 118.914 23.1836 116.527 24.648C114.235 25.4571 113.034 29.8019 109.414 26.5251C108.66 25.9012 108.071 25.0936 107.7 24.1762C107.33 23.2588 107.191 22.2609 107.296 21.2742C107.406 18.7256 109.516 18.3938 111.168 18.1349C113.555 17.7627 116.013 17.965 118.289 16.9052Z" fill="#192C74"/>
<path id="Vector_119" d="M122.012 17.973C125.592 16.7028 125.411 20.198 126.209 21.8486C127.007 23.4991 129.37 25.4166 127.624 26.9782C126.24 28.208 123.822 29.3488 121.427 27.4475C119.775 26.1367 119.704 28.0867 119.412 29.1708L113.018 31.1127C113.018 28.119 116.266 27.763 116.622 25.4086C117.886 22.5039 120.297 20.4731 122.067 17.9407L122.012 17.973Z" fill="#141B6D"/>
<path id="Vector_120" d="M108.133 11.8241C106.964 10.4082 105.999 8.58769 108.576 8.17505C110.821 7.84332 111.737 5.54549 113.895 5.44031L116.503 5.74777C114.78 8.74951 118.811 8.81426 118.779 11.0878C116.464 11.7917 115.934 6.93717 113.334 8.66054C111.492 9.90654 109.975 11.6704 108.315 13.2076C108.252 12.7788 108.189 12.3095 108.133 11.8241Z" fill="#5C6FCB"/>
<path id="Vector_121" d="M122.012 29.98L127.948 28.4427C129.046 33.1678 125.071 32.9493 122.984 34.4785L122.004 34.8183C119.688 34.705 118.163 34.0092 119.475 31.234L122.012 29.98Z" fill="#191F67"/>
<path id="Vector_122" d="M119.451 31.2422C119.38 33.1111 120.408 34.171 121.98 34.8264C118.084 37.9899 118.155 32.8846 115.871 32.2859C117.112 30.7567 118.329 31.2422 119.451 31.2422Z" fill="#1C6DD1"/>
<path id="Vector_123" d="M122.067 17.9408C121.348 21.2742 118.708 23.1351 116.622 25.4167C116.552 25.3033 116.508 25.1758 116.492 25.0431C116.475 24.9104 116.487 24.7756 116.527 24.6481C117.545 21.8147 119.507 19.4397 122.067 17.9408V17.9408Z" fill="#6178DA"/>
<path id="Vector_124" d="M109.145 48.0711C105.889 50.199 103.02 47.4401 99.9452 47.3187C99.3603 44.8024 101.7 44.5678 102.854 43.4108C104.553 42.1891 105.746 43.2247 106.331 44.6244C106.916 46.0241 108.434 46.6714 109.113 47.9902L109.145 48.0711Z" fill="#25287B"/>
<path id="Vector_125" d="M109.113 47.9902C106.284 47.5291 106.063 43.3299 102.854 43.4108C104.079 41.469 105.486 41.4771 106.687 43.2976C107.583 44.813 108.393 46.3798 109.113 47.9902V47.9902Z" fill="#5B72D4"/>
<path id="Vector_126" d="M217.211 67.6511C215.978 65.7012 214.484 64.0992 212.121 63.6056C211.212 64.8193 212.912 65.863 212.169 67.4811C208.217 66.219 203.996 65.4665 200.313 63.549C194.148 60.3126 200.748 55.5147 198.977 51.4127C204.55 52.068 208.383 54.4225 210.216 59.6492C210.564 59.3417 210.904 59.1233 210.872 59.0586C208.565 53.1846 213.054 52.3593 216.658 50.8787L221.795 48.775C221.044 50.8058 220.539 52.1813 219.835 54.0745C221.527 53.9046 221.819 49.7945 223.787 52.7234L224.324 53.2736C226.775 59.3174 223.234 62.8774 219.187 66.219L217.211 67.6511Z" fill="#1C139B"/>
<path id="Vector_127" d="M223.803 52.7153C223.542 50.2314 223.589 47.9174 226.522 47.0516C229.968 45.2312 233.39 44.9157 236.749 47.2782C234.749 51.2185 230.513 53.7509 229.857 58.6054C229.809 58.9695 228.339 59.1394 227.486 59.4145C225.597 60.2641 224.372 60.0052 224.206 57.5455C224.103 55.9274 224.712 54.2283 223.724 52.691L223.803 52.7153Z" fill="#2816C0"/>
<path id="Vector_128" d="M244.091 23.5073C244.827 25.1144 246.02 26.4566 247.514 27.3586C248.185 33.184 243.261 36.0805 241.017 40.3767C240.171 40.5224 239.879 39.9641 239.673 39.2926C240.345 35.8297 238.827 31.8652 242.289 29.0172C243.34 28.1515 242.416 26.3391 242.424 24.9717C242.629 24.0575 242.748 23.038 244.091 23.5073Z" fill="#AE9AF0"/>
<path id="Vector_129" d="M240.266 39.5757L241.056 40.3848C240.479 42.8525 237.294 44.2684 238.33 47.3996L236.749 47.2702L226.522 47.0436V47.0841C226.474 44.9643 228.213 44.94 229.391 44.9723C233.05 45.0694 234.646 43.3541 234.631 39.7132C234.659 39.3216 234.766 38.9402 234.944 38.5924C235.122 38.2445 235.368 37.9376 235.666 37.6905C237.531 37.5287 238.132 40.498 240.266 39.5757Z" fill="#5D6BE1"/>
<path id="Vector_130" d="M223.763 52.6586C225.162 53.6133 224.885 55.0293 224.72 56.3885C224.451 58.5973 225.51 59.4712 227.525 59.3741C225.858 63.0635 223.969 66.4778 219.203 66.2189C219.527 65.2237 219.582 63.6137 220.214 63.3224C225.289 61.0327 223.289 56.4371 223.763 52.6586Z" fill="#5D6BE1"/>
<path id="Vector_131" d="M235.69 37.7148C235.295 40.2958 236.749 43.4269 235.065 45.3607C233.382 47.2944 230.434 45.7167 228.094 46.2668C227.534 46.4618 227.002 46.734 226.514 47.0759C223.02 44.6972 222.135 41.0806 221.771 37.0918C221.613 35.4088 221.961 34.9153 223.566 34.8263C225.065 34.6437 226.554 34.3735 228.023 34.0172C231.406 33.4347 233.524 35.6273 235.69 37.7148Z" fill="#2313AA"/>
<path id="Vector_132" d="M240.266 39.5757C237.104 43.071 236.899 39.1388 235.706 37.6825C235.982 35.9106 234.986 33.896 237.792 32.828C239.373 32.2292 236.354 31.8894 236.773 30.7486C237.666 27.399 239.444 25.1578 243.19 25.3601C244.455 27.7873 245.19 30.1579 241.681 31.3797C240.788 31.6871 239.618 32.5933 240.369 33.2082C243.238 35.5384 240.487 37.4883 240.266 39.5757Z" fill="#2F16CA"/>
<path id="Vector_133" d="M187.841 53.7267C189.817 52.1085 192.362 51.8981 194.575 50.8463C197.12 52.4645 197.974 57.7721 196.156 60.2884C195.16 61.6477 194.306 60.5392 193.437 60.1994C190.908 59.188 189.058 56.8174 186.221 56.4209L185.668 56.1216C184.055 53.0875 187.264 54.7057 187.841 53.7267Z" fill="#1C227F"/>
<path id="Vector_134" d="M200.906 48.8074C203.277 46.3802 207.229 46.1698 209.039 42.9011C209.039 42.9011 209.829 43.2571 210.216 43.4432C213.544 46.6795 209.608 48.8802 208.92 51.4288C208.233 53.9775 206.059 52.1327 204.794 51.6311C203.364 51.0648 200.851 51.6311 200.906 48.8074Z" fill="#252E95"/>
<path id="Vector_135" d="M224.704 30.0042C224.617 29.7291 224.53 29.4621 224.435 29.1951C226.806 26.1934 229.651 23.9927 233.548 23.5963C238.195 23.1351 236.654 26.1934 236.275 28.6045L235.69 29.2275C234.062 30.3117 233.406 32.7309 231.035 32.8118C229.683 29.3246 226.933 31.1936 224.712 31.0884L224.704 30.0042Z" fill="#322CA6"/>
<path id="Vector_136" d="M193.358 63.2334C189.201 63.7836 185.707 62.1978 182.293 59.9971C180.854 59.0666 181.574 58.2818 181.748 57.3271C181.842 57.1167 181.929 56.8983 182.008 56.6879C183.36 55.2397 184.783 55.4743 186.253 56.4695H186.205C188.118 58.3223 189.469 60.8871 192.528 61.1622C193.405 61.1783 194.789 61.858 193.358 63.2334Z" fill="#1D388F"/>
<path id="Vector_137" d="M210.287 52.3916C213.228 43.4917 215.03 42.6827 220.863 47.6747L210.287 52.3916Z" fill="#19208C"/>
<path id="Vector_138" d="M243.19 25.3681C240.25 26.1772 238.891 28.9443 236.772 30.7647C235.848 30.6595 235.8 29.9556 235.69 29.2194C237.025 26.7921 234.804 22.5768 239.294 21.7354C240.788 22.6011 242.787 22.0671 244.083 23.5072C243.759 23.6782 243.497 23.9515 243.336 24.2866C243.176 24.6217 243.124 25.0009 243.19 25.3681V25.3681Z" fill="#2B12BF"/>
<path id="Vector_139" d="M224.704 31.0803C228.75 27.9491 230.505 28.4265 231.027 32.8037C229.264 33.014 227.502 33.2082 225.739 33.4348C224.949 33.5319 223.882 34.3814 223.479 33.281C223.297 32.7794 224.261 31.8247 224.704 31.0803Z" fill="#0A0A6D"/>
<path id="Vector_140" d="M162.32 50.9515L143.47 49.1553L146.577 45.4901C144.324 45.8947 141.487 47.4643 142.23 43.2976C142.23 43.0872 142.174 42.8768 142.15 42.6664C142.316 39.6566 143.439 36.8653 143.992 33.9445C144.123 33.5242 144.309 33.124 144.545 32.7551C147.375 30.158 149.287 33.362 151.587 33.9283C152.377 34.2926 153.107 34.7783 153.753 35.3685C155.247 38.2488 158.408 39.6405 159.625 42.1163C158.456 40.7004 157.618 38.969 160.977 38.5482C162.777 38.3261 164.599 38.3588 166.391 38.6453C166.812 38.7148 167.229 38.8093 167.64 38.9285C170.754 39.6 173.962 39.9318 177.069 40.3606C178.222 40.5224 180.451 40.2554 179.139 42.8283C179.06 42.9901 179.139 43.0386 179.139 43.0548C182.064 44.5031 184.292 49.2929 183.233 52.2379C181.993 55.7008 179.171 54.6652 176.658 54.3982C174.215 53.6862 171.465 53.8723 169.465 51.8576C167.932 51.4369 166.612 49.9563 164.81 50.8706L162.32 50.9515Z" fill="#1B1869"/>
<path id="Vector_141" d="M169.536 51.8577C172.117 51.9021 174.669 52.4116 177.077 53.3626C177.717 54.8513 179.037 53.8076 179.985 54.1717C181.503 54.7461 182.712 55.3934 181.653 57.3514H181.732C178.215 59.1394 174.563 58.565 171.149 57.3514C168.794 56.4856 166.138 54.8755 169.536 51.8577Z" fill="#1D388F"/>
<path id="Vector_142" d="M164.186 53.6457C166.683 53.6457 166.683 53.6457 167.292 56.7365C166.573 55.3529 161.412 59.0019 164.257 53.581L164.186 53.6457Z" fill="#1D3D7E"/>
<path id="Vector_143" d="M134.658 42.4156C130.2 42.5774 129.473 38.5725 127.632 35.8135C131.394 35.5303 134.745 38.2407 138.76 37.197C140.151 36.8491 141.874 38.8152 142.593 40.7165C142.593 41.6146 142.791 42.5531 142.19 43.3541V43.2975C140.609 43.9043 141.66 46.5338 139.645 46.728C139.44 43.5807 137.495 42.4722 134.658 42.4156Z" fill="#1E60C6"/>
<path id="Vector_144" d="M132.974 20.1415C133.093 20.0444 133.283 19.9715 133.322 19.8583C134.737 15.2788 137.464 12.5118 142.554 13.3856C142.222 11.6622 139.25 12.9163 140.396 11.2172C140.995 10.4111 141.853 9.84623 142.818 9.62143C143.783 9.39664 144.794 9.52615 145.676 9.98741C146.885 10.6347 146.893 12.0182 146.916 13.2723C149.287 16.9374 144.205 16.7109 144.039 19.0573C147.153 22.2289 145.067 26.1125 145.193 29.632C145.249 31.145 143.028 30.8699 141.708 30.5382C139.1 29.8747 136.547 28.9847 133.931 28.3374C133.488 27.5284 131.82 26.7193 134.057 25.8616C136.637 24.8786 139.123 23.6572 141.487 22.2127C138.799 21.7111 135.772 18.855 133.915 23.7499C133.757 24.1626 131.986 26.6141 131.18 23.6529C131.136 22.9554 131.28 22.2589 131.596 21.6396C131.913 21.0203 132.39 20.5021 132.974 20.1415V20.1415Z" fill="#23197F"/>
<path id="Vector_145" d="M142.032 2.78656C142.53 4.40475 144.277 5.38375 144.3 7.64111C140.831 4.65556 141.336 10.9665 138.262 9.86611C138.712 8.42593 139.147 7.02617 139.748 5.08435C137.867 6.11999 137.993 7.87572 137.092 8.83045C133.931 12.1396 129.639 13.1348 125.6 14.6155C124.984 14.842 124.952 13.8064 124.81 13.2238L124.763 13.2724C125.664 10.4163 126.288 7.455 127.718 4.79309C128.588 3.984 128.556 2.52764 129.607 1.81564C133.781 1.77519 138.08 -0.150439 142.032 2.78656Z" fill="#1C1564"/>
<path id="Vector_146" d="M133.931 28.3214C137.803 26.0155 140.791 30.2875 144.616 29.7777C145.091 26.1854 145.407 22.5768 144.039 19.0411C146.079 18.8065 148.086 18.588 146.521 21.7839C145.731 23.4749 145.881 25.2064 146.347 27.0997C147.817 25.3844 149.177 23.8067 150.544 22.2451C150.995 24.5267 151.398 24.8504 154.883 25.7242C155.157 26.0548 155.311 26.4722 155.318 26.9055C155.232 27.2717 155.059 27.6106 154.815 27.8927C154.571 28.1748 154.263 28.3914 153.919 28.5237C150.307 29.5512 150.307 31.9542 151.461 34.8669C149.09 35.2472 147.778 30.6839 144.909 33.3943C143.549 33.5481 142.285 34.1549 140.957 34.341C140.385 34.4246 139.803 34.3944 139.242 34.252C140.348 29.5835 134.136 31.6791 133.978 28.2566L133.931 28.3214Z" fill="#6178DA"/>
<path id="Vector_147" d="M154.994 26.331C152.409 24.0736 151.524 28.7583 149.098 27.6984C148.6 25.6756 150.797 24.2516 150.544 22.2289L153.105 18.2563C153.714 17.1027 154.612 16.1354 155.706 15.4531C156.8 14.7708 158.052 14.398 159.333 14.3727C160.621 14.0329 161.372 14.583 161.704 15.8614C161.59 16.4874 161.276 17.0568 160.811 17.4796C158.661 18.8793 159.776 21.7839 158.211 23.4588C158.064 23.6051 157.883 23.7108 157.685 23.766C157.488 23.8212 157.279 23.8241 157.08 23.7743C155.942 22.7872 156.693 21.5736 156.472 20.7483C155.484 22.2209 158.139 25.1416 154.994 26.331Z" fill="#221D68"/>
<path id="Vector_148" d="M160.503 16.6786L161.688 15.8695L164.439 18.6366C164.257 20.6917 168.667 22.771 164.439 24.8099C163.598 25.1997 162.71 25.4719 161.799 25.619C160.218 25.5057 158.195 26.2096 157.847 23.5963V23.6448C159.096 21.5331 159.159 18.8146 160.503 16.6786Z" fill="#261481"/>
<path id="Vector_149" d="M128.438 4.76886C126.644 7.35793 126.778 10.8127 124.77 13.3047C124.526 11.7829 124.806 10.2215 125.561 8.88707C127.323 5.72355 125.909 4.03259 123.047 2.99696L126.43 1.79138C127.774 2.32538 128.928 2.97269 128.438 4.76886Z" fill="#5C6FCB"/>
<path id="Vector_150" d="M159.333 14.3727L153.105 18.2563C152.046 11.6866 156.464 14.3323 159.333 14.3727Z" fill="#6178DA"/>
<path id="Vector_151" d="M128.438 4.76882L126.454 1.79133C127.537 0.480611 128.588 0.739525 129.615 1.84798C129.789 3.06161 131.402 4.8821 128.438 4.76882Z" fill="#E2E7F0"/>
<path id="Vector_152" d="M133.954 28.2809C136.27 30.0528 139.115 30.2146 142.49 30.8053L138.697 33.2325C140.902 35.2714 142.972 30.2308 144.909 33.4267V33.8879C143.091 35.6598 144.664 38.977 142.087 40.4091C139.242 38.7909 136.499 35.3361 133.322 40.0369C133.006 40.5061 131.338 40.2553 131.536 39.5109C132.595 35.5222 128.849 37.1323 127.671 35.8296C127.545 35.5488 127.496 35.2386 127.529 34.9316C128.185 34.4461 128.319 33.7018 128.572 32.9817C129.252 31.2179 128.477 27.2048 132.524 29.9153C133.045 29.4124 133.523 28.8658 133.954 28.2809V28.2809Z" fill="#181F6A"/>
<path id="Vector_153" d="M132.974 20.1415C132.845 21.5016 132.201 22.756 131.18 23.6367C130.303 23.7823 129.979 26.064 128.477 23.9199C123.925 17.4472 124.328 15.9261 131.702 13.9843C132.555 13.7578 133.425 13.6283 134.618 13.3775C134.816 16.0394 132.476 17.779 132.974 20.1415Z" fill="#1D1273"/>
<path id="Vector_154" d="M180.681 26.3068L186.371 26.5576C187.952 27.2453 189.77 27.577 190.837 29.2114C190.932 30.6839 191.999 31.8085 192.22 33.2568C192.153 33.6733 191.985 34.0658 191.73 34.3976C191.264 35.2067 189.43 36.1776 192.038 36.566C192.828 36.6792 193.176 37.3751 193.398 38.0871C193.545 38.8635 193.5 39.6656 193.265 40.4194C193.03 41.1731 192.614 41.8541 192.054 42.3995C191.485 42.7474 190.789 42.3105 190.331 42.4965C188.244 43.3056 185.454 43.9691 184.498 42.092C183.233 39.6 180.088 38.2084 180.459 34.7374C180.667 32.5717 180.531 30.3858 180.056 28.2647C180.032 27.9305 180.076 27.5948 180.185 27.2787C180.293 26.9626 180.465 26.673 180.689 26.4281L180.681 26.3068Z" fill="#2814AF"/>
<path id="Vector_155" d="M239.302 21.7354C236.449 23.4021 237.302 26.9297 235.698 29.2194C234.86 27.3909 237.65 24.1222 233.556 23.5558C235.366 22.4393 236.132 20.7645 235.603 17.8275C237.263 19.5428 237.587 21.4118 239.302 21.7354Z" fill="#5D6BE1"/>
<path id="Vector_156" d="M190.837 29.2114C188.805 29.2761 187.501 28.0706 186.371 26.5576C186.629 26.5182 186.877 26.4333 187.106 26.3067C189.327 25.9507 191.192 26.0883 190.837 29.2114Z" fill="#6A5BDF"/>
<path id="Vector_157" d="M180.688 26.3876C180.688 26.9216 180.688 27.4556 180.744 28.0058C180.989 30.9023 180.744 33.8635 181.028 36.6872C181.408 40.676 178.981 41.1211 176.713 40.8136C173.457 40.3686 170.121 40.4414 166.92 39.5514H166.991C165.189 38.443 163.166 39.2278 161.254 38.8556C156.401 37.9009 155.429 36.663 155.618 30.7647C155.768 26.1368 156.337 25.5461 161.269 25.004C161.714 24.9433 162.144 24.795 162.534 24.5671L164.115 23.5881C164.794 24.5186 164.431 26.8245 166.691 25.6837C167.845 26.3795 168.738 27.4232 168.074 28.7178C167.165 30.4977 165.703 28.0705 164.81 28.7178C166.296 29.6482 168.09 30.7728 169.45 28.3132C172.998 28.5155 176.002 26.7921 179.124 25.4895C179.329 26.3876 180.025 26.3876 180.688 26.3876Z" fill="#1B1869"/>
<path id="Vector_158" d="M169.481 28.289C168.691 29.098 171.378 31.226 168.691 30.9185C167.9 30.8295 165.759 33.9607 165.482 30.1094C165.419 29.3003 163.158 28.5883 161.704 27.6821C163.885 26.7112 165.427 28.9281 167.561 28.1919C168.145 27.3261 166.636 26.6546 166.723 25.6514L168.667 25.3925C168.936 26.3876 169.212 27.3342 169.481 28.289Z" fill="#5B57DE"/>
<path id="Vector_159" d="M166.92 39.5353C169.924 39.5353 172.896 39.2764 175.883 40.2068C178.151 40.9027 178.507 37.2699 179.25 36.6711C182.649 33.9607 178.357 30.4169 180.744 27.9896C182.854 30.9751 180.878 34.3814 181.732 37.4964C181.969 38.977 184.996 32.7794 184.103 38.5239C183.589 41.9625 186.395 43.1843 189.13 41.024C191.082 39.4787 190.71 42.1001 191.611 42.2781C192.157 43.338 191.556 43.9691 190.821 44.5435C190.095 44.732 189.338 44.7596 188.6 44.6244C182.917 43.9448 182.917 43.9448 184.933 49.7217C186.853 49.479 187.304 46.9222 189.224 46.7523C189.554 46.7377 189.878 46.8354 190.147 47.0302C190.416 47.225 190.614 47.5058 190.71 47.8284C189.509 49.2848 188.339 50.7654 187.09 52.1975C186.031 53.4273 186.885 53.581 187.841 53.7266C187.462 54.7218 184.909 54.3901 186.261 56.4452C184.682 56.3351 183.103 56.6444 181.676 57.3433C181.637 53.8318 178.515 55.1345 176.895 54.1069C176.832 54.1069 176.832 53.8318 176.895 53.7105C176.956 53.5754 177.036 53.45 177.132 53.3383C178.863 53.2897 181.463 54.5519 182.095 52.6425C183.091 49.6165 181.637 46.5015 180.625 43.516C179.005 43.9043 180.736 46.364 178.697 45.9432C177.993 45.8057 176.934 45.4254 176.784 44.9157C176.27 43.249 178.365 43.1357 178.926 41.6794C174.84 41.0483 170.619 41.6065 166.92 39.5353Z" fill="#6A5BDF"/>
<path id="Vector_160" d="M192.734 31.7842C192.591 32.5933 192.86 33.6047 191.738 33.9445C191.493 33.4186 191.327 32.5043 190.947 32.4234C186.924 31.4849 189.493 30.3279 190.805 29.1871C191.34 29.3782 191.809 29.7264 192.151 30.1883C192.494 30.6502 192.697 31.2053 192.734 31.7842V31.7842Z" fill="#6A5BDF"/>
<path id="Vector_161" d="M162.534 24.5753C160.645 26.2744 156.938 25.3116 156.859 29.7858C156.741 36.8572 157.096 37.7391 164.162 38.6453C165.158 38.7748 166.32 38.4026 166.992 39.5676H158.89L162.281 45.385C160.613 45.741 160.463 44.1714 159.744 43.4432C158.764 42.4642 157.926 40.4415 157.033 40.4415C153.634 40.4415 154.417 37.3103 153.168 35.7811C156.251 33.3539 154.061 29.6725 155.199 26.7922L154.994 26.331C156.709 24.3487 155.531 21.8325 156.14 19.559C157.539 20.5865 156.282 22.6739 157.776 23.6044C159.072 25.3439 160.969 24.1465 162.534 24.5753Z" fill="#6178DA"/>
<path id="Vector_162" d="M155.207 26.7922C156.946 29.4622 155.998 32.4558 155.863 35.2148C155.776 37.642 154.037 35.2876 153.176 35.7811L151.469 34.8912C150.947 33.1193 148.924 32.8037 147.952 30.959L155.207 26.7922Z" fill="#161359"/>
<path id="Vector_163" d="M142.079 40.3929C144.332 38.8152 141.898 35.1095 144.901 33.8716C144.284 37.108 144.111 40.49 142.222 43.3541L142.079 40.3929Z" fill="#5DCDED"/>
<path id="Vector_164" d="M160.503 16.6786C160.661 19.4295 159.372 21.5816 157.76 23.5963C157.207 21.8244 159.088 20.4085 158.116 18.2968C157.246 16.4278 159.704 17.3339 160.503 16.6786Z" fill="#6178DA"/>
<path id="Vector_165" d="M191.73 33.9445C192.678 35.061 194.417 35.9348 192.797 37.7877C191.801 36.6549 189.169 38.8071 189.043 35.6031C188.94 32.8603 190.576 34.0335 191.73 33.9445Z" fill="#6A5BDF"/>
<path id="Vector_166" d="M171.805 33.1516C173.686 33.4914 174.595 34.9154 175.472 36.3879C174.587 34.972 170.951 37.2374 171.805 33.1516Z" fill="#7786CD"/>
<path id="Vector_167" d="M190.584 44.3655L189.659 46.9546C189.414 47.1326 189.169 47.3106 188.932 47.4967C187.154 48.8641 186.482 52.9661 184.569 52.0761C182.435 51.0809 183.052 47.2216 182.483 44.6325C182 42.4561 183.028 42.003 184.561 42.6503C186.521 43.4755 188.821 42.9253 190.584 44.3655Z" fill="#2813B4"/>
</g>
</svg>
