<svg width="562" height="567" viewBox="0 0 562 567" fill="none" xmlns="http://www.w3.org/2000/svg">
<g id="portal int">
<path id="Vector" d="M59.24 462.42C61.87 450.73 54.5 442.95 47.24 436.42C41.59 431.42 39.81 426.06 39.36 419.33C39.1106 417.05 38.7468 414.784 38.27 412.54C37.8399 411.427 37.7596 410.21 38.04 409.05C38.71 407.98 39.57 407.33 40.92 407.76C42.99 411.59 43.43 415.86 43.32 420.02C43.08 429.52 50.99 433.02 56.26 438.54C56.53 438.83 57.11 438 57.38 437.54C57.97 436.31 58.28 434.89 59.77 434.35C62.23 435.35 62.19 437.74 62.47 439.71C63.05 443.83 65.18 445.1 69.21 444.77C71.88 444.55 75.11 443.67 76.99 446.9C75.66 449.21 73.76 447.75 72.27 447.71C71.35 447.35 72.03 448.98 72.06 448.21C72.06 448 72.24 448.04 72.57 448.04C73.87 448.04 74.89 448.27 74.46 449.96C73.8056 450.52 72.9967 450.869 72.14 450.96C71.5722 451.03 70.9978 451.03 70.43 450.96C63.66 449.96 63.66 449.96 63.07 456.6C62.9934 457.366 62.8563 458.125 62.66 458.87C61.83 460.38 61.89 462.7 59.24 462.42Z" fill="#49DAF8"/>
<path id="Vector_2" d="M73 481C71.08 478.73 70.08 475.73 67.45 474C65.7 470.32 64.24 466.46 59.52 465.44C56.91 464.88 59.16 463.44 59.23 462.44L61.52 458.88C62.2068 459.293 62.7538 459.903 63.09 460.63C65.09 464.15 68.57 466.41 70.9 469.63C72.43 471.45 73.55 473.73 76.17 474.34C80.04 479.25 85.73 478.65 91.02 479.26C91.5598 479.239 92.0979 479.331 92.6 479.53C94.72 484.17 89.94 482.78 88.46 484.29C87.797 484.722 87.0766 485.058 86.32 485.29C85.8158 485.387 85.2994 485.404 84.79 485.34C84.2995 485.202 83.8477 484.952 83.47 484.61C80.47 482 76.78 482.35 73.18 482.42C73.044 482.309 72.938 482.166 72.8716 482.003C72.8052 481.841 72.7806 481.664 72.8 481.49C72.86 481.13 72.93 481 73 481Z" fill="#65DDF6"/>
<path id="Vector_3" d="M270.24 550.51C260.9 554.82 251.54 559.1 242.24 563.51C240.56 564.3 238.58 564.78 237.64 566.69C230.3 565.69 223.19 563.37 215.72 563.1C214.66 563.1 214.58 561.75 214.56 560.77C214.745 560.357 215.013 559.986 215.347 559.68C215.68 559.374 216.073 559.139 216.5 558.99C219.61 558.16 222.81 558.85 225.58 559.74C233.58 562.33 240.67 560.38 247.58 556.48C252.23 555.34 255.84 551.9 260.43 550.65C262.21 549.97 263.82 549.19 261.89 547.05C261.01 546.05 259.82 545.34 259.43 543.97C256.04 538.32 250.33 539.97 245.29 539.41C243.04 539.16 240.43 541.12 238.57 538.35C238.483 537.882 238.541 537.399 238.736 536.965C238.93 536.531 239.253 536.166 239.66 535.92C247.13 534.37 254.66 534.92 262.11 535.61C264.21 535.81 266.31 536.07 268.42 536.17C269.994 536.131 271.561 536.389 273.04 536.93C274.53 538.79 274.14 540.87 273.98 542.83C280.52 539.91 286.53 543.83 292.69 545.47C295.21 546.14 293.27 548.61 292.34 550.19C291.566 551.066 290.566 551.713 289.45 552.06C287.73 552.27 285.99 552.82 284.34 551.76C283.34 550.62 281.34 551.76 280.47 550.26C277.47 548.26 273.78 550.66 270.72 548.9L270.4 548.69C270.12 549.1 270.24 549.37 270.75 549.53C270.81 549.728 270.79 549.941 270.695 550.124C270.599 550.307 270.436 550.446 270.24 550.51V550.51Z" fill="#45CFFC"/>
<path id="Vector_4" d="M215.84 560.27L214.56 560.73C210.31 554.8 205.5 556.29 200.56 559.64C198.65 560.13 198.56 557.83 197.23 557.46C191.01 552.76 183.59 550.83 176.39 548.4L174.88 548.29C176.67 543.17 172.31 540.38 170.45 536.65C173.36 534.65 169.45 531.19 172.12 529.14C174.62 528.21 176.54 529.02 178.05 531.14C178.386 532.036 178.486 533.004 178.34 533.95C178.27 534.65 177.94 535.71 178.63 535.95C179.07 536.08 179.23 534.71 179.88 534.25C182.78 535.68 185.44 538.05 186.52 540.64C189.33 547.41 196.34 546.99 201.05 550.54C196.59 544.08 187.2 542.13 185.95 533.06C185.904 532.191 186.202 531.34 186.78 530.69C189.7 529.61 190.9 531.94 192.47 533.53C194.11 537.53 197.08 538.46 201.13 537.69C203.13 537.31 205.28 537.26 207.36 537.02C207.918 537.04 208.468 537.151 208.99 537.35C209.355 537.55 209.674 537.825 209.927 538.155C210.18 538.486 210.362 538.865 210.46 539.27C209.03 542.22 206.17 542.61 203.36 543.27C206.08 545.82 210.44 545.9 212.58 549.27C209.58 551.76 213.41 550.82 213.76 551.64C213.71 554.64 216.81 557 215.84 560.27Z" fill="#8DDCF1"/>
<path id="Vector_5" d="M383.19 540C375.95 538 368.52 537.31 361.08 536.64C357.21 537.25 353.3 535.43 349.44 536.85C348.433 536.771 347.494 536.313 346.81 535.57C347.01 532.89 349.18 533.06 350.94 532.86C352.94 532.62 355.06 532.76 357.04 532.13C358.606 531.794 360.223 531.766 361.8 532.05C363.89 532.53 366.02 532.78 368.14 533.05C375.82 533.61 383.25 536.34 391.05 535.55C396.05 533 400.65 529.76 405.99 527.89C409.24 526.75 410.48 523.83 411.57 520.89C412.379 518.717 413.307 516.591 414.35 514.52C416.07 512.05 416.09 508.84 417.9 506.41C418.603 505.605 419.513 505.007 420.53 504.68C423.6 504.2 424.61 499.97 428.21 500.45C428.07 505.19 422.75 506.17 421.3 509.96C418.75 514.313 416.623 518.901 414.95 523.66C413.95 528.35 411.62 531.53 406.57 532.8C401.931 534.05 397.648 536.365 394.06 539.56C390.6 542.58 386.79 539 383.19 540Z" fill="#43C8F4"/>
<path id="Vector_6" d="M334.09 25C334.09 23.87 334.09 22.73 334.09 21.6L335.33 20.34L336.53 21.63C337.546 23.9555 337.713 26.5642 337 29C335.54 34.44 337.68 36.86 342.94 37.25C342.86 40.38 342.86 40.38 338.74 39.76C338.57 39.76 338.42 39.58 338.26 39.49C338.509 39.8599 338.805 40.1961 339.14 40.49C339.08 42.71 337.39 43.73 335.92 44.93C335.275 45.3372 334.517 45.5277 333.756 45.4737C332.995 45.4197 332.271 45.1241 331.69 44.63C326.45 41.63 320.69 43.02 315.27 43.17C308.322 43.318 301.458 41.6313 295.37 38.28C293.66 37.39 291.92 36.53 291.05 34.64C290.904 34.2178 290.889 33.761 291.009 33.3305C291.129 32.9 291.377 32.5161 291.72 32.23C294.06 31.18 295.94 32.89 298.05 33.3C303.72 36.18 309.57 38.24 316.05 37.52C316.82 37.52 317.59 37.52 318.36 37.52C321.63 37.42 325.12 38.32 328.11 37.08C331.61 35.63 330.32 31.27 331.93 28.51C332.579 27.298 333.301 26.1259 334.09 25Z" fill="#2BF2FD"/>
<path id="Vector_7" d="M553.41 339.46C547.61 341.46 544.21 346.59 539.6 350.15C538.46 351.08 537.98 353 535.94 352.59C535.568 352.426 535.237 352.182 534.969 351.876C534.702 351.571 534.504 351.21 534.39 350.82C534.348 350.276 534.452 349.731 534.69 349.24C537.84 345.65 541.78 342.95 545.58 340.14C549.2 337.45 550.37 334.46 548.2 330.39C548.2 328.92 549.28 328 549.98 326.9C552.59 321.9 553.98 317.33 548.77 312.64C546.77 310.83 548.22 306.73 546.33 304.14C545.06 297.82 539.33 293.54 538.48 287.03C538.474 286.464 538.555 285.901 538.72 285.36C539.036 284.561 539.624 283.898 540.38 283.49C540.639 283.4 540.919 283.388 541.184 283.458C541.45 283.527 541.689 283.674 541.87 283.88C546.45 294.19 550.95 304.54 555.67 314.79C556.91 317.49 557.56 319.67 556.16 322.71C553.47 328.57 554.25 329.57 561.94 331.16C554.48 330.51 553.52 334.62 553.41 339.46Z" fill="#3DCEF5"/>
<path id="Vector_8" d="M541.55 260.74L544.25 266.68C543.47 268.5 542.7 270.31 541.93 272.13C541.732 272.302 541.478 272.397 541.215 272.397C540.952 272.397 540.698 272.302 540.5 272.13C538.34 269.54 542.71 265.68 538.38 263.27C536.96 264.49 537.58 267.65 534.92 268.07C533.14 267.89 530.87 267.48 531 265.51C531.322 262.067 532.968 258.884 535.59 256.63C536.401 256.101 537.342 255.803 538.31 255.77C541.46 256.07 540.73 258.91 541.55 260.74Z" fill="#96F1FE"/>
<path id="Vector_9" d="M474.26 468.1C471.33 473.5 467.96 478.26 460.79 477.81C458.35 477.65 457.03 480.96 454.29 480C454.237 479.533 454.325 479.061 454.542 478.644C454.76 478.227 455.097 477.884 455.51 477.66C454.74 477.59 454.33 478.41 453.58 478.43C451.9 478.43 450.02 478.82 450.07 476.16C453.22 474.26 456.16 471.89 460.07 471.67C463.62 472.17 466.71 471.22 468.55 468.07C473.55 459.61 478.85 451.42 485.87 444.46C487.144 443.242 487.912 441.589 488.02 439.83C488.608 437.106 489.045 434.352 489.33 431.58C489.41 429.9 489.33 427.64 492.04 427.52C493.16 429.31 492.11 431.26 492.46 432.38C492.46 433.88 493.55 433.28 492.79 433.38C492.6 433.38 492.53 433.28 492.52 433.03C492.38 430.54 492.95 428.1 492.91 425.6C492.91 424.03 492.86 421.95 495.45 422C496.84 423.26 496.95 424.93 497.01 426.63C496.33 430.93 494.91 435.08 494.27 439.39C494.183 439.482 494.125 439.597 494.104 439.722C494.083 439.846 494.099 439.975 494.15 440.09C494.77 445.72 491.24 449.09 487.51 452.39C485.65 454.02 484.21 456.06 482.31 457.66C481.802 457.863 481.353 458.19 481.004 458.611C480.654 459.032 480.416 459.533 480.31 460.07C478 462.5 476.46 465.55 474.26 468.1Z" fill="#4ADFFB"/>
<path id="Vector_10" d="M517.51 396.82L514.97 395.36C513.03 391.86 516.44 387.91 514.05 384.45C517.57 376.07 517.59 366.01 525.84 359.9C529.49 357.58 529.97 351.98 534.94 351C535.34 351.56 535.74 352.11 536.13 352.67C536.13 353.61 535.54 354.1 534.87 354.57C534.188 355.127 533.627 355.818 533.223 356.601C532.818 357.384 532.579 358.241 532.52 359.12C524.9 365.51 524.74 375.72 520.03 383.59C518.5 386.15 522.17 389.11 519.42 391.59C516.52 392.5 517.86 395 517.51 396.82Z" fill="#68D8FD"/>
<path id="Vector_11" d="M9.27003 233.8C6.80003 231.44 9.55999 230.66 10.61 229.37L10.53 229.12C11.2716 228.912 11.946 228.514 12.4862 227.965C13.0265 227.416 13.4138 226.735 13.61 225.99C15.42 217.6 20.03 209.58 17.15 200.53C16.43 193.82 18.82 189.37 24.76 186.37C26.56 189.37 24.46 191.75 23.38 194.28C22.84 202.73 21.86 211.02 23.38 219.65C24.7562 228.185 25.342 236.828 25.13 245.47C26.59 241.91 22.97 237.06 25.69 232.64C28.93 233.28 28.4 235.97 28.42 238.09C28.48 245.57 28.52 253.01 29.98 260.42C30.82 264.67 28.98 268.69 27.32 272.59C25.8824 276.503 24.2128 280.326 22.32 284.04C19.78 289.09 12.57 291.65 12.44 297.04C12.32 302.12 14.24 307.49 13.85 312.91C13.9242 314.069 14.1564 315.213 14.54 316.31C15.07 319.13 16.82 321.76 15.82 324.8C14.38 327.48 14.67 330.43 14.54 333.3C14.42 335.85 14.36 338.4 11.54 339.71C9.53999 340.39 8.12003 339.37 6.84003 338.02C6.08003 335.02 1.67003 334.94 1.59003 331.41C2.75003 327.12 3.45004 322.84 1.28004 318.63C1.031 318.284 0.854729 317.891 0.76191 317.475C0.669091 317.059 0.661612 316.629 0.739998 316.21C1.03138 314.885 1.82783 313.727 2.96003 312.98C10.59 309.3 9.26998 303.69 6.46998 297.68C6.03193 296.833 5.74435 295.916 5.62 294.97C5.79 292.65 7.50999 291.28 8.91999 289.73C14.98 283.05 18.79 275.08 21.64 266.66C23.64 260.82 22.26 254.83 21.19 248.98C19.81 241.37 18.99 233.77 19.76 225.98C18.95 229.67 16.48 231.57 12.99 232.36C11.7897 232.937 10.5459 233.418 9.27003 233.8V233.8Z" fill="#58E3FD"/>
<path id="Vector_12" d="M487.09 133.2C488.09 133.04 489.09 133.05 489.7 132.01C493.7 134.83 495.82 140.01 501.13 141.26C501.13 142.02 501.13 142.78 501.13 143.55C500.705 143.876 500.174 144.033 499.64 143.99C497.745 143.734 495.973 142.908 494.56 141.62C492.861 139.979 490.848 138.698 488.641 137.855C486.435 137.011 484.081 136.622 481.72 136.71C480.4 136.23 478.72 136.13 479.12 133.98C481.72 133 484.52 134.31 487.09 133.2Z" fill="#44C2F0"/>
<path id="Vector_13" d="M439.82 484.62V485.79C440.19 486.06 440.3 486.3 440.15 486.52C440 486.74 439.86 486.82 439.72 486.82C432.48 488.51 431.11 495.13 428.24 500.48C425.3 501.15 425.42 506.66 421.03 505.03C420.03 500.43 425.11 499.16 426.18 495.68C427.6 493.36 428.52 490.77 430.01 488.49C432.88 486.24 435.84 484.14 439.82 484.62Z" fill="#AFECFD"/>
<path id="Vector_14" d="M28.12 373.36C27.92 375.69 29.92 376.57 31.12 377.94C35.2397 382.239 37.8931 387.731 38.7 393.63C39.42 398.87 39.38 405.54 47.42 406.02C47.75 406.02 48.3201 406.38 48.3401 406.61C49.1501 415.55 61.1001 419.79 58.3401 430.29C58.096 431.027 58.0313 431.812 58.1513 432.579C58.2713 433.346 58.5726 434.073 59.0301 434.7C59.3901 436.16 59.59 437.56 57.77 438.23C54.42 437.23 54.4401 434.23 54.4001 431.68C54.4287 429.295 53.9505 426.932 52.9972 424.746C52.0438 422.56 50.6371 420.602 48.87 419C45.54 415.91 45.95 410.15 41.19 408L38.43 409.18C36.2 407.67 34.93 406.62 35.68 402.93C37.25 395.27 36.02 387.6 30.22 381.47C29.83 377.13 25.22 377.05 23.1 374.47C22.35 370.71 24.48 368.28 27.26 366.54C29.67 365.04 31.47 366.74 32.93 368.63C32.78 371.6 29.83 371.86 28.12 373.36Z" fill="#A3F4FE"/>
<path id="Vector_15" d="M95 454.2C87.56 455.35 81.65 449.79 74.53 449.52L69.28 447.52L76.9 447.09C80.23 447.18 83.16 448.52 86.05 450C89.59 449.34 92.21 451.62 95.16 452.84C95.3113 453.045 95.379 453.299 95.3493 453.552C95.3196 453.804 95.1947 454.036 95 454.2Z" fill="#A8F7FE"/>
<path id="Vector_16" d="M146.26 48.06L153.43 48.45C154.06 48.93 154.88 49.27 154.69 50.3C153.96 51.94 152.05 51.58 150.54 52.8C152.22 55.61 154.24 58.34 155.23 61.56C156.91 64.24 158.74 61.15 160.48 61.69C160.746 61.7582 160.995 61.8828 161.209 62.0553C161.423 62.2278 161.597 62.4443 161.72 62.69C159.72 70.55 155.72 76.69 147.52 79.26C146.948 79.2319 146.395 79.0449 145.923 78.7198C145.452 78.3948 145.08 77.9447 144.85 77.42C145.15 74.79 147.13 73.97 148.68 72.99C146.6 72.99 143.92 73.07 141.24 73.2C140.391 73.3239 139.526 73.2866 138.69 73.09C138.432 72.9508 138.209 72.7546 138.038 72.5162C137.867 72.2779 137.752 72.0037 137.703 71.7144C137.654 71.4252 137.671 71.1286 137.754 70.8471C137.836 70.5656 137.982 70.3067 138.18 70.09C138.897 69.5514 139.741 69.2069 140.63 69.09C143.7 68.7 146.84 69.33 149.88 68.51C152.92 67.69 151.64 65.81 150.7 64.12C146.79 60.12 146.48 53.52 140.9 50.75C140.768 50.5095 140.69 50.2435 140.67 49.97L145.09 47.54L146.26 48.06Z" fill="#29EEFD"/>
<path id="Vector_17" d="M291.33 33.36L288.96 32.16C288.256 31.6315 287.478 31.2103 286.65 30.91C281.53 27.59 276.27 30.29 271.12 30.72C265.97 31.15 260.68 32.72 255.42 33.5C254.211 33.6032 253.003 33.2775 252.01 32.58C252.6 25.22 252.59 25.33 243.87 24.29C239.329 23.6541 234.743 23.4066 230.16 23.55C222.35 23.95 221.97 23.55 221.88 16.09L222.15 13.96C225.52 10.16 226.93 5.66001 226.55 0.140015C228.16 2.14001 226.95 4.00002 227.55 5.60002C227.19 7.42002 228.23 9.60001 226.24 11.01C224.41 12.49 224.58 14.58 224.24 16.66C223.66 19.94 224.83 20.05 227.6 19.77C237.87 18.77 248.12 20.14 258.38 20.58C259.53 20.5968 260.651 20.9439 261.61 21.58C267.61 26.18 274.24 26.8 281.19 24.87C283.52 24.23 284.76 25.09 286.19 26.47C287.83 28.04 289.11 30.08 291.43 30.84C292.37 30.84 292.87 31.23 292.53 32.25L291.33 33.36Z" fill="#A0F7FE"/>
<path id="Vector_18" d="M503.34 151.55C504.016 156.717 505.212 161.803 506.91 166.73C506.8 169.04 508.84 170.42 509.38 172.44C509.014 172.778 508.552 172.994 508.057 173.059C507.563 173.123 507.061 173.033 506.62 172.8C504.5 171.44 503.77 169.23 503.12 167C501.44 161.24 500.44 155.33 499.12 149.5C498.65 147.43 498.28 145.27 500.17 143.57C500.5 143.502 500.84 143.502 501.17 143.57C501.87 146.21 502.61 148.88 503.34 151.55Z" fill="#8DEEFE"/>
<path id="Vector_19" d="M485 175.89C486.91 175.66 486.59 174.44 485.77 173.55C478.61 165.7 478.88 155.18 475.86 145.86C474.86 142.64 474.75 139.12 474.24 135.74C474.36 135.15 474.47 134.56 474.59 133.97C475.152 133.72 475.763 133.596 476.378 133.608C476.993 133.62 477.598 133.768 478.15 134.04C480.65 138.27 480.96 143.22 482.64 147.73C484.72 154.04 485.47 160.73 488.11 166.89C491.61 172.89 495.76 178.28 501.79 181.97C504.6 183.84 506.39 184.14 505.39 179.75C504.8 177.12 504.71 174.54 507.06 172.56L509.36 172.44C510.244 173.886 511.502 175.067 513 175.86C516.63 178.03 517 180.74 513.64 183.21C511.92 184.48 511.52 186.86 509.35 187.52C506.63 187.4 506.11 189.1 506.21 191.31C505.78 191.691 505.276 191.981 504.73 192.16C502.748 192.488 500.738 192.618 498.73 192.55C497.295 192.599 495.866 192.34 494.54 191.79C492.901 190.654 491.754 188.939 491.33 186.99C491.33 182.76 488.11 180.59 485.45 178.08C484.94 177.42 484.48 176.76 485 175.89Z" fill="#44C2F0"/>
<path id="Vector_20" d="M426.83 483.31L430.75 483.23L421.01 487.41C422.01 488.75 423.44 487.41 424.64 487.83C424.801 488.059 424.899 488.327 424.924 488.606C424.949 488.885 424.899 489.166 424.78 489.42C424.215 490.206 423.383 490.76 422.44 490.98C410.85 492.74 403.63 500.29 397.59 509.5C395.93 512.04 394.06 514.44 392.38 516.98C392.323 517.35 392.226 517.712 392.09 518.06C383.4 519.28 374.25 519.25 366.19 522.18C361.1 524.03 354.31 525.62 351.55 531.95L349.29 532.08C348.29 532.75 346.64 533.03 346.21 532.15C344.79 529.29 348.81 528.98 349.15 526.42C347.39 525.16 344.52 525.14 343.36 522.72L344.84 521.46C354.1 520.46 363.43 519.76 372.4 516.9L372.96 516.28C374.778 515.198 376.845 514.602 378.96 514.55C385.96 514.62 390.27 510.8 393.42 505.1C399.03 496.73 405.62 489.47 415.42 485.83C419.29 485.29 422.49 481.68 426.83 483.31Z" fill="#55E1FE"/>
<path id="Vector_21" d="M424.67 489V487.81L440.01 483.05C440.13 483.05 440.3 483.15 440.45 483.21L439.85 484.6C436.42 485.52 433 486.45 430.52 489.26C428.54 489.41 426.54 490.69 424.67 489Z" fill="#4ADFFB"/>
<path id="Vector_22" d="M32.55 368.41L33.66 366.28C35.66 369.03 38.31 366.68 40.59 367.28C44.53 368.28 45.03 372.63 47.83 374.75C48.5419 375.396 49.4292 375.817 50.38 375.96C59.02 376.07 63.79 381.18 66.84 388.56C68.62 393.56 72.73 395.92 77.33 397.7C77.8079 397.947 78.2489 398.26 78.64 398.63C81.52 401.39 84.36 404.18 85.88 407.98C89.22 414.73 91.3 422.1 95.88 428.22C99.3222 433.272 102.378 438.577 105.02 444.09C105.274 444.56 105.495 445.048 105.68 445.55C106.68 450.25 111.01 453.32 111.68 458.22C111.97 460.29 113.49 459.67 114.68 458.84C116.21 457.84 117.35 455.96 119.68 456.49C120.011 456.921 120.209 457.438 120.25 457.98C119.79 460.2 118.7 461.75 115.38 462.1C121.55 461.1 126.88 459.48 132.38 460.98C132.53 461.202 132.633 461.452 132.681 461.716C132.729 461.979 132.722 462.25 132.66 462.51C130.79 464.93 128 464.78 125.38 465.14C123.31 465.43 121.02 465.5 120.28 468.03C120.013 468.859 120.018 469.752 120.296 470.578C120.573 471.404 121.107 472.12 121.82 472.62C123.9 474.27 125.75 473.23 127.56 472.02C128.2 471.593 128.962 471.386 129.73 471.43C129.963 471.554 130.167 471.726 130.329 471.935C130.491 472.143 130.607 472.384 130.67 472.64C131.05 474.47 129.1 475.49 129 477.2C130.8 477.43 132.32 476.43 134 476.41C135.46 476.47 136.88 476.6 137.29 478.41C136.7 479.86 135.4 480.41 134.1 480.86C133.49 481.17 132.25 481.18 132.6 482.1C133.23 483.75 134.76 484.1 136.45 483.88C136.971 483.863 137.491 483.948 137.98 484.13L138.56 484.67C138.746 485.165 138.794 485.7 138.7 486.22C137.26 488.62 134.87 489.65 132.38 490.52L126.51 487.12L116.51 476.28C118.83 476.2 118.43 478.99 121.05 479.35C116.84 473.19 115.35 466.03 109.29 461.77C107.88 460.77 107.83 460.85 107.07 463.77C106.07 463.35 105.01 462.9 103.97 462.5C102.04 461.74 100.72 461.14 103.97 460.24C104.29 460.15 103.05 459.08 102.11 459.05C100.21 457.12 96.89 457.79 95.29 455.31C95.1997 454.951 95.0896 454.597 94.96 454.25C94.9637 453.915 94.9403 453.581 94.89 453.25C100.89 451.41 101.09 451.34 98.27 445.25C95.27 438.81 91.7 432.73 86.5 427.75C85.12 425.09 86.02 421.64 83.62 419.32C83.3453 419.051 83.1305 418.728 82.99 418.37C80.62 408.89 74.55 402.92 66.34 397.73C61.34 394.57 58.04 388.48 54.6 383.22C54.07 382.67 53.51 381.86 52.78 381.93C45.42 382.6 41.95 377.56 38.56 372.38C34.91 371.26 31.56 372.93 28.05 373.38L32.55 368.41Z" fill="#4FDBF8"/>
<path id="Vector_23" d="M108.27 501L106.85 501.94C104.79 503.19 103.35 502.36 102.18 500.58C102.55 499.51 104.42 499.84 104.28 498.31C104.95 496.31 107.07 499.03 107.93 497.15C108.79 495.27 112.16 493.86 110.46 492.22C108.92 490.74 105.46 490.65 103 490.92C101.41 491.09 104 493.14 102.84 494.35C100.32 493.25 100.68 490.18 98.94 488.56C98.94 487.49 98.84 485.56 100.32 486.24C104.32 488.1 109.11 487.38 112.88 489.94C113.79 490.55 114.54 491.94 115.74 490.79C116.38 490.2 117.11 488.85 116.85 488.28C116.07 486.59 115.39 488.87 114.5 488.6C113.61 488.33 113.03 487.81 113.27 487.03C113.6 485.96 114.12 484.81 115.47 484.62C119.86 483.98 122.47 485.84 123.35 490.22C123.249 490.655 123.274 491.109 123.421 491.53C123.568 491.951 123.831 492.322 124.18 492.6C127.02 494.3 128.92 496.28 126.26 499.6L124.15 501C123.733 501.332 123.236 501.546 122.708 501.622C122.181 501.697 121.643 501.631 121.15 501.43C120.664 501.219 120.216 500.932 119.82 500.58C117.23 499.58 118.08 493.98 113.4 495.82C111.992 496.68 110.852 497.916 110.11 499.39C109.978 499.84 109.786 500.271 109.54 500.67C109.38 500.837 109.176 500.957 108.952 501.015C108.728 501.073 108.492 501.068 108.27 501Z" fill="#6FD1F8"/>
<path id="Vector_24" d="M294.73 548.33C297.73 545.33 301.94 545.71 305.57 545.46C309.86 545.16 313.66 543.77 317.57 542.34C321.27 540.97 324.9 540.51 328.57 542.43C317.24 544.31 306.33 548.3 294.73 548.33Z" fill="#A0D2FE"/>
<path id="Vector_25" d="M343.36 522.72C344.219 523.092 345.114 523.377 346.03 523.57C353.34 524.39 353.25 526.79 347.63 530.57C346.81 531.11 346.94 531.31 349.29 532.08C343.29 534.08 336.64 535.02 333.06 541.33C330.542 541.077 328.161 540.058 326.24 538.41C330.7 537.15 333.95 534.85 337.37 532.83C342.37 529.83 342.37 527.97 337.15 524.83C335.7 523.95 333.82 523.59 333.15 521.67C336.6 521.86 339.62 525.82 343.36 522.72Z" fill="#9EF1FE"/>
<path id="Vector_26" d="M227.27 519.54C226.57 520.64 224.08 519.96 224.48 521.87C224.88 523.78 226.35 522.54 227.56 522.53C229.35 522.53 226.84 525.87 229.48 526.05L228.79 529.77C226.56 530.31 225.7 527.65 223.73 527.59C223.389 527.566 223.053 527.499 222.73 527.39C220.44 524.96 217.47 524.39 214.31 524.16C212.62 524.06 212.56 523.97 211.31 520.97C211 520.2 210.52 520.33 210.11 520.31C207.11 520.14 204.05 518.88 200.97 519.83C199.87 520.16 198.84 520.91 197.73 520.05C193.33 516.64 187.92 516.92 182.85 515.96C181.883 515.874 180.972 515.469 180.26 514.81C176.79 515.98 171.5 517.81 171.35 513C171.21 508.65 167.55 510.68 167.09 508.52C169.88 506.52 172.9 507.52 175.85 507.92C180.41 508.5 184.93 508.67 189.33 507C190.82 507.32 190.47 509.47 192.09 509.73C192.82 507.79 190.21 508.66 190.14 507.42C189.951 506.733 189.982 506.004 190.228 505.336C190.473 504.667 190.922 504.092 191.51 503.69C192.443 503.261 193.487 503.133 194.496 503.325C195.505 503.517 196.429 504.019 197.14 504.76C197.83 510.61 198.67 511.26 204.89 511.82C207.33 512.04 209.78 510.98 212.18 512.02C215.52 515.52 219.35 518.02 224.41 518.02C225.6 518.07 226.75 518.28 227.27 519.54Z" fill="#61DAF7"/>
<path id="Vector_27" d="M188 504.36C181.22 507 174.55 503.36 167.72 503.99C163.32 504.42 164.85 505.72 166.22 507.71C163.78 508.49 161.41 508.71 162.22 505.09C162.92 501.92 161.22 500.71 158.91 499.7L159 498.9C160.07 497.4 159.67 494.28 163 495.25C164 497.41 170.56 495.03 167.62 500.76C167.5 500.99 170.37 501.42 171.88 501.5C177.42 501.77 183.06 501.19 188 504.36Z" fill="#5DCDED"/>
<path id="Vector_28" d="M156.76 500.74L149.39 496.22C150.12 494.28 151.71 493.46 153.58 492.97C157.32 493.33 160.53 494.19 159.4 499.14L158.94 499.7C158.512 499.581 158.056 499.621 157.655 499.812C157.255 500.003 156.937 500.333 156.76 500.74V500.74Z" fill="#5DCDED"/>
<path id="Vector_29" d="M156.52 504L156.7 500.76C158.81 501.07 157.7 503.42 158.99 504.32C160.28 505.22 160.46 506.39 159.27 507.11C158.765 507.374 158.207 507.521 157.638 507.54C157.068 507.559 156.502 507.449 155.98 507.22C154 506 157.22 505.24 156.52 504Z" fill="#5DAAE2"/>
<path id="Vector_30" d="M181 44.53C173.2 50.99 163.89 49.9 154.77 49.78L153.43 48.45L155.43 48.15C163.93 47.78 172.59 48.54 180.08 42.91C181.85 41.59 181.41 43.53 181 44.53Z" fill="#9FF6FE"/>
<path id="Vector_31" d="M147.71 78.61V80.87C148.71 84.42 151.37 88.03 147.31 91.38C144.662 93.2659 142.218 95.4244 140.02 97.82C137.02 100.52 133.45 102.82 132.33 107.15C131.94 108.68 131.33 110.06 133.26 110.95C134.2 111.5 135.12 112.07 134.99 113.38C126.99 118.86 118.92 124.11 109.99 127.97C105.65 129.85 101.27 131.97 99.82 137.29C99.31 139.18 97.94 139.74 96.74 137.56C96.6691 137.401 96.609 137.237 96.56 137.07C96.5 136.89 96.46 136.7 96.41 136.52C94.5 138.31 92.33 139.79 90.41 141.52C90.0271 141.89 89.562 142.165 89.0529 142.321C88.5437 142.478 88.0047 142.511 87.48 142.42C79.56 144.7 72.48 148.94 64.83 151.91C63.26 152.53 61.7 153.17 60.13 153.8C59.26 152.01 57.69 153.33 56.5 152.97C57.73 148.92 62.08 149.33 64.68 147.23C73.36 142.53 83.07 139.91 90.87 133.32C94.06 130.62 95.64 127.04 98.3 124.15C102.94 123.83 103.79 118.64 107.41 117.01C109.66 115.51 112.74 116.62 114.82 114.6C116.82 112.27 118.99 110.16 122.19 109.54C124.52 109.09 125.65 107.37 126.42 105.32C128.01 101.015 131.042 97.3933 135 95.07C137.882 93.8993 140.28 91.7835 141.8 89.07C144.38 86.07 143.02 82.66 142.92 79.37C143.18 78.21 143.57 77.17 145.02 77.15L147.71 78.61Z" fill="#4ADEFC"/>
<path id="Vector_32" d="M186.48 86.52C186.081 87.0256 185.797 87.6129 185.651 88.2403C185.504 88.8676 185.497 89.5196 185.63 90.15C184.497 93.19 183.36 96.2333 182.22 99.28C181.51 101.22 181.72 103.59 178.56 103.97C176.34 104.23 174.7 106.08 173.65 108.18C172.457 109.513 171.013 110.597 169.4 111.37C164.92 114.8 159.9 115.61 154.48 114.45C150.31 113.28 146.1 113.82 141.88 114.01C139.48 114.11 136.88 115.31 134.69 113.32C134.15 112.26 133.11 112.13 132.11 111.93C132.234 111.167 132.647 110.482 133.263 110.016C133.88 109.55 134.652 109.34 135.42 109.43C140.67 109.64 145.94 108.58 151.15 109.82C157.53 111.35 163.55 112 168.42 105.95C171.02 102.72 176.09 102.81 178.79 99.38C179.27 91.06 183.95 84 185.79 76.09C187.52 72.28 188.68 68.23 190.63 64.55C193.29 59.55 196.87 55.55 203.17 55.4L204.64 56.65C196.16 60.99 191.96 68.35 190.07 77.33C188.87 80.39 187.673 83.4533 186.48 86.52Z" fill="#3DC8F5"/>
<path id="Vector_33" d="M509.34 187.5C511.03 185.96 508.23 181.29 513.64 181.94C515.16 182.12 515.64 178.88 513.46 177.15C511.84 175.83 508.87 175.59 509.35 172.42C514.82 174.55 515.62 179.73 518.1 184.24C522.5 192.24 526.96 200.18 530.58 208.57C535.36 219.63 539.02 230.96 538.48 243.24C537.59 246.72 538.36 250.43 536.98 253.84C535.28 251.6 535.62 248.84 536.21 246.62C539.57 234.27 533.56 223.73 529.89 212.82C527.58 205.97 523.42 199.92 519.71 193.7C518.03 190.87 516.22 189.53 513.01 189.86C511.27 190 509.38 190.12 509.34 187.5Z" fill="#BDFBFE"/>
<path id="Vector_34" d="M537 253.84C537.72 250.34 536.29 246.53 538.5 243.24C539.74 247.5 537.82 251.74 538.41 256L537 253.84Z" fill="#96F1FE"/>
<path id="Vector_35" d="M533.77 336L532.53 338.3C530.2 339.487 527.501 339.724 525 338.96L524.57 338.6C529.01 334.94 529.96 328.6 534.91 325.31C537.8 326.96 541.13 326.13 544.16 326.96L547.48 327.89C546.15 330.07 543.96 329.19 542.35 328.89C536.4 327.79 533.9 330.38 533.77 336Z" fill="#2BE9FE"/>
<path id="Vector_36" d="M532.48 301.2L525.74 307.08C524.57 307.48 524.12 306.77 523.81 305.83C523.7 303.06 525.45 301.36 527.32 299.73C530.01 293.66 528.38 287.37 528.2 281.16C528.2 279.87 527.66 278.55 527.58 277.22C527.823 273.755 526.703 270.332 524.46 267.68C524.164 267.232 523.935 266.744 523.78 266.23C523.686 265.834 523.707 265.418 523.842 265.034C523.977 264.649 524.219 264.311 524.54 264.06C526.46 266.2 529.95 266.35 531.02 269.78C531.64 271.78 533.53 270.5 534.87 269.93C530.23 280.06 533.25 290.77 532.48 301.2Z" fill="#96F1FE"/>
<path id="Vector_37" d="M511.88 206.53C509.15 201.84 509.76 197.6 509.41 193.53C509.33 192.53 509.6 191.42 510.89 191.61C511.49 191.7 512.43 192.53 512.43 193.04C512.46 197.22 514.12 201.52 511.88 206.53Z" fill="#BDFBFE"/>
<path id="Vector_38" d="M495.28 391.68L489.56 400.93L481.56 404.3C480.81 405.94 478.89 404.66 477.92 405.76C468.92 409.76 459.65 413.09 451.42 418.64C450.866 418.466 450.383 418.116 450.046 417.644C449.708 417.171 449.534 416.601 449.55 416.02C450.55 412.94 453.55 412.31 455.79 410.67C458.61 409.67 461.31 408.31 464.02 407.04C470.67 404.55 477.02 401.4 483.63 398.81C487.31 397.36 488.72 393.75 490.63 390.73C493.22 386.73 495.18 382.24 499.63 379.83C500.151 379.664 500.708 379.643 501.24 379.77C503.48 380.67 502.1 383.27 503.49 384.57C504.49 386.51 505 388.4 503.85 390.57C499.43 398.83 497.78 407.8 497.27 417.04C495.76 418.32 497.27 420.84 495.27 421.91C495.7 414.49 496.27 407.06 498.27 399.91C498.77 398.14 499.64 396.43 496.65 396.36L498.59 391.56C499.84 390.67 499.43 388.84 498.81 388.74C497 388.36 496.51 390.62 495.28 391.68Z" fill="#4ADFFB"/>
<path id="Vector_39" d="M524.43 305.88L525.74 307.08C525.638 307.433 525.571 307.794 525.54 308.16C525.17 310.48 523.4 312.06 522.39 314.05C517.56 320.67 516.12 328.43 515.8 336.26C515.56 342.09 512.72 347.78 514.8 353.68C517.26 354.1 517.05 350.1 519.64 350.74C520.01 357.74 513.56 360.27 510.47 365C508.86 363.55 509.89 362 510.15 360.58C508.51 363.87 508.62 367.58 508.76 371.15C509.65 369.3 506.96 366.32 510.47 365.01C511.2 371.68 510.4 377.71 503.65 381.25C502.65 379.72 504.65 378.67 504.27 377.25C503.89 378.76 503.48 380.25 501.39 380.25L500.87 379.8C499.17 375.02 500.77 370.1 502.82 366.45C508.66 356.08 507.82 344.8 508.82 333.78C509.82 322.46 513.69 312.9 522.61 305.63C522.908 305.503 523.234 305.46 523.555 305.504C523.875 305.548 524.178 305.678 524.43 305.88V305.88Z" fill="#38D6FC"/>
<path id="Vector_40" d="M485 175.89L486.21 177.29C486.359 177.462 486.471 177.662 486.539 177.878C486.608 178.095 486.631 178.323 486.607 178.549C486.584 178.775 486.514 178.994 486.403 179.192C486.292 179.39 486.141 179.563 485.96 179.7C473.18 176.2 460.24 173.32 447.31 170.42C445.02 169.91 442.67 169.04 441.49 166.96C438.28 161.31 433.14 157.46 428.9 152.77C428.52 149.6 428.51 146.48 430.03 143.54C430.249 143.307 430.531 143.143 430.842 143.069C431.153 142.994 431.479 143.012 431.78 143.12C430.59 152.12 439.65 155.12 442.78 161.56C444.98 166.18 448.53 167.65 453.66 166.56C455.49 166.16 457.22 168.48 459.49 168.96C468.11 170.78 476.91 172.14 485 175.89Z" fill="#40D2F4"/>
<path id="Vector_41" d="M411.8 449.68C409.38 451.75 411.87 454.89 409.6 458.19V448.37C417.28 442.81 422.8 435.19 429.15 428.37C431.9 425.37 436.89 424.5 440.86 422.65C442.5 420.6 444.86 419.37 446.71 417.56C447.64 416.65 448.51 415.56 450.06 415.98C450.53 416.88 451 417.78 451.46 418.69C448.46 422.69 443.46 423.69 439.72 426.53C435.09 427.42 430.57 429.3 428.42 433.4C424.56 440.71 418.27 445.19 411.8 449.68Z" fill="#54D8F6"/>
<path id="Vector_42" d="M162.39 491.31C165.24 489.36 162.16 484.78 165.96 483.25C165.18 487.25 164.96 491.43 162.57 494.97L162.39 491.31Z" fill="#5DCDED"/>
<path id="Vector_43" d="M119.84 83.25C121.19 83.02 122.01 82.3 121.5 80.89C121.07 79.71 119.91 79.89 119.03 80.17C114.59 81.39 110.2 82.77 105.74 83.92C103.45 84.52 102.8 86.39 102.3 88.14C100.48 94.58 96.3 99.82 92.05 104.35C88.77 107.81 83.11 109.05 78.44 111.12C76.8414 111.681 75.1991 112.109 73.53 112.4C72.35 112.54 70.71 113.47 71.02 110.97C74.95 108.97 78.88 107.03 82.82 105.08C92.52 100.26 99.07 92.92 101.29 82.08C105.03 81.23 108.76 80.35 112.51 79.54C115.89 78.82 118.34 77.38 119.4 73.64C120.46 69.9 123.92 68.04 126.54 65.54C126.54 65.73 126.62 65.99 126.54 66.1C122.26 70.86 121.92 76.44 123.13 82.35C123.83 85.44 122.13 85.35 119.97 84.77C119.834 84.7004 119.719 84.5974 119.634 84.4707C119.549 84.3441 119.497 84.1979 119.484 84.046C119.471 83.894 119.497 83.7413 119.559 83.602C119.621 83.4628 119.718 83.3417 119.84 83.25Z" fill="#8CF7FE"/>
<path id="Vector_44" d="M71 111C71.39 112.27 72.5 112.26 73.51 112.43L67.22 115.56C64.6 119.36 59.61 118.69 56.37 121.32C49.6 122.71 46.37 127.47 43.74 133.44C41.37 138.83 38.24 143.99 32.63 146.9C30.7 148.2 32.07 150.3 31.41 151.9C31.2602 152.034 31.0706 152.116 30.8702 152.132C30.6697 152.148 30.4694 152.098 30.3 151.99C29.7939 150.049 29.8114 148.008 30.3507 146.076C30.89 144.143 31.9318 142.389 33.37 140.99C37.108 137.102 40.0408 132.515 42 127.49C44 122.33 47.57 119.81 52.42 118.1C58.65 115.88 64.81 113.36 71 111Z" fill="#56E3FE"/>
<path id="Vector_45" d="M29.22 164.45C29.55 164.29 29.88 164.11 30.22 163.93C32.02 165.28 31.99 167.46 32.67 169.34C32.91 171.08 32.93 172.78 31.47 174.09C29.18 176.72 30.84 181.53 26.54 183.09C29 177.08 29.29 170.79 29.22 164.45Z" fill="#56E3FE"/>
<path id="Vector_46" d="M254 45.22C258.7 39.78 265.32 39.3 271.76 38.33C277.07 37.53 282.37 36.7 287.67 35.89L297.03 35C298.7 37.46 300.94 34.61 302.77 35.61C303.111 35.9236 303.352 36.331 303.463 36.7812C303.573 37.2314 303.548 37.7041 303.39 38.14C302.902 38.9107 302.213 39.5333 301.397 39.9405C300.581 40.3476 299.669 40.5238 298.76 40.45C297.919 40.3101 297.137 39.9278 296.51 39.35C289.16 38.41 282.24 41.14 275.08 41.78C270.32 42.89 265.35 43.02 260.77 44.95C259.14 45.52 257.55 46.55 255.77 45.53L254 45.22Z" fill="#49E1FE"/>
</g>
</svg>
