<svg width="260" height="160" viewBox="0 0 260 160" fill="none" xmlns="http://www.w3.org/2000/svg">
<g id="sus" filter="url(#filter0_d_1:712)">
<path id="Vector" d="M106.152 44.9359C109.93 44.4666 109.392 41.1089 110.167 38.6331C111.115 38.3337 111.748 38.8353 112.443 39.4421C113.968 42.193 117.185 40.672 119.185 42.2173C119.414 43.8921 118.078 44.4423 117.043 44.5475C114.024 44.8469 113.882 46.7968 114.19 49.1107C110.459 49.4991 109.495 50.6561 110.238 53.7792C110.475 54.7501 110.902 55.8909 111.898 55.6401C115.178 54.831 119.011 56.5058 121.801 53.4798C124.638 53.0267 126.037 51.4247 126.543 48.423C126.923 46.1009 126.859 43.1235 130.084 42.3872C132.455 45.6236 129.009 48.5686 129.554 51.6755C129.646 51.8069 129.774 51.9072 129.922 51.9634C130.07 52.0196 130.231 52.0293 130.384 51.9911C132.068 51.6432 134.336 49.7418 135.277 51.8455C136.217 53.9491 133.332 54.4831 131.862 55.3083C130.408 56.1667 129.262 57.4797 128.59 59.0544C127.096 59.4671 125.429 59.3699 124.14 60.4218C123.934 60.391 123.737 60.3169 123.56 60.2041C123.383 60.0914 123.231 59.9423 123.113 59.7664C121.722 57.768 119.778 58.5447 118.078 58.9573C115.857 59.4428 113.55 59.2567 111.02 59.8635C111.811 63.0998 112.925 65.9964 113.85 68.9334C114.696 71.6195 116.513 72.5985 119.161 72.1131C120.924 71.7894 122.702 70.8509 124.417 72.2425C123.848 76.0048 120.694 74.8316 118.885 75.6002C121.418 76.0397 123.889 76.7951 126.243 77.8495C129.349 79.1197 131.562 78.9903 132.265 75.0419C132.457 74.272 132.918 73.601 133.562 73.1568C133.763 73.0837 133.977 73.0532 134.19 73.0671C134.403 73.081 134.612 73.139 134.802 73.2377C134.99 73.4807 135.137 73.7542 135.237 74.0468C135.964 76.1342 133.656 78.9013 135.395 80.1392C137.134 81.3771 140.042 80.9483 142.414 81.3771C143.581 81.6909 144.803 81.7269 145.986 81.4823C145.52 80.8188 144.911 80.3496 144.524 79.6942C144.137 79.0388 143.291 78.076 144.002 77.2022C144.895 76.118 145.954 76.8219 146.824 77.4207C148.298 78.5079 149.608 79.811 150.712 81.2881C151.574 82.8254 153.139 83.8367 153.771 85.5439C154.395 88.7802 154.901 91.9761 155.439 95.1963C156.395 100.925 158.829 103.392 164.48 104.388C167.301 105.016 170.166 105.411 173.048 105.569C173.497 105.596 173.935 105.717 174.336 105.925C174.819 106.239 175.182 106.713 175.363 107.269C175.545 107.824 175.534 108.427 175.332 108.975C173.751 110.65 172.605 111.758 170.131 109.582C167.658 107.405 163.856 108.716 160.884 107.527C157.399 106.135 159.991 112.446 157.264 110.585C155.012 109.04 154.016 109.08 152.064 110.925C149.524 113.272 147.75 116.362 146.982 119.776C142.24 119.048 141.244 117.851 141.355 113.231C144.516 112.041 147.796 111.305 149.962 108.182C151.179 106.426 151.353 105.536 149.171 104.946C148.436 104.752 147.725 104.477 147.006 104.242C142.263 102.664 142.263 102.664 141.102 107.341C140.698 107.525 140.25 107.584 139.813 107.511C139.451 107.384 139.13 107.16 138.883 106.86C138.636 106.561 138.474 106.198 138.414 105.811C137.948 102.106 135.561 100.633 132.297 100.002C130.779 99.8366 129.356 99.1691 128.242 98.1009C128.126 97.9127 128.048 97.7029 128.011 97.4835C127.975 97.2641 127.981 97.0395 128.029 96.8226C128.439 96.363 128.986 96.0551 129.585 95.9468C130.184 95.8386 130.801 95.9359 131.341 96.2238C134.605 97.7044 135.798 95.9164 136.486 93.1008C136.702 93.0218 136.933 92.9909 137.162 93.0101C137.391 93.0293 137.614 93.0982 137.815 93.2123C138.016 93.3263 138.191 93.4828 138.328 93.6715C138.466 93.8601 138.562 94.0765 138.612 94.3063C140.501 99.6624 145.456 99.9052 149.677 101.329C151.937 102.098 152.838 100.949 152.42 98.6835C151.858 95.9649 151.851 93.125 150.839 90.5926C148.713 89.7835 147.235 93.7399 145.599 91.5473C144.168 89.6379 147.266 88.2543 147.527 85.8271C142.951 85.4873 138.549 83.238 133.901 85.5358C131.072 85.6733 129.807 82.7283 127.334 82.0486C125.049 81.4256 122.971 80.2444 120.489 80.0826C118.331 79.9369 117.746 81.0292 117.328 82.6878C116.11 83.2137 115.747 82.3318 115.32 81.4742C116.237 84.1685 114.87 87.3158 117.035 90.1395C118.213 87.5019 115.454 85.2284 116.972 82.9386C120.204 82.5665 120.181 85.5277 120.924 87.3401C122.164 90.3418 123.216 91.7658 125.618 88.3029C126.409 87.2187 127.618 85.7623 128.938 86.62C130.519 87.6475 129.27 89.1848 128.464 90.18C127.088 91.871 127.428 94.0069 126.741 95.8436C125.002 97.5184 122.22 95.2206 120.647 97.5346C118.671 98.4407 116.743 99.5006 114.466 99.2903C111.716 96.863 113.795 93.8209 113.115 91.2641C113.115 92.8176 113.115 94.549 113.115 96.2805C113.115 97.7611 112.427 98.2304 111.084 97.5912C108.064 94.46 105.78 90.6978 102.824 87.5019C102.034 86.0293 101.394 84.5406 102.2 82.8496C103.955 81.6926 106.073 81.191 107.567 79.5243C108.27 78.7152 109.44 78.0599 110.428 78.7961C111.637 79.7023 110.696 80.8188 110.08 81.5956C108.452 83.6344 109.701 84.5649 111.479 85.6895C113.85 81.2962 111.21 77.1699 111.289 73.0354C110.799 70.4464 109.803 68.0191 109.076 65.5109C108.207 62.4526 106.958 59.7502 103.836 58.4152C103.046 58.0835 102.176 57.5171 102.738 56.3116C106.974 55.5834 107.298 52.6222 106.808 49.0298C106.571 47.6382 105.535 46.4165 106.152 44.9359Z" fill="#596AD3"/>
<path id="Vector_2" d="M206.14 112.252L199.817 118.344C197.28 119.348 195.629 119.704 195.455 115.707C195.304 112.389 194.064 109.113 193.621 105.714C193.226 102.648 195.336 98.1252 194.411 97.5265C191.297 95.5604 192.53 92.591 191.527 90.2447C191.044 89.1281 191.289 87.7689 191.139 86.531C190.744 83.2946 192.293 82.0972 195.138 82.6797C198.149 83.1694 201.197 83.3699 204.243 83.2784C210.132 83.3512 211.57 84.8966 211.697 91.1104C211.63 91.5452 211.535 91.975 211.412 92.3969C210.108 96.7093 209.626 101.216 208.559 105.577C208.203 107.041 208.496 109.153 206.978 109.703C205.081 110.383 204.417 107.972 203.184 107.276C202.623 106.734 202.71 107.867 202.947 107.276C202.947 107.179 203.161 107.203 203.319 107.446C204.283 109.032 206.891 109.59 206.14 112.252Z" fill="#181922"/>
<path id="Vector_3" d="M230.017 94.9374C226.627 96.8711 223.402 99.1042 219.743 100.407C215.838 101.054 215.712 97.8016 214.763 95.3743C214.613 94.9779 214.486 94.5726 214.384 94.1607C214.17 93.4163 214.091 92.6396 213.918 91.8871C213.483 90.0586 212.969 88.0844 214.708 86.7575C216.447 85.4306 217.767 87.2592 219.26 87.7608C219.814 87.9469 220.256 88.4242 220.881 88.4404C220.717 88.4391 220.559 88.3757 220.438 88.2624C218.668 86.9517 215.151 87.0084 215.222 84.5406C215.309 81.5308 218.826 82.0082 220.968 81.191C221.956 80.8107 222.975 80.5114 223.971 80.1149C224.399 79.9483 224.837 79.8104 225.283 79.7023C228.049 79.2573 230.816 77.7929 233.566 79.7023C238.198 80.8188 241.406 83.8853 244.291 88.044L232.531 93.7642C229.211 91.0295 232.491 87.3643 231.353 84.8076C231.337 87.955 231.266 91.515 230.017 94.9374Z" fill="#18122A"/>
<path id="Vector_4" d="M175.115 138.432L177.124 141.493L176.778 141.893C173.646 142.456 172.27 140.658 170.253 139.734C168.792 139.069 167.897 137.981 166.42 137.31C165.452 137.017 164.616 136.56 163.994 135.984C163.372 135.409 162.986 134.735 162.874 134.029C162.587 132.254 161.245 130.771 160.021 129.249C159.928 128.29 160.147 127.329 160.662 126.431C161.844 124.672 161.836 122.592 163.887 121.059C165.869 119.78 168.36 118.909 171.063 118.551C174.913 118.094 178.458 116.516 182.595 117.147C184.047 120.58 181.295 123.381 179.091 126.121C177.876 127.632 175.715 126.6 174.136 125.755C175.495 126.617 175.368 127.688 175.149 128.77C173.097 129.475 172.144 132.243 168.623 130.32C168.454 130.23 167.146 130.681 167.129 130.884C167.087 131.364 167.267 131.841 167.644 132.25C168.022 132.66 168.579 132.982 169.239 133.173C170.708 134.401 172.81 135.343 173.173 137.068L175.115 138.432Z" fill="#1D1741"/>
<path id="Vector_5" d="M233.519 71.1098C233.653 72.2587 233.835 73.4076 232.728 74.2086C232.033 79.1198 227.986 79.6214 224.453 80.7946H224.524C222.153 81.7169 219.703 82.0729 217.3 82.7768C213.349 83.9257 212.914 83.4322 213.443 79.233C213.538 78.4725 213.554 77.7119 213.704 76.9595C214.012 75.9239 214.36 74.8882 214.574 73.8445C215.546 69.079 218.051 66.1258 223.054 65.8022C223.758 65.7537 224.477 65.3815 225.236 65.3167C227.757 65.0902 230.484 62.8895 232.57 64.2083C234.657 65.5271 232.373 68.8444 233.519 71.1098Z" fill="#171D1D"/>
<path id="Vector_6" d="M168.503 30.1377C169.341 29.6846 167.618 25.4369 171.033 28.5761C173.625 30.9629 176.668 27.2169 179.608 28.2606C180.912 29.5875 181.979 28.7056 183.117 27.7509C181.853 27.6052 180.896 29.5389 179.584 28.2687C179.474 26.157 180.201 23.9239 182.406 24.6925C185.093 25.6391 186.603 23.6488 188.729 23.309C190.981 24.0695 191.321 26.5453 190.254 27.4839C186.864 30.4613 189.393 31.7154 191.313 33.3578C191.695 33.6007 192.019 33.9295 192.258 34.3192C192.498 34.7089 192.648 35.1493 192.696 35.6071C192.606 35.9258 192.442 36.2174 192.217 36.4569C191.993 36.6964 191.715 36.8768 191.408 36.9825C189.543 37.023 188.413 35.5909 187.045 34.6605C183.212 32.039 181.789 32.3222 179.529 36.6023C178.233 39.2534 176.522 41.6695 174.463 43.7546C170.93 45.6964 170.385 42.2092 168.828 40.5182C167.792 38.6573 166.923 36.7155 166.061 34.7656C164.797 32.0309 165.65 30.5503 168.503 30.1377Z" fill="#23283A"/>
<path id="Vector_7" d="M214.431 77.0485C213.981 78.3916 216.399 79.5971 214.431 81.1991C213.775 81.7412 214.502 82.5746 216.091 82.3885C218.929 82.0567 221.537 80.4952 224.485 80.7703C221.987 82.9225 218.399 82.259 215.68 84.4274C217.545 87.0731 221.047 87.3886 223.584 89.9372C221.142 89.9372 219.774 88.5133 218.138 87.8983C217.174 87.5343 216.123 86.5795 215.206 87.3239C214.289 88.0682 214.202 89.6136 214.684 90.7868C215.238 92.0693 215.445 93.4802 215.285 94.8727C212.171 94.4843 213.349 91.1671 211.886 89.6622C211.886 89.0311 211.665 89.5327 211.76 89.6622C212.511 90.8758 212.55 91.9519 210.709 92.0894C210.432 90.4712 211.325 88.6103 210.179 87.1944C209.4 86.1601 208.367 85.3555 207.186 84.8623C206.005 84.3692 204.717 84.2052 203.453 84.3869C200.466 84.6539 197.391 84.0956 194.388 83.6992C192.309 83.4322 191.677 83.9015 192.222 86.1264C192.847 88.3631 193.166 90.6775 193.171 93.0037C193.052 97.0491 194.649 96.9601 197.66 94.8484C196.079 97.0087 193.708 98.6835 196.585 101.03C190.831 102.227 196.348 105.739 195.313 108.142C194.899 109.235 194.839 110.435 195.142 111.565C195.445 112.696 196.095 113.697 196.996 114.42C197.304 114.679 197.597 114.744 197.494 115.407C197.035 118.158 197.107 118.174 199.865 118.369C199.685 118.565 199.569 118.814 199.533 119.081C199.162 122.244 197.367 123.296 194.506 122.414C191.408 121.459 188.081 120.925 185.812 118.142C185.766 117.924 185.783 117.696 185.862 117.487C185.94 117.279 186.077 117.098 186.255 116.969C186.816 116.74 187.414 116.622 188.017 116.621C189.922 116.508 192.048 118.919 193.439 117.203C194.601 115.771 193.368 113.279 192.981 111.362C192.238 107.689 193.914 103.044 189.156 100.771C188.104 100.261 188.887 99.0799 189.472 98.3922C192.301 95.0911 190.262 91.5473 189.914 88.133C189.74 86.3692 187.891 86.5553 186.642 86.1345C186.249 85.9574 185.934 85.6375 185.757 85.2364C187.077 82.2266 189.962 81.0211 192.38 79.2816C192.981 78.8447 193.756 78.4725 194.388 79.2816C197.857 83.6587 202.884 81.0858 207.113 82.1053C209.262 82.6312 207.856 79.678 208.535 78.4806C210.116 77.2184 212.89 80.2039 213.847 76.8624L214.431 77.0485Z" fill="#5A7186"/>
<path id="Vector_8" d="M191.463 36.667L192.364 35.4938C193.044 29.8316 194.268 24.2516 196.016 18.8347C199.272 15.0968 203.817 16.7554 207.753 15.8411C211.072 15.0725 216.281 16.1243 214.542 9.15805C215.53 11.9979 214.653 14.9997 217.079 16.901C215.403 18.3169 213.467 18.0337 211.491 17.9771C207.674 17.8638 203.951 18.3816 200.687 20.6956C200.335 20.9151 199.961 21.0968 199.572 21.2377C199.161 21.4319 198.592 21.7151 198.608 22.1196C198.735 27.2169 196.126 31.7639 195.818 36.7641C195.756 37.194 195.645 37.615 195.486 38.0182C194.072 43.3177 190.167 47.6139 189.661 53.2694C189.804 53.6173 189.906 53.9814 190.017 54.3455C190.099 54.7005 190.133 55.0652 190.12 55.4297C190.056 56.1581 190.08 56.8918 190.191 57.6143C191.511 59.5075 193.74 59.8473 195.502 60.9558C196.893 61.8296 198.561 62.3555 199.067 64.2326C199.065 64.447 199.004 64.6566 198.893 64.8381C198.781 65.0195 198.622 65.1656 198.434 65.2601C196.935 65.3705 195.43 65.1718 194.007 64.6756C192.584 64.1795 191.273 63.396 190.151 62.3717C187.78 60.1952 185.955 60.2519 185.101 63.9413C184.785 65.3086 184.982 67.8007 182.208 66.7165C180.469 64.2892 183.41 61.3522 181.307 58.9897C186.294 54.0543 187.401 47.177 190.333 40.8662C185.591 41.6024 182.066 45.0006 177.498 44.8064C177.103 44.6384 176.781 44.3312 176.589 43.9407C180.011 39.2884 185.536 39.0052 190.27 37.0796C190.649 36.9259 191.139 37.0715 191.463 36.667Z" fill="#566D83"/>
<path id="Vector_9" d="M169.8 40.1461C171.309 41.036 170.867 44.8145 174.091 43.1882C174.589 43.0948 175.102 43.1376 175.578 43.3124C176.054 43.4871 176.476 43.7876 176.802 44.1834V44.1834C175.356 49.1754 170.748 52.0234 168.717 56.6433C168.631 56.818 168.508 56.971 168.357 57.0918C168.207 57.2125 168.032 57.2979 167.846 57.3419C167.66 57.3859 167.467 57.3874 167.28 57.3464C167.093 57.3054 166.917 57.2228 166.765 57.1045C166.101 56.5705 166.196 55.7129 166.401 54.9523C167.002 52.7112 168.377 50.8017 169.238 48.4796C163.651 47.4926 158.245 49.0945 152.862 48.3178C151.479 48.1155 151.866 49.5476 151.598 50.3325C151.519 50.5341 151.394 50.7132 151.233 50.8541C151.072 50.9951 150.88 51.0938 150.673 51.1415C149.456 51.2791 148.302 48.5929 147.029 51.0283C146.097 51.0768 145.567 50.4457 144.998 49.8632C144.586 49.4274 144.198 48.9682 143.836 48.4877C143.614 48.1534 143.513 47.7496 143.552 47.3469C143.971 46.1818 144.943 45.4051 145.536 44.3614C146.721 42.015 146.911 39.4098 147.464 36.8935C147.851 35.1054 147.511 33.8918 145.559 33.5763C146.286 30.4694 141.608 33.1151 142.137 30.2105C146.35 30.2105 150.776 30.9629 154.727 29.8949C158.055 28.9888 160.347 30.4127 163.066 31.0843C162.916 31.2461 162.773 31.4079 162.631 31.5778C161.68 32.0625 160.626 32.2987 159.564 32.2655C153.415 32.7267 151.724 33.9727 151.005 39.9114C150.894 40.8419 152.839 43.7465 155.075 43.884C158.837 44.1187 162.639 43.884 166.417 43.9811C168.559 44.0377 168.954 42.8241 168.938 41.0765C168.99 40.8582 169.097 40.6576 169.248 40.4944C169.4 40.3313 169.59 40.2112 169.8 40.1461V40.1461Z" fill="#5B6886"/>
<path id="Vector_10" d="M235.977 75.0986C237.644 62.226 238.221 61.9024 250.527 68.2456C251.57 68.7796 253.206 68.9495 253.325 70.3007C253.451 71.8218 251.744 71.9836 250.701 72.4529C246.544 74.3866 242.315 76.1585 238.15 78.0517C236.127 78.9984 235.265 78.6181 235.977 75.0986Z" fill="#1E2729"/>
<path id="Vector_11" d="M142.129 30.17C142.319 30.5133 142.617 30.7804 142.975 30.9274C143.332 31.0745 143.728 31.0927 144.097 30.9791C146.389 30.3804 145.338 32.2008 145.622 33.0585C142.801 37.5893 137.901 37.7431 133.562 39.0862C130.74 38.7625 130.226 36.7155 130.337 34.1912C130.06 33.7057 129.452 34.5796 129.997 34.2964C131.404 37.9292 129.523 38.7706 126.48 38.6493C126.017 38.6056 125.559 38.5162 125.113 38.3823C122.41 37.3628 119.106 38.0101 116.996 35.332C117.32 33.5277 118.576 33.2365 120.062 33.4064C121.887 33.5069 123.698 33.0203 125.239 32.0147C130.511 27.945 136.518 30.9953 142.129 30.17Z" fill="#281B4F"/>
<path id="Vector_12" d="M185.978 117.349C188.152 119.59 191.305 119.776 193.882 121.249C196.253 122.616 198.158 121.249 199.501 119.056C199.897 119.995 201.944 120.1 200.727 121.904C199.754 123.344 198.695 125.383 196.996 124.728C191.708 122.673 188.563 126.832 184.65 128.701C183.014 129.51 181.584 130.707 179.624 130.513C177.118 130.4 178.209 128.66 178.533 127.6C179.426 124.704 180.501 121.856 181.299 118.927C182.153 115.844 183.607 115.205 185.978 117.349Z" fill="#1B1434"/>
<path id="Vector_13" d="M199.802 20.6552C202.789 15.8977 207.919 17.168 212.123 16.7311C213.341 16.6016 215.569 15.1938 217.079 16.901C218.225 19.3283 221.821 18.7538 222.612 21.6422C218.62 25.809 206.765 27.8803 202.853 24.9919C201.469 23.9239 200.007 22.7183 199.802 20.6552Z" fill="#1C1A30"/>
<path id="Vector_14" d="M106.152 44.9358C109.416 48.0994 107.646 52.1448 107.906 55.81C108.009 57.2582 107.053 56.9427 106.081 56.7161C104.902 56.5155 103.711 56.3966 102.516 56.3601L101.86 56.4572C97.4421 55.9556 93.3164 54.3941 89.167 52.8892C88.1553 52.4684 86.7406 52.4765 86.9856 50.737L106.152 44.9358Z" fill="#1B213F"/>
<path id="Vector_15" d="M233.519 71.1098C233.402 71.0109 233.292 70.9055 233.187 70.7942C231.669 69.0304 234.815 65.4057 231.163 64.718C227.03 63.9089 218.122 68.0191 216.874 70.6971C215.917 72.7684 216.02 75.2523 214.423 77.0485L214.313 76.9675C213.19 75.8025 213.301 74.3623 213.767 73.0597C215.032 69.4673 213.356 68.6582 210.29 68.8605C208.488 68.9738 206.662 68.7958 204.963 69.613C204.106 69.8919 203.275 70.2493 202.481 70.681C199.873 72.4609 199.075 70.9075 198.664 68.5692C200.371 67.3961 198.3 66.053 198.806 64.8232V64.7827C201.683 64.1759 203.295 62.3555 204.125 59.4913C204.686 57.5009 205.311 55.3488 207.405 54.2808C207.615 54.2749 207.823 54.3284 208.006 54.4354C208.189 54.5424 208.339 54.6989 208.44 54.8876C209.231 57.2016 207.84 59.0625 207.16 61.0528C205.73 65.2601 205.816 65.4543 210.203 65.5109C211.352 65.6741 212.524 65.5176 213.594 65.0578C213.356 61.5626 210.219 59.0059 210.148 55.4054C210.236 54.9762 210.461 54.5892 210.788 54.305C214.273 54.9119 214.55 58.2858 215.743 60.6887C216.937 63.0917 218.114 63.0108 219.869 61.781C220.077 61.7373 220.292 61.7518 220.492 61.823C220.693 61.8942 220.871 62.0195 221.007 62.1856C220.541 63.2778 220.074 64.3782 219.237 66.3685C223.702 63.7875 229.053 65.9397 231.977 61.0528C232.586 60.0334 232.95 61.0933 233.218 61.336C234.23 62.2503 235.487 63.3264 234.514 64.8394C233.258 66.8378 233.7 68.9981 233.519 71.1098Z" fill="#5A7186"/>
<path id="Vector_16" d="M199.802 20.6552C207.081 29.1182 214.921 23.762 222.635 21.6422C223.702 22.9772 223.908 24.2961 222.635 25.6068C217.843 25.4752 213.078 26.3737 208.646 28.2444C208.417 28.5842 208.187 28.9159 207.974 29.2557C207.387 30.5338 207.176 31.959 207.366 33.3578C207.595 36.0521 208.946 37.2981 211.649 36.6589C212.961 36.3433 214.21 35.6152 215.601 36.0844C215.8 36.1732 215.979 36.3053 216.123 36.4716C216.268 36.6378 216.376 36.8342 216.439 37.0473C214.858 39.9114 212.084 40.6315 209.262 41.2626C207.279 40.7367 206.259 41.8613 205.571 43.5523C205.05 44.1348 203.848 44.8468 203.722 44.5556C202.046 40.6072 196.98 41.2302 195.028 37.7107L195.147 37.5489C197.739 35.3643 200.339 38.2285 202.908 37.6703C203.762 32.2008 202.797 27.322 199.517 23.0015C199.277 22.6935 199.147 22.3112 199.147 21.9173C199.147 21.5234 199.277 21.1412 199.517 20.8332L199.802 20.6552Z" fill="#566E80"/>
<path id="Vector_17" d="M196.016 18.8347C196.149 24.61 194.895 30.3305 192.364 35.4938C190.823 34.2883 189.321 33.018 187.725 31.8853C186.128 30.7526 185.472 29.3205 187.535 28.4871C190.768 27.1845 189.021 25.1861 188.689 23.309L196.016 18.8347Z" fill="#161623"/>
<path id="Vector_18" d="M189.638 57.2016C189.527 56.6271 188.634 56.0932 189.551 55.4621C193.084 53.0834 197.257 52.695 201.209 51.7241C204.805 50.8341 207.342 49.6933 205.563 45.2514C205.395 44.6414 205.465 43.9881 205.761 43.4309C205.927 42.9998 206.228 42.6374 206.617 42.4002C207.006 42.163 207.461 42.0646 207.911 42.1202C209.492 49.1997 214.621 50.5024 220.73 50.5833C223.892 50.5833 224.516 49.5719 223.339 46.7644C222.801 45.6369 222.654 44.3561 222.92 43.1316C223.075 42.7124 223.376 42.3666 223.766 42.1607C225.726 44.774 225.852 48.1965 227.464 50.9474C228.934 53.4312 228.863 55.1465 225.67 55.7048C225.242 55.6339 224.83 55.486 224.453 55.2679C220.011 52.9539 215.396 53.7711 210.788 54.4588L210.717 54.5154C209.826 54.738 208.896 54.738 208.006 54.5154L207.863 54.3941C203.603 54.0866 199.77 56.0527 195.7 56.7647C193.7 57.1369 191.748 58.3667 189.638 57.2016Z" fill="#53707D"/>
<path id="Vector_19" d="M210.717 92.0894C212.052 91.4583 211.254 89.8078 212.21 88.7641C214.487 90.2124 213.459 93.3435 215.293 94.8889V94.8241C215.506 97.4699 217.846 99.8486 216.225 102.729C213.965 105.334 211.697 107.939 208.828 109.889C207.01 108.66 207.563 107.122 208.101 105.407C209.452 101.054 209.816 96.507 210.732 92.0328L210.717 92.0894Z" fill="#17133E"/>
<path id="Vector_20" d="M207.974 28.2201C209.16 25.623 220.809 23.1714 222.612 25.1537C222.683 25.2346 222.612 25.453 222.612 25.6068C222.844 27.0979 222.546 28.6249 221.774 29.9111C220.699 34.9436 220.58 35.0731 215.814 32.5649C213.175 31.1814 210.203 30.3804 207.974 28.2201Z" fill="#171D1E"/>
<path id="Vector_21" d="M86.9776 50.737C87.6099 51.7888 88.748 51.6756 89.7043 51.9992C89.7695 52.3116 89.7478 52.6364 89.6416 52.9367C89.5355 53.2371 89.3491 53.5009 89.1038 53.6983C86.8046 55.0002 84.2228 55.6901 81.5953 55.7048C76.5212 56.5139 72.9013 59.9201 69.076 63.116C69.7952 63.9818 72.0557 63.7876 71.3997 65.9802C67.6613 67.0239 64.7844 66.1744 63.3933 62.1128C63.3107 61.4212 63.4764 60.7224 63.8596 60.1467C71.5577 58.4152 78.2204 54.564 84.2825 49.5476C86.045 48.0913 86.0371 50.4538 86.9776 50.737Z" fill="#5756B3"/>
<path id="Vector_22" d="M185.978 117.349C183.425 116.621 181.679 117.462 181.465 120.262C181.197 123.757 177.403 126.573 179.616 130.513C178.549 133.037 176.454 133.571 174.083 133.579C172.55 131.783 173.427 128.652 170.582 127.568C171.072 127.317 171.372 127.034 171.53 127.107C176.992 130.602 177 130.61 179.023 124.38C179.813 122.058 180.446 119.712 181.157 117.373C180.051 115.472 176.004 114.776 178.786 111.281C181.75 112.624 184.896 113.708 185.994 117.39L185.978 117.349Z" fill="#596E9A"/>
<path id="Vector_23" d="M210.717 92.0085L212.131 93.1331C209.231 96.151 211.096 100.472 209.357 103.805C208.345 105.747 207.539 107.713 208.812 109.865L206.14 112.252C205.097 109.744 203.54 107.77 200.821 107.114C200.598 107.087 200.382 107.01 200.192 106.888C200.001 106.765 199.839 106.601 199.718 106.406C199.597 106.212 199.519 105.992 199.492 105.763C199.464 105.535 199.486 105.302 199.557 105.083C199.601 104.882 199.69 104.693 199.817 104.533C199.945 104.373 200.107 104.246 200.292 104.161C201.177 103.91 201.556 104.711 202.086 105.245C203.453 106.621 204.86 107.948 206.441 109.485C208.148 103.417 208.353 97.4132 210.717 92.0085Z" fill="#5A7186"/>
<path id="Vector_24" d="M125.239 31.9985C123.753 36.3757 119.375 32.4597 117.225 34.9194C116.703 36.0359 116.577 37.3466 115.81 38.3337C115.311 38.9014 114.654 39.2983 113.927 39.4706C113.2 39.6428 112.439 39.582 111.748 39.2965L110.167 38.6331C107.867 36.4728 110.957 35.0164 111.455 34.4015C113.036 32.573 117.083 35.2996 118.134 31.2866C120.205 34.6443 122.892 31.4807 125.239 31.9985Z" fill="#A098CD"/>
<path id="Vector_25" d="M207.974 28.2201C211.333 28.3658 213.989 30.3966 216.668 31.9986C219.648 33.7624 221.015 33.0666 221.758 29.9192C221.371 34.1669 223.189 38.0101 223.75 42.1283L223.505 42.3225C221.031 40.5021 218.549 38.6897 216.21 36.6589C216.763 34.2316 215.008 33.7138 213.507 32.7025C211.554 31.3917 208.401 31.5212 207.974 28.2282V28.2201Z" fill="#566E80"/>
<path id="Vector_26" d="M246.947 87.0407C247.595 84.4678 246.054 81.3771 248.607 79.8318C251.159 78.2864 252.946 80.9726 255.372 82.0648C253.025 84.8724 249.721 85.3417 246.947 87.0407Z" fill="#2E3B42"/>
<path id="Vector_27" d="M218.51 13.5271C222.303 11.7957 227.994 10.5092 231.266 11.2293L220.794 13.697C221.908 16.5126 223.955 17.7425 226.389 18.9561C223.173 19.3525 221.979 18.4625 218.51 13.5271Z" fill="#3E545E"/>
<path id="Vector_28" d="M251.974 54.4912C253.286 55.1465 254.898 55.81 252.456 57.1045C251.745 57.3973 250.964 57.4567 250.219 57.2744C248.741 56.975 246.267 58.4314 245.998 56.1983C245.769 54.4588 246.899 51.7726 248.646 51.1739C250.535 50.5347 251.657 52.5332 251.989 54.5154C251.436 54.9362 250.827 54.4507 250.258 54.6287C250.835 54.6853 251.436 54.9928 251.974 54.4912Z" fill="#384B55"/>
<path id="Vector_29" d="M168.503 30.1376C167.618 31.0438 166.203 31.2946 166.772 33.4306C167.421 35.9145 169.365 37.6541 169.8 40.1461C169.602 40.3241 169.404 40.5021 169.223 40.6962C167.057 41.2788 166.796 39.4017 166.156 38.1233C165.366 36.5861 164.575 35.2592 162.836 34.6038C159.169 33.2365 161.841 32.1766 163.081 31.0276C164.757 30.0244 166.654 30.2266 168.503 30.1376Z" fill="#5B6886"/>
<path id="Vector_30" d="M224.129 1.87626C223.046 3.20316 224.445 6.36669 221.497 6.41524C220.367 6.41524 218.209 5.3877 218.502 4.11743C219 1.94099 221.331 1.06718 223.244 0.274272C224.153 -0.0979079 224.461 0.84872 224.129 1.87626Z" fill="#394D55"/>
<path id="Vector_31" d="M242.884 46.1657C241.691 47.4764 240.205 47.7838 237.723 47.9942C239.628 44.1348 241.138 40.8661 242.821 37.6945C244.307 34.9032 245.682 36.8854 247.216 37.9696C244.623 38.0991 240.3 43.0588 240.719 45.4051C240.774 45.7126 242.031 45.7935 242.726 45.9796L242.884 46.1657Z" fill="#405661"/>
<path id="Vector_32" d="M235.558 25.0162C232.91 25.3317 231.298 28.0421 229.235 26.3188C228.342 25.5825 228.729 22.9449 230.025 22.2733C232.357 21.0193 233.534 23.2604 235.558 25.0162Z" fill="#384B54"/>
<path id="Vector_33" d="M224.437 80.7622C225.718 79.2007 227.844 79.6861 229.393 78.4968C229.654 77.0809 227.812 76.8786 227.583 75.5921C229.417 74.8559 229.891 77.2831 231.385 77.3398C232.436 76.5792 231.337 74.8235 232.712 74.1762C232.712 76.0695 232.262 78.0194 233.55 79.7023L224.437 80.7622Z" fill="#5A7186"/>
<path id="Vector_34" d="M230.017 94.9374C228.437 90.2204 232.388 86.1426 231.116 81.458C232.491 85.5439 230.902 89.8078 232.515 93.7966L230.017 94.9374Z" fill="#5A7186"/>
<path id="Vector_35" d="M242.734 45.9715C246.03 43.253 250.361 43.5442 253.799 41.2869C250.628 43.852 246.857 45.5253 242.861 46.1414L242.734 45.9715Z" fill="#425865"/>
<path id="Vector_36" d="M216.21 102.705C215.901 100.067 215.585 97.4294 215.277 94.7998C216.391 95.4228 215.988 96.7416 216.518 97.6478C217.047 98.554 216.874 99.5087 218.597 97.9957C220.319 96.4827 220.035 99.1123 219.703 100.423C218.431 100.989 217.988 102.907 216.21 102.705Z" fill="#8286B1"/>
<path id="Vector_37" d="M236.561 28.7298C238.537 27.8479 240.047 27.1602 241.564 26.4887C242.45 26.1003 242.956 24.6035 244.26 25.4935C244.394 25.5725 244.509 25.6831 244.593 25.8162C244.678 25.9493 244.731 26.1011 244.747 26.2591C244.763 26.4171 244.742 26.5768 244.687 26.725C244.631 26.8732 244.541 27.0058 244.426 27.1117C243.564 27.7428 243.098 29.4661 241.509 28.5033C239.921 27.5405 238.688 29.369 236.561 28.7298Z" fill="#5E7177"/>
<path id="Vector_38" d="M241.825 52.5817C239.067 55.0737 235.858 51.1011 235.265 55.5025C235.186 56.0931 234.593 55.899 234.348 55.5025C233.902 54.888 233.565 54.1978 233.353 53.4636C233.187 52.6545 233.851 52.5655 234.507 52.5655C236.562 52.5979 238.577 52.5817 241.825 52.5817Z" fill="#455E68"/>
<path id="Vector_39" d="M229.97 31.4079C233.582 28.0097 232.799 33.9889 234.846 33.5196C232.894 33.7624 231.448 32.8724 229.97 31.4079Z" fill="#40565F"/>
<path id="Vector_40" d="M225.67 55.6805C224.5 58.1078 223.173 60.4703 221.031 62.1532L220.691 61.862C220.233 58.2696 221.932 56.1983 225.172 55.2517L225.67 55.6805Z" fill="#526F7A"/>
<path id="Vector_41" d="M181.363 59.2162C182.651 59.4347 184.619 58.7793 183.552 61.5626C182.928 63.1807 181.916 64.7989 182.287 66.7084C182.287 66.9268 182.287 67.1534 182.327 67.3718C181.315 75.1957 175.498 77.6958 169.262 79.7347C166.14 80.3577 163.2 81.5875 160.189 82.5584C156.735 84.0147 153.479 82.9387 150.23 81.7493L144.508 76.8948L143.947 77.5097L149.171 83.327L133.364 81.3367C133.783 78.6262 134.154 75.9239 134.613 73.2458C135.466 69.346 138.62 68.1081 141.726 67.7116C147.006 67.0401 152.309 66.4333 157.612 65.9236C158.529 65.8346 159.564 65.6161 160.292 66.2067C162.702 68.1647 163.698 66.142 164.915 64.629C165.27 64.3795 165.649 64.1681 166.045 63.9979C170.946 62.5011 175.688 60.4865 180.659 59.2081L181.363 59.2162Z" fill="#191033"/>
<path id="Vector_42" d="M185.978 117.39L178.62 111.483C177.875 111.377 177.165 111.09 176.549 110.647C175.933 110.203 175.429 109.617 175.079 108.935C175.459 107.721 174.739 106.977 173.973 106.265C171.112 103.028 171.104 98.91 170.606 94.9859C170.377 93.1736 171.491 92.0894 173.475 92.5587C177.506 94.5814 182.169 94.638 185.172 95.9811C182.39 95.0749 178.43 94.1121 174.439 93.2464C172.179 91.8305 172.858 90.4469 174.755 89.654C178.446 88.0925 181.932 85.9242 186.01 85.4468C190.57 83.9095 191.392 86.2559 191.637 90.3741C191.859 94.0393 193.574 97.7045 188.041 100.383C192.72 100.277 193.526 102.405 193.653 105.658C193.795 109.331 194.68 112.94 195.107 116.637C195.384 119.016 194.467 120.108 192.009 119.113C190.049 118.344 188.191 117.171 185.978 117.39Z" fill="#181129"/>
<path id="Vector_43" d="M81.4846 55.4702C83.6976 53.852 86.6456 54.7258 88.914 53.2533C93.6561 53.2533 98.0111 55.4216 102.587 56.4006L102.508 56.3602C110.562 59.0463 110.467 66.7974 112.506 73.2134C107.985 73.7879 103.409 70.9399 100.92 66.0368C96.5252 65.0821 96.5252 65.0821 90.1944 57.946C91.5447 59.727 93.0557 61.374 94.7074 62.8652C97.2365 65.2925 96.2169 66.3443 93.3716 67.0077C89.5474 68.0161 85.5523 68.1432 81.6743 67.3799C79.7774 66.4899 77.6276 68.5288 75.8019 66.8621C75.8019 62.3474 78.6789 59.2162 80.8998 55.7776L81.4846 55.4702Z" fill="#17144F"/>
<path id="Vector_44" d="M175.063 108.935C176.818 108.935 177.727 110.197 178.604 111.491C177.814 114.194 181.426 114.906 181.149 117.373L170.234 120.108C169.104 119.081 166.417 121.055 166.369 118.166C166.369 116.694 166.306 117.624 166.117 118.118C165.374 120.051 163.279 119.736 161.975 120.755C159.683 121.621 157.288 121.459 155.826 119.558C153.977 117.131 153.297 119.356 152.159 120.051C150.452 120.488 148.784 120.747 147.535 119.024C145.954 117.462 145.954 115.925 147.535 114.307C150.048 111.645 152.507 108.935 155.091 106.127C156.174 107.859 157.043 109.266 157.999 110.787C159.011 108.902 156.767 107.875 157.446 106.119C161.675 106.119 166.14 106.483 170.139 108.101C171.902 108.829 173.119 110.116 175.063 108.935Z" fill="#19134B"/>
<path id="Vector_45" d="M123.793 60.2761C125.113 58.1968 126.749 57.954 128.677 59.3942C130.198 59.9842 131.562 60.9314 132.661 62.1596C133.759 63.3878 134.56 64.8627 135 66.4656C134.742 67.3103 134.198 68.0331 133.467 68.5046C131.032 70.503 128.495 72.2668 125.215 72.3801L124.599 72.2992C121.556 71.2393 118.877 75.4951 115.486 72.8817C114.933 72.4529 113.905 72.5095 113.534 71.3606C112.214 67.1372 110.807 62.938 109.376 58.5528C113.85 58.1159 117.904 57.8084 121.927 57.2906C124.733 56.9346 123.856 58.5609 123.508 59.9929C122.822 61.631 121.918 63.1639 120.821 64.5481C122.196 63.3507 122.425 61.4008 123.793 60.2761Z" fill="#1A1357"/>
<path id="Vector_46" d="M173.088 106.265C168.251 107.341 163.706 105.116 158.98 104.808C156.514 104.646 159.351 102.85 159.019 101.41C155.921 103.926 155.067 102.276 154.862 99.1932C154.593 94.727 152.854 90.447 153.234 85.8918C156.514 84.2736 158.94 87.0084 161.762 87.7123C168.085 89.2819 172.036 92.85 171.989 100.14C171.973 102.122 173.23 104.104 173.088 106.265Z" fill="#180F48"/>
<path id="Vector_47" d="M133.72 85.4953C133.72 83.8205 133.893 82.1619 136.138 82.7525C140.509 83.9176 145.148 83.416 149.479 85.0665C149.479 87.9469 146.112 88.8854 145.749 91.79C148.199 90.9809 149.179 86.9355 150.918 87.866C152.949 88.9259 152.649 92.3888 152.957 94.9536C154.04 104.007 154.174 103.603 145.551 101.426C140.619 100.196 138.557 96.7983 136.446 92.9309L135.964 92.5425C134.916 90.5036 134.149 88.3251 133.688 86.0698C133.696 85.9161 133.712 85.7057 133.72 85.4953Z" fill="#180F59"/>
<path id="Vector_48" d="M134.605 66.7488C133.301 63.739 130.321 62.137 128.693 59.3942C127.499 57.2259 127.847 55.721 130.274 54.7825C132.163 53.9339 134.009 52.9888 135.806 51.9507C132.368 51.7484 130.479 54.0543 127.681 54.2565C127.681 50.0655 130.266 46.4165 130.052 42.2659L130.005 41.6186C130.147 40.2027 130.613 39.0619 132.234 38.9405C132.652 38.9836 133.054 39.1309 133.403 39.3693C137.142 41.6024 141.56 42.2497 145.259 44.596L145.638 45.1058L143.82 47.9457C142.524 48.9247 140.604 48.2208 139.466 49.6286C140.754 48.6496 142.477 48.8195 143.813 47.9295C144.421 48.1237 145.393 47.8 145.314 48.9975C145.425 50.2758 145.433 51.6998 144.579 52.5817C140.627 56.6676 138.383 61.7568 136.486 67.0482C135.767 67.4366 134.96 68.5207 134.605 66.7488Z" fill="#171030"/>
<path id="Vector_49" d="M117.256 82.6878C116.822 80.9483 116.395 79.2087 115.936 77.3478C122.093 79.6537 129.175 79.6457 133.72 85.4953V85.4306C134.881 87.8579 135.3 90.6088 136.51 93.0037L136.462 92.9632C136.56 93.8698 136.724 94.7677 136.952 95.6494C137.956 98.6106 136.778 98.8857 134.344 98.0766C132.352 97.4213 130.274 97.0491 128.234 96.5475C128.22 96.6368 128.187 96.7219 128.139 96.7975C128.09 96.873 128.026 96.9373 127.952 96.9861C127.877 97.0349 127.794 97.0671 127.706 97.0808C127.619 97.0944 127.529 97.0891 127.444 97.0653C127.181 96.9565 126.955 96.7714 126.794 96.5328C126.632 96.2942 126.542 96.0124 126.535 95.7222C124.338 91.9357 127.903 89.8968 129.436 86.5714C128.056 86.9308 126.869 87.8318 126.132 89.0796C122.631 93.6833 122.623 93.6833 120.141 88.2058C119.272 86.2883 118.861 84.1199 117.241 82.6069L117.256 82.6878Z" fill="#1B1768"/>
<path id="Vector_50" d="M101.607 64.7909C103.251 70.3007 108.207 71.3121 112.506 73.2134C111.392 75.9158 114.087 78.0032 113.597 80.7379C113.226 82.9953 113.486 85.3659 112.095 87.4938C109.914 87.2025 109.4 84.0795 106.452 84.4031L110.878 79.0388C107.416 79.5728 106.183 83.9743 102.611 82.6231C100.896 82.0891 100.69 80.6004 100.469 79.1198C100.572 76.2718 98.9832 73.8122 98.6591 71.0289C98.5011 69.2085 98.0742 67.3476 99.3151 65.7051C100.003 65.2197 100.548 64.3539 101.607 64.7909Z" fill="#22206E"/>
<path id="Vector_51" d="M130.044 42.2659C128.525 44.5889 127.556 47.243 127.215 50.0169C126.796 53.4394 125.437 55.3569 121.769 53.5284L121.145 53.4636C118.906 52.3423 116.788 50.9866 114.822 49.4182C114.719 49.2321 114.617 49.046 114.506 48.8599C114.206 47.0395 111.969 47.2418 111.344 45.6236C113.534 43.4552 117.122 44.5475 119.248 42.2092C120.766 39.1671 123.919 40.5182 126.187 39.4826C128.211 39.3855 131.372 37.6541 130.084 42.3144L130.044 42.2659Z" fill="#19143E"/>
<path id="Vector_52" d="M142.121 112.624C141.705 110.828 141.283 109.026 140.857 107.219C140.659 106.176 140.414 105.132 140.256 104.072C139.956 102.074 140.659 101.014 142.753 101.645C145.947 102.556 149.108 103.519 152.238 104.533C153.724 105.01 153.621 105.884 152.625 106.896C150.606 108.778 148.687 110.771 146.879 112.867C145.045 115.197 143.71 112.608 142.121 112.624Z" fill="#1C135E"/>
<path id="Vector_53" d="M133.814 73.2862C131.704 80.9887 131.696 80.9968 124.401 78.4563C121.88 77.5744 119.382 76.652 116.83 75.7297C119.256 73.9901 122.457 74.4756 124.567 72.2991L124.52 72.3639C127.16 71.5548 129.902 70.9561 132.297 69.4431C136.889 69.0304 134.644 71.4496 133.814 73.2862Z" fill="#150E45"/>
<path id="Vector_54" d="M173.088 106.265C173.143 92.6477 163.603 88.8612 153.234 85.8918C152.601 84.2251 149.946 84.1037 150.23 81.7493C153.558 80.7379 156.925 82.8982 160.244 81.6117L160.481 82.2185C159.177 83.772 157.509 85.3416 161.034 86.264C162.207 86.6046 163.341 87.0711 164.417 87.6556C167.65 89.2738 170.432 89.7916 172.084 85.4306C172.526 84.2655 173.427 82.8254 175.245 83.7154C176.036 85.5843 175 87.0003 174.139 88.5699C176.146 87.7608 178.012 86.7494 180.027 86.1426C182.042 85.5358 183.813 83.772 185.994 85.4873C183.038 88.044 179.237 88.7236 175.854 90.3418C174.818 90.8353 172.922 90.9082 174.028 93.0118V92.9551C172.028 92.9551 170.938 93.392 171.657 95.9568C172.637 99.3226 173.159 102.826 173.886 106.273H173.451L173.088 106.265Z" fill="#5D689B"/>
<path id="Vector_55" d="M121.769 53.5283C122.56 55.009 123.35 56.3925 120.56 56.3359C118.137 56.166 115.704 56.3954 113.352 57.0155C109.977 58.0592 108.871 56.7485 108.95 53.14C109.084 46.8695 108.871 46.8615 114.482 48.8923L114.419 48.8518C116.861 50.47 119.335 52.0315 121.817 53.5931L121.769 53.5283Z" fill="#13103F"/>
<path id="Vector_56" d="M133.625 106.062L135.285 103.635C134.162 102.996 133.704 104.29 132.858 104.299C130.376 104.177 128.582 102.68 127.041 100.949C125.658 99.3955 125.879 99.0233 128.227 97.7854C128.927 98.0635 129.656 98.2563 130.4 98.3598C136.083 98.4974 139.56 101.175 140.272 107.138C140.272 108.7 140.224 110.27 140.208 111.831C140.066 113.571 138.952 112.826 138.454 112.341C136.565 110.488 134.202 108.975 133.625 106.062Z" fill="#312F83"/>
<path id="Vector_57" d="M133.814 73.2863C132.621 72.5985 136.557 69.9366 132.7 70.2765C132.404 69.9369 132.24 69.4977 132.24 69.0426C132.24 68.5875 132.404 68.1482 132.7 67.8087L134.581 66.7488C134.929 67.4851 135.253 67.5579 135.545 66.7488C142.232 66.5717 148.9 65.931 155.502 64.8313C157.004 64.5966 158.576 64.5724 159.659 63.2131C162.03 62.4849 164.33 62.0318 165.824 64.8313C163.832 66.2472 165.453 67.2585 166.614 68.3103C164.631 68.812 162.797 65.5918 161.343 68.7473C160.963 69.5564 160.307 69.1114 160.489 68.278C161.098 65.5676 159.059 66.8297 158.292 66.8944C152.696 67.388 147.108 68.0029 141.536 68.6663C139.379 68.9253 136.794 69.1195 139.956 73.796C137.371 71.7571 135.561 69.6373 134.66 73.2296C134.377 73.2311 134.095 73.25 133.814 73.2863V73.2863Z" fill="#5C6A92"/>
<path id="Vector_58" d="M125.421 40.8823C123.287 41.028 121.161 41.206 119.209 42.2335C116.363 42.2335 112.743 44.24 111.748 39.2965C112.72 38.002 114.854 39.6768 115.565 37.7188C116.118 35.866 117.715 35.8498 118.908 36.3191C121.066 37.1767 123.39 36.7964 125.5 37.6379H125.429C126.148 38.5198 127.515 37.735 128.25 38.7706C128.203 40.7124 125.682 39.2884 125.421 40.8823Z" fill="#190F43"/>
<path id="Vector_59" d="M103.986 87.3562C106.774 89.8449 109.085 92.8439 110.799 96.1995C110.95 96.6074 111.059 97.0305 111.123 97.4617C108.649 99.0799 105.796 96.4746 103.33 98.1899C102.73 98.1414 101.615 97.9876 101.67 97.7449C102.619 94.0636 100.09 90.4631 101.425 86.8303C102.398 86.4258 103.188 86.8951 103.986 87.3562Z" fill="#809FF7"/>
<path id="Vector_60" d="M128.227 97.753C125.974 98.6834 126.93 99.7514 128.155 100.722C129.689 101.952 131.317 103.093 132.898 104.266C130.772 107.648 128.329 108.223 125.484 105.132L125.547 105.18C124.86 103.659 124.686 101.993 124.172 100.415C122.757 96.1025 122.907 95.9973 127.713 96.7012C127.738 96.654 127.773 96.6124 127.814 96.579C127.856 96.5456 127.903 96.521 127.954 96.5067C128.005 96.4924 128.058 96.4886 128.11 96.4956C128.162 96.5026 128.213 96.5202 128.258 96.5475C128.227 96.9439 128.227 97.3727 128.227 97.753Z" fill="#536FC9"/>
<path id="Vector_61" d="M117.217 82.6312C116.877 84.6377 118.236 86.1183 118.75 87.8579C119.185 89.3223 118.908 90.981 117.422 91.2803C117.079 91.3244 116.731 91.2911 116.402 91.1827C116.072 91.0744 115.77 90.8936 115.516 90.6531C115.263 90.4125 115.063 90.1181 114.932 89.7904C114.802 89.4626 114.742 89.1096 114.759 88.756C114.672 85.7543 114.759 82.7445 114.759 79.6537C116.221 80.2606 115.818 82.2833 117.296 82.6878L117.217 82.6312Z" fill="#191563"/>
<path id="Vector_62" d="M103.986 87.3562L100.667 87.3077C100.548 87.154 100.422 87.0083 100.295 86.8546C100.165 86.478 100.101 86.0808 100.105 85.6814C100.124 85.2827 100.166 84.8855 100.232 84.4921C100.651 82.6554 98.3666 80.1149 101.568 78.9822L102.611 82.6231C101.955 84.5406 103.536 85.7785 103.986 87.3562Z" fill="#F7FDFE"/>
<path id="Vector_63" d="M147.472 120.302C149.234 119.93 151.21 120.739 152.767 119.299C152.443 118.199 152.341 116.872 153.36 116.378C154.38 115.885 155.32 116.532 155.731 117.746C156.925 120.909 159.683 119.784 161.959 120.1C162.487 120.428 162.941 120.865 163.294 121.383C163.646 121.902 163.889 122.49 164.006 123.11C162.686 125.44 163.05 128.393 161.343 130.586C160.292 130.481 160.552 132.204 159.446 132.018C158.988 132.018 158.331 132.018 158.173 131.678C156.142 127.406 151.621 126.095 148.531 123.102C147.804 122.357 147.037 121.564 147.472 120.302Z" fill="#374290"/>
<path id="Vector_64" d="M160.505 134.34C162.489 135.327 162.829 137.123 163.161 139.194C163.532 141.452 163.532 144.284 166.773 144.704C166.899 145.983 165.982 146.209 165.089 146.533C161.88 147.204 158.648 146.274 155.431 146.703C155.292 147.08 155.058 147.413 154.751 147.666C153.076 147.957 151.858 147.099 150.704 146.047C149.029 144.308 149.63 141.792 148.65 139.68C147.606 137.439 148.871 135.125 152.175 135.918C153.107 136.8 153.076 138.199 153.755 139.154C154.546 140.262 154.261 138.628 154.688 138.636C156.993 137.812 159.014 136.319 160.505 134.34V134.34Z" fill="#3A9AEA"/>
<path id="Vector_65" d="M164.046 123.11C161.975 123.11 162.354 121.338 161.999 120.1C163.983 118.401 166.607 117.519 168.322 114.784C165.824 118.158 167.745 119.267 170.242 120.108C167.681 120.051 166.29 122.511 164.046 123.11Z" fill="#87D1E9"/>
<path id="Vector_66" d="M160.505 134.34C160.3 137.851 157.802 138.677 155.059 139.194C153.028 138.256 152.902 136.905 154.269 135.23C157.826 136.662 158.308 132.859 160.252 131.532C160.639 131.209 159.96 129.542 161.414 130.57L160.505 134.34Z" fill="#DAEEF9"/>
<path id="Vector_67" d="M176.802 44.1834C175.854 43.973 174.645 44.5151 174.091 43.1882C175.791 40.2593 177.885 37.6055 179.395 34.5148C181.039 31.1652 183.552 30.2267 186.682 33.0828C188.199 34.3628 189.782 35.5593 191.424 36.667C188.61 39.4503 184.65 39.7577 181.386 41.5215C179.869 42.4034 177.909 42.5086 176.802 44.1834Z" fill="#161623"/>
<path id="Vector_68" d="M179.584 28.2687C180.177 28.3253 180.881 28.479 181.086 27.7104C181.112 27.3968 181.227 27.0978 181.416 26.8499C181.605 26.6019 181.861 26.4159 182.152 26.3146C182.443 26.2133 182.757 26.2011 183.055 26.2794C183.352 26.3577 183.621 26.5233 183.829 26.7557C184.279 27.1279 183.734 28.7541 183.631 29.8221C182.667 28.4305 181.181 31.4403 180.28 29.4014C180.082 29.0058 179.857 28.6247 179.608 28.2606L179.584 28.2687Z" fill="#CDD1E4"/>
<path id="Vector_69" d="M185.978 85.4387C181.299 85.8999 177.474 89.1281 172.613 90.0909C173.514 87.6151 174.289 85.5196 175.056 83.416C174.384 81.6684 175.506 80.4871 176.32 79.2087C179.403 75.495 183.591 73.6179 187.899 71.927C188.278 71.7349 188.669 71.5674 189.069 71.4253C192.127 70.6162 195.028 69.2246 198.134 68.5369L198.774 68.5855L204.307 69.524L204.852 69.8638C206.575 72.1131 207.61 74.7183 208.804 77.275C208.804 77.4935 208.804 77.7119 208.851 77.9304C210.811 83.8772 210.234 84.6458 203.959 83.3593C201.281 82.9319 198.576 82.7155 195.866 82.7121C193.4 82.5988 191.124 82.7121 193.811 79.2573L185.978 85.4387Z" fill="#181625"/>
<path id="Vector_70" d="M204.315 69.5402C205.642 67.8816 214.589 66.6922 215.759 68.0676C216.471 68.9253 215.759 69.7829 215.593 70.6648C215.127 72.7522 214.012 74.7102 214.313 76.9676L212.131 81.2962C210.361 80.8755 210.685 78.3026 208.859 77.9466L208.915 77.987C207.057 75.3332 206.204 72.105 204.291 69.4835L204.315 69.5402Z" fill="#121717"/>
<path id="Vector_71" d="M214.526 84.9371C214.559 85.3314 214.444 85.7236 214.205 86.0345C213.965 86.3454 213.62 86.5518 213.238 86.6119C212.037 86.9113 211.657 85.6653 211.412 84.9532C211.363 84.7638 211.356 84.5652 211.393 84.3728C211.43 84.1804 211.51 83.9992 211.626 83.843C211.742 83.6869 211.891 83.56 212.062 83.4719C212.233 83.3839 212.422 83.3371 212.614 83.3351C212.843 83.3023 213.077 83.3185 213.301 83.3827C213.524 83.4469 213.732 83.5577 213.912 83.7081C214.092 83.8586 214.239 84.0454 214.345 84.2569C214.45 84.4684 214.512 84.6999 214.526 84.9371V84.9371Z" fill="#E7ECEE"/>
<path id="Vector_72" d="M165.832 64.807C164.022 63.6743 161.2 64.6857 160.165 61.959C159.943 62.1051 159.692 62.2004 159.43 62.2384C159.169 62.2765 158.902 62.2565 158.649 62.1798C158.395 62.103 158.161 61.9713 157.962 61.7936C157.762 61.6159 157.603 61.3964 157.494 61.15C155.96 57.7356 153.06 55.1061 152.19 51.3357L149.59 47.4197C153.194 45.664 156.561 48.2288 160.157 47.0556C163.319 46.0281 167.033 46.8453 170.78 46.8453C170.274 50.7127 167.618 53.318 167.16 56.9265C169.681 52.072 172.692 47.6867 176.794 44.1996C182.066 43.4471 186.484 40.2027 192.475 38.536C188.523 45.8177 188.832 54.5802 181.363 59.2243L181.418 59.1839C176.304 61.3684 170.859 62.5982 165.777 64.8475L165.832 64.807Z" fill="#171030"/>
<path id="Vector_73" d="M206.196 43.1073C208.251 51.0687 208.282 51.1982 200.142 53.1966C196.648 54.0542 193.273 55.6643 189.551 55.4621C189.666 55.1751 189.72 54.866 189.709 54.5559C190.499 53.86 191.424 53.3746 191.874 52.3228C191.346 53.2518 190.535 53.9789 189.567 54.3941C188.602 54.3941 187.504 54.2161 188.097 52.8972C189.772 49.135 190.041 44.4423 193.178 41.7723C194.799 40.3969 191.993 37.6622 195.083 37.7269C196.838 39.2884 199.154 39.6121 201.232 40.1056C203.84 40.7205 204.117 41.8694 202.813 44.0782C203.405 44.0761 203.987 43.9188 204.503 43.6214C205.019 43.324 205.452 42.8963 205.761 42.3791C205.885 42.4567 205.988 42.5631 206.064 42.6897C206.139 42.8163 206.185 42.9594 206.196 43.1073V43.1073Z" fill="#161C1D"/>
<path id="Vector_74" d="M198.806 64.8232C199.865 66.0934 201.027 67.3637 198.806 68.6016L198.869 68.5612C195.581 70.0904 191.985 70.7457 188.729 72.3477L188.792 72.3072C188.566 72.514 188.295 72.6637 188.002 72.7441C185.528 73.1082 182.643 75.9805 180.888 74.16C178.992 72.1697 181.679 69.2084 182.351 66.6679L182.311 66.7084C185.473 67.0725 183.686 64.2811 184.05 63.2616C185.773 58.2858 186.223 57.6951 190.199 61.0609C192.855 63.3345 195.81 63.8846 198.806 64.8232Z" fill="#1A122B"/>
<path id="Vector_75" d="M199.596 20.8332C201.62 23.6733 203.305 26.7508 204.615 30.0001C205.081 31.1976 205.484 32.3141 204.686 33.4792C204.441 33.8433 203.785 34.086 203.754 34.4177C203.627 36.0359 207.358 38.2285 203.437 39.2075C201.801 39.6202 199.762 38.2447 197.905 37.7916C197.016 37.6415 196.118 37.5604 195.218 37.5489C194.704 34.5634 193.993 31.4565 196.949 29.3286C198.213 28.4224 196.988 27.856 197.051 27.225C197.265 24.9352 195.289 21.4642 199.596 20.8332Z" fill="#1A1929"/>
<path id="Vector_76" d="M189.638 57.2016C194.902 55.8019 200.165 54.4183 205.445 52.9863C206.796 52.6222 207.895 52.4684 207.903 54.4102C206.069 56.5381 205.334 59.2648 204.536 61.8215C203.532 65.0578 201.983 66.2553 198.861 64.7827C196.229 61.9186 192.444 61.0286 189.329 58.9897C187.828 58.0269 188.065 57.501 189.638 57.2016Z" fill="#121617"/>
<path id="Vector_77" d="M152.19 51.3195C154.301 53.6011 156.292 55.9232 157.241 59.0463C157.471 59.7333 157.856 60.3555 158.364 60.8628C158.872 61.37 159.488 61.7483 160.165 61.9671C160.758 64.3943 160.695 65.7536 157.359 66.0125C151.4 66.4009 145.504 67.5579 139.497 67.8492C137.916 67.922 136.699 67.7844 135.545 66.7569C135.774 66.3604 136.217 65.9478 136.209 65.5756C136.004 58.1887 142.856 54.8876 145.291 49.0379C145.67 49.6366 146.081 50.2353 146.437 50.8422C147.677 52.6788 148.942 50.9959 150.191 50.8422L152.19 51.3195Z" fill="#191033"/>
<path id="Vector_78" d="M163.058 31.0277L161.216 33.641C165.002 32.5568 166.148 35.0893 167.255 37.5974C167.761 38.7463 167.073 40.6315 169.199 40.6962C169.744 41.9422 170.282 43.1882 171.025 44.9035H150.95C150.633 43.4067 152.459 43.1154 152.53 41.6671C150.807 41.3597 150.222 43.5442 148.215 43.5604C149.977 41.7723 147.662 38.4146 151.234 37.6298C151.368 37.5756 151.489 37.4916 151.587 37.3839C151.686 37.2761 151.759 37.1473 151.803 37.0068C153.289 31.3432 153.858 30.9144 160.284 30.9629C161.256 30.9387 162.173 30.9953 163.058 31.0277Z" fill="#15141F"/>
<path id="Vector_79" d="M133.672 38.4794C137.577 36.4809 141.971 35.6152 145.622 33.0423C148.444 32.0067 150.056 32.3141 148.784 35.955C147.709 38.9972 149.029 42.897 145.622 45.1058H145.67C141.434 43.075 136.976 41.6105 132.779 39.4422L132.827 39.4826C132.518 38.6897 132.771 38.2933 133.672 38.4794Z" fill="#13121C"/>
<path id="Vector_80" d="M150.199 50.826C149.535 53.9329 147.393 53.2532 145.662 52.3471C144.753 51.8778 145.883 51.1982 146.452 50.8017C148.823 50.5347 146.16 48.3745 147.97 47.5654L150.199 50.826Z" fill="#171030"/>
<path id="Vector_81" d="M133.672 38.4793L132.826 39.4988C130.542 39.0457 131.467 41.926 130.044 42.3387C129.871 37.3062 126.938 41.4325 125.421 40.8823C125.713 39.7901 128.582 38.6978 125.421 37.5974C129.665 37.5489 129.665 37.5489 130.463 32.7429C130.653 35.9954 131.657 37.6379 133.672 38.4793Z" fill="#5A6797"/>
<path id="Vector_82" d="M125.5 37.6379C122.196 38.7221 118.853 35.1378 115.565 37.7188C115.391 36.3353 115.668 35.2268 117.225 34.9194C119.754 36.5699 123.018 35.8417 125.5 37.6379Z" fill="#5A6797"/>
<path id="Vector_83" d="M102.587 56.4006C97.8451 56.2388 93.4744 54.3051 88.914 53.2533L89.7044 51.9992C93.9091 53.7387 98.596 53.9976 102.587 56.4006Z" fill="#596AD3"/>
<path id="Vector_84" d="M225.172 55.276C223.159 57.058 221.617 59.3317 220.691 61.8862L216.913 64.8556C214.337 62.2746 214.005 57.3877 210.788 54.4507C210.993 53.9005 211.159 52.8892 211.412 52.8326C215.585 52.5008 219.774 52.1853 223.908 53.1562C224.137 53.191 224.355 53.2769 224.548 53.4077C224.741 53.5386 224.904 53.7112 225.024 53.9134C225.145 54.1155 225.221 54.3424 225.246 54.5778C225.272 54.8133 225.247 55.0516 225.172 55.276V55.276Z" fill="#121616"/>
<path id="Vector_85" d="M208.006 54.5316C208.403 54.248 208.876 54.0959 209.361 54.0959C209.846 54.0959 210.319 54.248 210.717 54.5316C211.373 58.8683 214.842 62.0238 215.633 66.3524C203.777 67.9058 203.777 67.9139 207.674 56.8294C207.859 56.0767 207.97 55.3069 208.006 54.5316V54.5316Z" fill="#182020"/>
<path id="Vector_86" d="M216.225 36.6751C219.758 37.0715 222.311 38.7949 223.528 42.3387C224.271 45.3161 225.014 48.2855 225.757 51.2386C213.744 52.9944 208.488 50.3325 207.911 42.2416C207.603 41.1008 208.33 40.7043 209.183 40.4131C211.757 39.6775 214.155 38.4048 216.225 36.6751V36.6751Z" fill="#192020"/>
<path id="Vector_87" d="M207.974 28.2282C210.037 30.5988 213.017 31.3917 215.68 32.5811C218.549 33.8756 218.755 34.9193 216.21 36.6265C214.755 36.3272 213.554 37.0877 212.369 37.6945C209.926 38.9486 207.207 38.447 206.654 36.1573C206.054 33.7543 204.236 30.2509 207.974 28.2282Z" fill="#171D1E"/>
<path id="Vector_88" d="M209.183 40.4292L207.911 42.2578L206.196 43.1073C206.181 42.9545 206.13 42.8075 206.049 42.6782C205.968 42.5489 205.859 42.4409 205.729 42.3629C205.334 38.8191 207.318 39.7172 209.183 40.4292Z" fill="#EBEFEF"/>
<path id="Vector_89" d="M74.0946 65.5109L71.3837 65.6161C67.2027 62.8328 67.2818 61.87 72.0003 58.9654C74.4583 57.4605 76.9795 56.0608 79.4454 54.5559C80.6072 53.852 81.3976 53.7468 81.4846 55.4701C78.6867 58.5447 77.9832 63.2536 74.0946 65.5109Z" fill="#221174"/>
<path id="Vector_90" d="M251.973 54.4911C250.954 55.9718 249.294 55.4621 247.872 56.4249C247.872 51.004 250.243 53.7953 251.989 54.5154L251.973 54.4911Z" fill="#0A0A0A"/>
<path id="Vector_91" d="M47.4675 70.5515C49.3564 71.1503 51.1821 72.1697 53.2608 71.4658C53.8448 72.0196 54.278 72.7194 54.5175 73.4966C54.6274 74.1033 54.5027 74.7299 54.1697 75.2442C52.3993 78.432 54.6123 78.7719 56.8174 79.0955C57.2308 79.0896 57.6437 79.1248 58.0504 79.2007C59.6311 79.9693 61.5596 80.3415 62.4448 82.2185C64.599 84.8251 67.3008 86.8995 70.3484 88.2867C71.0435 88.5473 71.6811 88.947 72.2238 89.4623C72.7666 89.9777 73.2037 90.5984 73.5098 91.2884C74.7902 93.8532 80.1646 95.8274 83.9742 95.0588C84.7013 94.9131 85.3652 94.4681 86.1556 94.638C88.6847 96.8873 90.8267 99.3712 90.9531 103.044C90.8387 103.198 90.6933 103.324 90.5268 103.415C90.3603 103.506 90.1766 103.559 89.9883 103.57C89.8 103.582 89.6116 103.552 89.4357 103.482C89.2598 103.412 89.1008 103.304 88.9693 103.166C86.0845 100.318 82.5832 100.374 78.9791 100.787C78.0953 99.7275 76.9143 98.9719 75.5965 98.6231C74.2787 98.2742 72.8879 98.349 71.613 98.8372C69.1313 98.8372 69.1945 95.9083 67.4399 95.075C67.1532 94.8301 66.8887 94.5593 66.6495 94.2659C66.4482 93.9117 66.289 93.5341 66.1753 93.1412C63.9307 90.3903 62.0733 87.0326 57.7343 87.7446C57.331 87.7881 56.9239 87.7182 56.5566 87.5424C55.6082 86.442 54.1855 86.3287 52.9684 85.6976C50.6526 83.2704 48.5029 80.6489 46.4084 77.9951C46.2266 76.6601 47.8863 76.6925 48.1155 75.6326C47.2145 74.5484 45.6022 74.5161 44.8593 73.262L47.4675 70.5515Z" fill="#A0E3F5"/>
<path id="Vector_92" d="M44.8356 73.2296C45.5715 73.2472 46.2988 73.395 46.9854 73.6665C48.0998 74.3543 50.0915 73.7474 50.1468 76.0938C50.2496 79.3868 47.2383 76.0291 46.7483 77.8657C45.3809 78.432 43.3972 78.2621 44.5037 81.013C45.3414 83.0924 46.1397 85.4064 45.4047 87.8093C45.2093 88.1966 44.8995 88.5109 44.5195 88.7074C42.512 88.9744 42.3381 87.4938 42.1484 86.0779C41.9081 84.0069 41.4279 81.9726 40.7178 80.0178C38.5917 82.3804 38.4574 85.9485 35.6279 87.5424C35.4205 87.5981 35.2033 87.6037 34.9935 87.5588C34.7836 87.5139 34.5868 87.4196 34.4186 87.2834C34.0993 86.7095 34.0033 86.0334 34.1499 85.3902C35.1063 82.2914 37.6117 79.7266 37.2639 76.1747C37.6512 74.5565 39.2952 74.9772 40.2357 74.2491L42.6858 73.3186C43.4524 74.0063 44.1559 74.1034 44.8356 73.2296Z" fill="#5866C8"/>
<path id="Vector_93" d="M182.327 66.6679C183.117 69.2812 179.055 72.0564 181.663 73.8364C183.07 74.7992 186.334 72.914 188.776 72.3072C184.565 74.447 180.559 76.9851 176.81 79.8884C176.083 79.8318 177.11 77.8333 175.419 78.6828C173.728 79.5324 171.91 80.301 169.95 79.3787L169.515 78.9175C171.191 76.4902 174.257 76.7815 176.573 75.3818C180.248 73.1325 179.821 69.0709 182.327 66.6679Z" fill="#6B759C"/>
<path id="Vector_94" d="M165.777 64.8394C170.637 61.9348 175.949 60.3247 181.418 59.1758C176.555 61.956 171.266 63.8711 165.777 64.8394V64.8394Z" fill="#58638C"/>
<path id="Vector_95" d="M160.244 81.6117C163.049 79.9074 166.238 78.979 169.499 78.9175V78.877C167.255 82.2671 164.615 83.1166 160.41 81.7978L160.244 81.6117Z" fill="#5A6692"/>
<path id="Vector_96" d="M174.028 93.0037C178.66 93.0684 182.848 94.9131 187.124 96.4342C182.643 95.7708 178.106 95.3662 174.068 92.9552L174.028 93.0037Z" fill="#5D689B"/>
<path id="Vector_97" d="M177.205 105.358L185.899 101.135L186.35 102.13L177.656 106.362C177.529 106.03 177.371 105.69 177.205 105.358Z" fill="#556784"/>
<path id="Vector_98" d="M81.287 67.5175C81.3446 67.2135 81.4292 66.9156 81.5399 66.6275C86.1477 66.6275 90.7872 67.0563 95.9008 65.3087L87.768 56.3359L88.2896 55.8019C90.1391 57.6142 92.0122 59.3942 93.8222 61.2389C95.9561 63.3992 97.8846 66.2148 101.307 63.1727C101.591 62.9219 101.686 63.0351 101.599 64.7908L99.9 65.8022C98.3193 66.4576 98.6276 68.5369 97.3788 69.4674C92.0122 68.8929 86.4481 69.9205 81.287 67.5175Z" fill="#6177D4"/>
<path id="Vector_99" d="M74.0947 65.5109C76.9479 62.4607 77.4538 57.59 81.4926 55.4459C80.7022 59.6774 77.4538 62.6629 76.0549 66.587L74.0947 65.5109Z" fill="#5756B3"/>
<path id="Vector_100" d="M132.708 67.8168C132.708 68.6259 132.708 69.435 132.708 70.2845C129.973 70.9318 127.507 72.7118 124.528 72.372C126.994 70.3654 130.574 70.4382 132.708 67.8168Z" fill="#596AD3"/>
<path id="Vector_101" d="M123.793 60.2761C122.868 62.9214 121.327 65.296 119.303 67.1938C120.114 64.4854 121.548 62.0159 123.484 59.993L123.793 60.2761Z" fill="#5768D5"/>
<path id="Vector_102" d="M136.494 93.0037C134.613 90.8434 133.965 88.2139 133.704 85.4306C135.445 87.5588 136.428 90.2288 136.494 93.0037V93.0037Z" fill="#5A67DB"/>
<path id="Vector_103" d="M132.779 39.4988C137.521 40.4292 141.663 42.5895 145.67 45.1624C141.449 45.2595 138.351 41.2059 133.941 41.7966C133.656 41.8047 133.174 40.3079 132.779 39.4988Z" fill="#5B6886"/>
<path id="Vector_104" d="M143.797 47.9295C142.216 49.4586 140.264 50.1221 138.264 50.8584C138.264 45.6802 141.758 48.3583 143.836 47.9457L143.797 47.9295Z" fill="#66748B"/>
<path id="Vector_105" d="M114.364 120.205C113.866 118.935 111.392 119.299 111.882 117.373C112.245 115.933 113.929 116.467 114.949 115.917C116.743 114.954 118.647 114.194 120.355 113.417C116.774 110.69 111.85 120.61 108.981 111.742C110.989 106.742 115.209 108.425 118.837 108.304C122.086 108.935 124.188 111.321 126.44 113.482L126.701 114.048C126.504 116.411 125.413 118.466 124.583 120.61C124.363 120.97 124.069 121.276 123.721 121.508L122.726 121.322C119.904 121.217 116.932 122.333 114.364 120.205Z" fill="#193D95"/>
<path id="Vector_106" d="M102.54 98.7158L104.603 98.2061L103.615 97.575C106.033 94.1688 108.357 97.4051 110.665 97.7287C108.697 98.9262 108.697 98.9262 110.744 100.512C109.218 101.417 107.633 102.214 106.002 102.899C105.382 103.174 104.7 103.271 104.031 103.18C103.361 103.088 102.728 102.812 102.2 102.381C100.746 101.07 102.255 99.9295 102.54 98.7158Z" fill="#2B4084"/>
<path id="Vector_107" d="M108.958 110.933C107.472 112.333 105.796 116.694 104.943 110.488C104.619 108.061 102.414 108.87 100.841 108.765C100.738 108.765 100.54 108.587 100.548 108.514C100.595 108.252 100.663 107.995 100.754 107.745C106.334 105.035 107.883 105.666 108.958 110.933Z" fill="#1C3183"/>
<path id="Vector_108" d="M95.9957 108.045L95.0551 106.426C97.4262 104.396 99.2835 104.509 100.706 106.766C99.1176 107.138 97.853 108.781 95.9957 108.045Z" fill="#174A8B"/>
<path id="Vector_109" d="M111.977 102.915C113.771 99.8485 115.138 102.243 116.616 103.295C117.28 104.363 117.083 105.18 115.778 105.116C114.214 105.035 112.19 105.536 111.977 102.915Z" fill="#2D62A4"/>
<path id="Vector_110" d="M124.559 122.835C124.275 122.39 123.998 121.945 123.721 121.5L123.627 121.055C125.816 119.752 128.274 119.291 130.637 118.49C129.957 116.419 127.586 115.707 126.282 113.959C126.255 113.871 126.256 113.777 126.285 113.69C126.313 113.603 126.368 113.527 126.44 113.474C129.238 112.13 133.98 113.838 135.822 117.81C136.475 119.326 137.672 120.528 139.165 121.168C143.164 122.859 145.196 127.859 150.12 127.851C152.586 131.743 149.574 131.46 147.29 131.735C145.196 131.735 144.026 130.116 142.904 128.733C142.085 127.616 140.968 126.766 139.687 126.285C138.407 125.804 137.018 125.713 135.688 126.022C132.589 122.738 128.385 123.474 124.559 122.835Z" fill="#5A95DC"/>
<path id="Vector_111" d="M160.22 131.549C159.209 134.024 159.43 138.369 154.783 135.262C152.649 135.57 152.254 133.968 152.135 132.455C151.996 130.795 151.64 129.163 151.076 127.6C150.913 126.998 150.646 126.43 150.286 125.925C148.254 123.749 145.006 122.972 143.441 119.566L147.472 120.302C150.388 123.304 152.752 127.366 158.166 125.966C156.111 129.008 156.948 130.812 160.22 131.549Z" fill="#5A95DC"/>
<path id="Vector_112" d="M133.625 106.062C136.328 107.373 137.023 111.087 140.208 111.823C141.916 113.215 140.588 115.059 141.347 117.123C136.604 115.432 134.85 111.386 132.202 108.425C131.364 107.462 132.542 106.491 133.625 106.062Z" fill="#4A77D9"/>
<path id="Vector_113" d="M150.286 125.925L151.226 126.686C151.787 129.712 154.032 132.892 150.436 135.505C149.913 135.844 149.322 136.056 148.707 136.126C148.092 136.196 147.47 136.122 146.887 135.91C145.63 135.23 144.421 134.397 144.769 132.746C145.069 131.362 146.516 131.864 147.44 131.492C147.543 131.063 147.654 130.626 147.756 130.197C151.076 132.123 150.167 129.502 150.127 127.859L150.286 125.925Z" fill="#DAEEF9"/>
<path id="Vector_114" d="M75.2803 69.6534C75.4542 68.0838 76.6397 67.9705 77.8016 67.8168C79.8027 69.4621 81.9701 70.8834 84.2668 72.0564C84.8557 72.3927 85.5109 72.5892 86.184 72.6312C86.8571 72.6732 87.5308 72.5597 88.1553 72.2991C90.7477 71.2392 90.3842 71.7409 92.2573 73.5775C93.1109 74.3866 94.6284 76.2475 96.3198 75.8187C97.7108 75.4708 97.4499 73.8283 97.529 72.6309C97.4858 71.8603 97.5877 71.0885 97.8293 70.3573C98.0836 70.1431 98.4045 70.0293 98.7337 70.0367C99.063 70.0441 99.3787 70.1723 99.6235 70.3978C99.5128 73.44 102.295 75.7944 101.568 78.9822C99.1018 80.8593 103.283 83.6425 100.714 85.5034C95.6321 82.8173 89.8704 82.0729 84.6777 79.9369C84.5117 78.1408 86.543 77.898 86.6931 76.3122C84.4327 76.3122 83.5871 78.966 81.4847 78.877L80.9156 78.5776C79.24 76.9595 78.2758 74.7102 76.6002 73.0759C75.8257 72.0726 75.0511 71.0531 75.2803 69.6534Z" fill="#4D6CCD"/>
<path id="Vector_115" d="M99.6234 70.3978L98.098 70.4625C97.818 70.2587 97.6266 69.9511 97.5646 69.6051C97.5026 69.2591 97.5749 68.902 97.766 68.6097C96.1853 65.8346 97.8371 65.6566 99.9079 65.8022L99.6234 70.3978Z" fill="#E8EBF3"/>
<path id="Vector_116" d="M121.833 53.5931C118.938 52.8555 116.347 51.1951 114.435 48.8518C117.366 49.4998 119.983 51.1771 121.833 53.5931V53.5931Z" fill="#5468D0"/>
<path id="Vector_117" d="M160.378 81.7978C163.608 81.6667 166.745 80.6587 169.468 78.877C171.459 79.3058 173.317 78.4644 175 77.7281C178.502 76.1827 176.723 78.7476 176.818 79.8884C176.233 81.0616 175.656 82.2428 175.079 83.416C172.123 85.0342 172.637 90.6492 169.547 90.5602C165.895 90.455 162.323 87.874 158.711 86.3934C157.739 85.997 156.735 85.6814 156.103 84.6458C156.814 82.5664 159.391 83.3836 160.378 81.7978Z" fill="#1A1030"/>
<path id="Vector_118" d="M100.675 87.3077C96.3908 87.3481 94.1304 91.3531 90.5105 92.6962C89.1906 93.1817 87.4439 95.2529 86.9065 91.8871C87.4993 91.1185 88.4398 90.8839 89.1827 90.366C91.1666 88.9825 91.3878 87.5342 89.3724 85.9161C88.3687 85.107 86.7958 84.6458 87.0804 82.8092C91.9174 82.8092 96.1458 85.0746 100.572 86.6038C100.578 86.8418 100.613 87.0781 100.675 87.3077V87.3077Z" fill="#6C91F1"/>
<path id="Vector_119" d="M151.029 145.562C149.448 145.788 149.171 143.329 147.503 143.685C146.763 143.536 146.064 143.222 145.458 142.763C144.851 142.304 144.351 141.713 143.995 141.032C143.639 140.352 143.435 139.599 143.398 138.827C143.361 138.056 143.492 137.286 143.781 136.573C144.492 135.715 145.164 134.769 146.5 135.206L150.23 135.109C151.234 134.583 151.937 134.558 151.724 136.047C148.041 138.005 147.922 138.369 150.989 140.804C152.064 141.654 151.511 142.083 150.989 142.463C149.385 143.58 150.57 144.542 151.029 145.562Z" fill="#183757"/>
<path id="Vector_120" d="M151.724 136.047C151.724 134.963 150.649 135.554 150.23 135.109C152.435 132.536 150.791 129.485 151.226 126.686C152.807 128.183 153.913 129.817 153.17 132.22C152.704 133.693 153.89 134.437 154.751 135.262C153.763 136.654 154.056 137.965 155.028 139.211C154.759 140.02 155.865 142.447 153.384 140.489C151.89 139.275 151.858 137.698 151.724 136.047Z" fill="#E7F5FB"/>
<path id="Vector_121" d="M157.889 146.614L154.846 146.274C154.965 144.292 154.893 144.712 156.348 144.979C159.121 145.362 161.912 145.586 164.71 145.651C162.805 147.471 160.394 145.821 158.332 146.606L157.889 146.614Z" fill="#F2FEFE"/>
<path id="Vector_122" d="M188.697 72.3477C191.677 69.9771 195.194 69.1114 198.838 68.5612C195.85 70.9318 192.301 71.749 188.697 72.3477Z" fill="#556882"/>
<path id="Vector_123" d="M204.291 69.4835C206.679 71.7407 208.299 74.7203 208.915 77.987C206.385 75.7135 205.16 72.6713 204.291 69.4835Z" fill="#526E7B"/>
<path id="Vector_124" d="M189.567 54.3941C190.217 53.8207 190.663 53.0418 190.833 52.1803C191.004 51.3189 190.889 50.4239 190.507 49.6366C192.609 48.7628 192.673 51.0526 193.842 51.3115C192.854 52.9296 191.637 54.2161 189.709 54.5478L189.567 54.3941Z" fill="#5B6E74"/>
<path id="Vector_125" d="M154.364 39.4988C156.079 37.8806 157.019 36.8207 158.071 35.955C158.671 35.4695 159.572 34.4663 160.197 35.7608C160.324 35.9608 160.393 36.1944 160.394 36.4333C160.395 36.6723 160.328 36.9064 160.202 37.1074C160.076 37.3085 159.895 37.4678 159.683 37.5662C159.47 37.6647 159.234 37.698 159.003 37.6622C157.525 37.5408 156.806 39.1832 154.364 39.4988Z" fill="#718692"/>
<path id="Vector_126" d="M73.0752 91.1347C69.566 88.9016 66.033 86.7009 62.5712 84.3869C62.097 84.0714 59.639 83.8367 62.0101 82.4532C66.5152 79.2897 71.1546 80.1068 75.8336 81.9354C76.9243 82.9872 76.4105 85.8271 79.7854 84.2655C81.9589 83.2704 82.0143 87.2511 83.2709 88.7883C83.9111 90.4065 85.6419 92.0813 84.1719 93.8532C82.931 95.3338 81.0104 94.4924 79.4297 94.0636C77.1929 93.4406 74.5374 93.7076 73.0752 91.1347Z" fill="#1A256B"/>
<path id="Vector_127" d="M97.7661 68.6259C97.8768 69.2408 97.9875 69.8557 98.0902 70.4706C98.7383 71.757 99.1888 73.1406 98.6355 74.516C98.0823 75.8915 98.3194 77.6634 96.9283 78.1408C95.3476 78.6747 94.8418 76.7329 93.846 75.9077C93.2216 75.3898 93.0556 72.8169 91.8701 75.5436C91.6171 76.1099 91.0796 75.8996 90.724 75.5436C89.9336 74.7345 90.5817 74.2167 91.1429 73.6908C91.704 73.1649 93.3796 73.6018 92.5892 72.1373C91.7988 70.6729 90.803 71.8703 89.9573 72.3639C85.6577 74.9125 80.3544 72.9383 77.8015 67.8411L81.2871 67.5417C84.8911 67.5417 88.5346 67.8653 92.0834 67.4203C94.2964 67.121 95.4109 70.7861 97.7661 68.6259Z" fill="#242868"/>
<path id="Vector_128" d="M75.2803 69.6534L76.861 72.1778C78.4417 74.3947 79.4059 77.0728 81.5241 78.9175V78.877C78.0307 80.1958 70.1588 77.7524 69.2499 74.9125C68.8705 73.6989 69.6055 72.4286 70.5935 71.6761C71.9213 70.5353 72.7669 67.9382 75.2803 69.6534Z" fill="#5B82ED"/>
<path id="Vector_129" d="M87.0804 82.8092L89.1591 84.4274C90.5738 85.5358 93.3006 85.6653 92.2019 88.6508C91.2772 91.1428 89.5622 92.324 86.9065 91.8871L85.4048 89.12C84.7725 86.6928 84.1481 84.217 83.4131 81.3366C84.8911 81.9192 86.3058 81.3366 87.0804 82.8092Z" fill="#303898"/>
<path id="Vector_130" d="M75.8335 81.9354C71.2235 81.4844 66.5755 81.6585 62.0101 82.4532L57.5445 79.7185C57.3627 76.9514 57.0782 74.2409 53.8061 73.3752C52.9604 72.9383 53.1105 72.2021 53.2607 71.4658C55.8926 71.6357 59.0462 70.4059 60.374 74.2005C60.6111 76.9433 62.3262 76.4417 64.0413 75.9481C64.1045 76.2637 64.1756 76.5792 64.2389 76.9029C64.6103 77.7119 64.1598 78.3997 63.5671 79.4919C65.3433 79.6544 67.1281 79.6976 68.9099 79.6214C70.4274 79.6214 68.8388 78.4887 69.3209 78.0437C71.9686 78.4725 73.6363 80.6651 75.8335 81.9354Z" fill="#4B70C4"/>
<path id="Vector_131" d="M71.9766 68.0029C67.4873 73.3672 65.7959 73.5614 62.4922 69.346C62.068 68.9162 61.8059 68.3466 61.7524 67.738C61.6989 67.1295 61.8574 66.5211 62.1998 66.0207C62.8795 64.7908 63.7805 64.8232 64.9028 65.2116C67.2581 66.1339 69.8347 66.4818 71.9766 68.0029Z" fill="#7388E1"/>
<path id="Vector_132" d="M73.0752 91.1347C75.0985 91.5554 77.1613 91.8386 79.1372 92.4293C84.1481 93.9342 84.1324 93.9908 83.2551 88.7884L84.2272 89.2495C84.6066 91.1266 86.0924 92.6558 85.879 94.7271C84.8674 96.2643 83.587 97.0653 81.6743 96.588C79.0345 95.9326 76.363 95.431 73.7232 94.7756C70.9174 94.0879 71.2573 92.7286 73.0752 91.1347Z" fill="#399EE2"/>
<path id="Vector_133" d="M69.2894 78.0437C69.9533 79.2168 72.2295 80.835 68.499 80.746C66.3176 80.6894 64.1283 80.746 61.8916 80.746C61.7415 78.7314 63.828 78.3835 64.1758 76.919C66.3651 75.139 67.7245 77.0566 69.2894 78.0437Z" fill="#1C1A63"/>
<path id="Vector_134" d="M64.0098 75.9481L59.5522 79.6375L60.3425 74.2005C62.0102 73.0597 63.1008 74.2005 64.1915 75.2442C64.157 75.4851 64.096 75.7212 64.0098 75.9481V75.9481Z" fill="#190F60"/>
<path id="Vector_135" d="M64.2152 75.2119L60.3661 74.1681C60.4294 73.2781 60.3661 71.6033 61.1565 71.8865C62.508 72.38 64.7527 72.6713 64.2152 75.2119Z" fill="#4B70C4"/>
<path id="Vector_136" d="M74.1105 122.026C71.6762 119.396 68.246 120.335 65.3217 119.72C62.5159 119.129 60.9826 118.102 60.4609 115.318C60.1369 112.13 57.8212 109.121 59.5837 105.755C61.7967 101.548 63.1245 96.6931 67.6296 94.1526C70.0718 94.5814 70.0007 97.1867 71.2731 98.5864C72.7669 98.0281 73.2885 99.088 73.8023 100.205C74.1184 102.26 72.593 104.104 71.4312 104.04C69.6924 103.951 69.7794 105.714 68.6175 105.803C70.0402 104.582 70.9886 107.664 72.9408 106.038C74.7744 104.525 77.517 104.655 79.3112 107.122C79.896 108.603 80.3939 110.083 79.7458 111.685C79.0108 112.592 78.1651 112.219 77.2561 112.001C76.1417 111.718 75.1696 109.622 73.8181 111.694C72.8934 113.109 72.4508 114.647 73.4466 116.063C74.893 118.118 76.8136 116.556 78.4891 116.338C80.8602 116.022 79.5877 114.323 79.4375 113.101C79.3597 112.64 79.4497 112.165 79.6905 111.766C80.1884 111.313 80.9946 111.119 81.2712 111.564C83.9743 115.488 87.0803 113.91 90.2102 112.373C95.6874 110.431 95.6874 110.431 95.6795 118.587C95.7348 119.21 96.7227 118.53 96.13 118.66C96.043 118.66 95.9877 118.619 95.9719 118.482C95.4819 114.493 95.4819 114.493 97.8688 113.571C99.0781 115.707 102.192 117.009 100.69 120.335L100.256 120.869C99.3887 121.502 98.395 121.93 97.3466 122.121C96.2981 122.313 95.2212 122.264 94.1936 121.977C93.0713 121.645 91.8225 120.149 91.5143 122.786C91.5143 123.142 90.4394 123.183 89.8387 123.255C88.9222 123.303 88.0042 123.199 87.1199 122.948C85.612 122.541 84.1914 121.849 82.931 120.909C79.7142 119 76.7977 119.598 74.1105 122.026Z" fill="#2C1E9C"/>
<path id="Vector_137" d="M57.3945 94.7109C55.6004 94.6704 54.146 94.994 55.5608 98.4003C48.3764 89.7754 46.0132 90.0343 41.7926 98.8534C42.4407 99.7838 43.0573 98.9909 43.7054 98.8534C44.3535 98.7158 45.1991 98.0443 45.0964 99.5735C44.9304 101.912 43.0889 100.002 42.5515 100.617C39.8089 103.756 37.9831 101.135 35.8728 99.7353C34.3886 98.756 32.7686 98.0114 31.0675 97.5265C34.0155 99.6787 28.3961 106.03 35.5172 106.054C34.7269 109.072 32.5533 110.173 29.7554 110.407C27.906 109.833 25.3848 110.868 24.4284 108.126C24.5563 107.852 24.7633 107.626 25.0212 107.478C30.2534 105.342 30.7751 103.587 27.8428 97.8663C21.9072 96.3776 19.1488 97.5912 18.4533 101.976C18.0423 104.404 17.7025 106.96 14.9362 103.433C14.4146 102.769 13.561 102.826 12.8101 102.68C12.509 102.568 12.2355 102.39 12.0088 102.158C11.7822 101.926 11.6079 101.646 11.4981 101.337C13.4108 93.3354 20.5161 89.6541 25.2978 84.039C25.4343 83.8484 25.6128 83.6934 25.8188 83.5865C26.0248 83.4797 26.2524 83.424 26.4833 83.424C26.7143 83.424 26.9419 83.4797 27.1479 83.5865C27.3539 83.6934 27.5323 83.8484 27.6689 84.039C27.7874 88.4728 22.9268 89.8159 22.2075 93.6186C26.3095 94.9617 28.728 92.5183 30.6248 89.0149C30.7697 89.0348 30.9087 89.0863 31.0325 89.1659C31.1562 89.2456 31.2617 89.3516 31.3419 89.4766C31.4221 89.6017 31.4751 89.743 31.4973 89.8908C31.5195 90.0387 31.5104 90.1897 31.4706 90.3337C31.9606 90.3337 31.7946 89.8725 31.8737 89.6379C32.3242 88.2705 32.8774 87.065 34.6083 87.2754L34.8138 87.4291C35.9835 88.9583 34.5371 90.3013 34.4897 92.1865C37.8882 91.2708 41.2146 90.0943 44.4404 88.667L45.136 88.044C46.361 87.5181 47.5624 87.332 48.6926 88.2705C50.2022 91.2561 51.854 92.4616 54.1303 88.8935C54.6677 88.0844 55.2999 87.0165 56.6278 87.3563C56.8976 87.3807 57.1632 87.4405 57.4181 87.5343C58.3428 89.9211 57.355 92.316 57.3945 94.7109Z" fill="#5866C8"/>
<path id="Vector_138" d="M90.7556 103.489L92.3363 106.079C92.1466 108.716 91.6171 109.38 89.0721 108.926C84.33 108.117 79.7854 106.426 75.0511 105.545C73.6838 105.294 73.9605 104.323 74.4742 103.457C75.2519 102.107 76.4776 101.087 77.9281 100.585L78.6551 100.512C83.6502 97.4374 87.2306 100.334 90.7556 103.489Z" fill="#1E2677"/>
<path id="Vector_139" d="M48.5661 88.2705C47.4438 87.8741 46.195 89.7754 45.1359 88.0359C44.2428 84.2493 43.3418 80.4709 42.3696 76.3607L46.764 77.8414C50.0915 79.5243 52.3677 82.0163 52.755 85.9323C51.9251 87.8093 50.8819 89.2495 48.5661 88.2705Z" fill="#1E1565"/>
<path id="Vector_140" d="M57.3944 94.7108C54.723 92.2836 57.679 89.913 57.3944 87.5181C59.8208 83.4726 61.6623 87.599 63.3616 88.3271C64.8949 88.9906 66.1595 91.0214 66.6258 93.0765C65.2901 93.4568 62.9506 91.5635 62.9348 95.0183C62.9348 96.0944 61.3541 95.9083 60.706 95.35C60.2522 94.9649 59.7102 94.7042 59.1309 94.5924C58.5516 94.4806 57.9541 94.5213 57.3944 94.7108V94.7108Z" fill="#1F3A62"/>
<path id="Vector_141" d="M67.6296 94.1283C63.9307 97.5993 61.7572 102.033 60.2871 106.815C59.307 109.995 59.228 113.109 63.3379 114.283C62.5001 115.779 61.2355 114.631 60.4609 115.294C56.2009 111.249 57.2995 105.803 58.7222 101.54C59.7813 98.4084 64.0255 96.4099 66.8471 93.9099C67.1242 93.894 67.3988 93.9706 67.6296 94.1283V94.1283Z" fill="#B3A7E6"/>
<path id="Vector_142" d="M48.566 88.2705L52.7628 85.9646C54.3435 85.6572 56.7146 82.7687 56.6277 87.3482C55.6002 88.6508 54.2567 89.7754 53.6244 91.2722C52.2491 94.5571 50.7948 91.5635 49.4986 91.4259C47.2856 91.1994 47.5307 89.7511 48.566 88.2705Z" fill="#141A43"/>
<path id="Vector_143" d="M73.4704 100.787C73.0515 99.779 72.2623 98.9799 71.2731 98.5621C73.1621 94.5652 75.794 98.2223 78.0466 98.0119C79.8802 97.8339 79.2796 99.4278 78.6631 100.512H78.7421C77.0428 101.629 75.3277 102.891 73.4704 100.787Z" fill="#222997"/>
<path id="Vector_144" d="M53.8062 73.3752C59.0384 73.1487 59.5363 73.9821 57.5446 79.7185C57.4024 79.7509 57.2538 79.7362 57.1203 79.6766C56.9867 79.617 56.8752 79.5155 56.8017 79.3867C56.0505 79.0325 55.4327 78.4372 55.0419 77.6911C54.6511 76.945 54.5085 76.0888 54.636 75.2523L53.8062 73.3752Z" fill="#221576"/>
<path id="Vector_145" d="M54.636 75.2523C55.4896 76.5631 56.5962 77.72 56.8017 79.3868C55.4897 82.1457 53.98 79.8965 52.9921 79.2654C51.5615 78.343 51.9409 76.4174 52.3993 75.0905C52.7629 74.063 53.8536 75.3009 54.636 75.2523Z" fill="#4B70C4"/>
<path id="Vector_146" d="M30.9489 89.4032C28.4592 95.6089 28.2696 95.706 20.3976 94.6057C21.5594 90.2123 25.8511 87.7932 27.3291 83.4727L27.6768 82.9387C27.9376 83.0034 29.7949 81.5308 30.1348 81.0697C31.2097 79.6052 33.1144 79.0308 33.9917 77.3317C34.9165 76.3123 35.9282 75.4708 37.422 75.7782L37.4931 76.1342C39.4295 77.4531 38.4415 78.8851 37.6432 80.301C36.6684 82.0217 35.691 83.745 34.711 85.4711C30.9173 84.2332 32.8774 88.7722 30.9489 89.4032Z" fill="#221361"/>
<path id="Vector_147" d="M44.4404 88.6589C41.5319 92.769 36.6 91.9519 32.0317 94.7917C33.2568 91.5554 34.0314 89.4842 34.8059 87.421C37.6433 84.7591 38.3151 80.7137 40.8522 77.5663C42.2037 80.5357 43.3101 83.4646 43.1837 86.6524C43.1363 87.866 43.4762 88.3433 44.4404 88.6589Z" fill="#19124A"/>
<path id="Vector_148" d="M30.9489 89.4032C30.9884 88.3514 30.9489 87.2834 31.0832 86.2316C31.2176 85.1798 30.4904 83.4241 32.0316 83.1247C33.3753 82.8658 34.5687 83.7801 34.711 85.4711C34.711 86.0698 34.6478 86.6685 34.6082 87.2673C32.8378 88.1653 32.9801 90.5036 31.2334 91.7739C31.1227 90.9 31.0674 90.1476 30.9489 89.4032Z" fill="#19124A"/>
<path id="Vector_149" d="M102.627 137.342C101.157 133.442 104.784 132.487 106.46 130.375L108.997 132.382C109.695 132.558 110.339 132.91 110.871 133.406C111.402 133.902 111.804 134.526 112.04 135.222C112.451 136.929 111.961 138.782 114.893 139.227C117.43 139.607 118.663 142.56 119.738 145.004C119.898 145.685 119.859 146.399 119.626 147.058C119.393 147.717 118.975 148.291 118.426 148.709C116.845 149.664 114.941 149.518 113.455 150.716C111.969 151.913 111.265 151.929 110.198 149.761C109.408 148.143 106.61 147.763 105.891 145.481C105.575 142.447 103.86 139.995 102.627 137.342Z" fill="#2F2A8B"/>
<path id="Vector_150" d="M124.559 122.835C128.859 121.378 132.977 120.618 135.537 125.836C135.427 126.006 135.308 126.184 135.205 126.362C133.388 127.754 132.36 129.914 130.55 131.314C128.076 133.871 125.342 135.901 121.659 136.112C120.204 135.869 118.964 135.4 119.003 133.547C118.663 131.201 121.374 128.749 118.56 126.379C117.707 125.658 119.169 124.461 119.809 124.615C121.872 125.108 122.844 122.997 124.559 122.835Z" fill="#202472"/>
<path id="Vector_151" d="M104.571 129.55C103.915 132.455 101.141 131.209 99.5285 132.236C98.4932 131.201 95.8613 133.118 95.8692 130.157C95.4108 130.61 95.8692 131.273 95.4977 131.775C95.3213 132.07 95.0888 132.325 94.8141 132.526C94.5394 132.727 94.2281 132.87 93.8986 132.945C93.5691 133.021 93.2281 133.027 92.8959 132.965C92.5637 132.903 92.2472 132.774 91.9649 132.584C90.803 131.913 91.7277 130.667 91.8146 129.688C91.9885 127.891 92.115 126.055 93.2847 124.542C94.7864 121.306 98.5089 122.115 100.785 120.221L100.722 120.262C103.204 122.835 106.531 125.027 104.571 129.55Z" fill="#1B1850"/>
<path id="Vector_152" d="M73.4704 100.787C75.2408 100.884 77.0269 101.256 78.742 100.48L73.8971 104.525C79.4929 105.876 84.1718 106.103 88.6215 107.761C89.9335 108.263 92.1071 108.951 92.3521 106.087C95.0394 107.333 94.1857 111.823 97.7423 112.268C97.7819 112.673 97.8214 113.077 97.8688 113.498C94.3912 114.307 97.1892 117.713 95.4266 119.307C95.3002 116.969 95.1816 114.647 95.0551 112.365C92.9053 111.694 91.6249 114.024 89.7202 113.538C88.5425 112.195 84.978 113.433 85.879 109.825C86.78 109.177 87.6969 110.051 88.6058 109.825C87.4282 109.889 86.4481 108.805 85.2072 109.202C82.9152 109.04 80.6785 108.684 78.7342 107.284C78.0387 106.985 77.2958 106.346 76.6556 106.475C73.3756 106.936 70.1192 107.608 67.0052 106.718C67.2344 102.794 72.1663 103.87 73.4704 100.787Z" fill="#5D7ADE"/>
<path id="Vector_153" d="M111.811 135.327C110.613 134.644 109.633 133.621 108.989 132.382C108.934 130.303 110.119 130.125 111.605 130.683C113.091 131.241 114.609 131.977 116.11 132.641C116.271 132.785 116.391 132.971 116.458 133.178C116.525 133.386 116.536 133.608 116.49 133.822C115.407 135.869 114.443 138.329 111.811 135.327Z" fill="#1F2B7B"/>
<path id="Vector_154" d="M107.092 121.864C107.385 121.006 106.515 119.259 107.883 119.242C109.25 119.226 109.511 120.294 108.618 121.864C107.883 123.166 109.487 123.005 110.278 122.899C110.805 122.802 111.35 122.89 111.822 123.151C112.294 123.411 112.666 123.827 112.878 124.332C113.241 125.141 112.459 125.569 111.653 125.828C110.341 126.257 109.092 126.807 107.946 125.448C107.045 124.404 107.124 123.175 107.092 121.864Z" fill="#183472"/>
<path id="Vector_155" d="M116.094 133.094V132.641C116.371 131.629 115.921 129.364 117.991 131.265C118.45 131.686 118.157 132.981 118.987 133.555C119.683 134.461 120.394 135.351 121.682 135.295C122.726 136.16 122.56 137.099 121.84 138.07C121.503 138.323 121.123 138.51 120.718 138.62C116.427 139.089 116.063 138.685 116.094 133.094Z" fill="#C4FCFC"/>
<path id="Vector_156" d="M114.364 120.205C117.138 120.699 120.149 119.283 122.726 121.322L119.77 122.891C117.707 122.026 114.711 123.498 113.597 120.294C113.846 120.22 114.105 120.19 114.364 120.205V120.205Z" fill="#5A95DC"/>
<path id="Vector_157" d="M113.597 120.294C115.431 121.71 118.118 121.014 119.77 122.891C116.948 123.911 114.15 124.906 113.597 120.294Z" fill="#1A3B71"/>
<path id="Vector_158" d="M100.73 112.778L98.8093 110.973C102.587 108.206 102.587 111.402 103.504 114.21L100.73 112.778Z" fill="#206FB3"/>
<path id="Vector_159" d="M126.282 113.935C130.06 113.935 131.222 117.171 133.498 120.335C129.594 118.619 126.938 122.236 123.627 121.03C124.171 118.546 125.065 116.155 126.282 113.935V113.935Z" fill="#1A2066"/>
<path id="Vector_160" d="M146.5 135.206L144.745 136.565C144.433 137.109 144.001 137.571 143.484 137.914C142.967 138.256 142.378 138.471 141.766 138.539C139.458 137.948 136.375 138.175 137.237 134.154C138.541 133.515 139.916 134 140.501 133.887C141.86 133.887 141.157 133.078 141.347 133.644C141.347 133.741 141.236 133.822 140.936 133.79C138.067 133.507 135.269 134.655 132.368 134.154C130.353 133.806 129.025 133.296 130.455 130.917C132.605 129.671 133.712 127.341 135.585 125.804H135.538C138.462 123.498 140.699 124.332 142.912 127.107C144.184 128.725 145.409 130.553 147.409 131.451C145.591 132.341 144.967 133.498 146.5 135.206Z" fill="#202A57"/>
<path id="Vector_161" d="M81.5083 78.9175C77.9437 78.1084 77.9043 74.7831 76.8452 72.1778C79.0979 73.8214 80.7413 76.1967 81.5083 78.9175Z" fill="#D6EBF7"/>
<path id="Vector_162" d="M74.1106 122.026C74.5848 121.217 72.9172 119.024 75.1697 119.477C77.8886 120.019 81.0816 115.715 83.3262 120.286C83.9901 123.158 85.7447 125.626 86.2505 128.563C80.5441 129.582 77.9991 124.493 74.1106 122.026Z" fill="#0F0F32"/>
<path id="Vector_163" d="M94.4387 124.801C91.7989 126.467 94.8891 129.971 92.3363 131.662C93.4191 132.875 94.1857 131.718 95.0551 131.298C96.3434 132.519 95.5373 133.329 94.5256 134.097C91.5696 133.838 89.1115 132.786 87.8312 129.801C86.6693 127.285 83.8794 124.946 87.191 122.018L90.06 122.252C91.2851 123.531 94.9129 120.472 94.4387 124.801Z" fill="#3C309D"/>
<path id="Vector_164" d="M87.1831 122.026C85.4285 124.785 87.7364 127.204 87.8234 129.809L86.2426 128.571C83.9585 126.298 81.3186 124.154 83.3182 120.294C84.5275 121.063 86.2979 120.513 87.1831 122.026Z" fill="#8089DD"/>
<path id="Vector_165" d="M106.025 144.68C105.937 144.602 105.834 144.545 105.722 144.513C105.61 144.481 105.492 144.474 105.377 144.494C100.374 142.714 100.374 142.714 102.461 138.021C102.537 137.935 102.592 137.831 102.621 137.718C102.65 137.606 102.652 137.488 102.627 137.374C105.156 139.089 106.46 141.444 106.025 144.68Z" fill="#BEB8E9"/>
<path id="Vector_166" d="M102.461 137.989C100.88 141.355 103.069 142.924 105.377 144.462C105.319 144.678 105.217 144.88 105.078 145.054C104.939 145.228 104.767 145.37 104.571 145.472C104.376 145.574 104.162 145.634 103.942 145.646C103.723 145.659 103.504 145.625 103.299 145.546C100.864 143.272 97.521 141.112 102.461 137.989Z" fill="#1B1850"/>
<path id="Vector_167" d="M94.5256 134.097C94.6995 133.167 94.8812 132.228 95.0551 131.298C95.9719 129.89 93.7431 128.28 95.9641 125.497C95.3555 129.801 97.6633 130.828 99.4969 132.236C97.521 131.969 96.9837 135.732 94.5256 134.097Z" fill="#6F87DD"/>
<path id="Vector_168" d="M79.6351 111.75L82.0853 116.799C79.9751 117.252 78.0624 117.543 76.2208 118.085C73.5731 118.894 72.4666 117.317 71.5735 115.229C70.3722 112.406 73.8813 111.265 73.7154 108.821C74.2291 109.064 74.7271 109.323 75.2408 109.541C76.7583 110.164 77.6829 112.017 79.6272 111.742L79.6351 111.75Z" fill="#1A1A62"/>
<path id="Vector_169" d="M86.1399 110.051C86.3533 111.629 87.4677 111.783 88.6928 111.71C90.2735 111.613 90.3762 112.341 89.7202 113.53C85.6498 117.139 82.6069 114.631 79.6351 111.75C78.8638 110.391 78.55 108.811 78.742 107.252C81.3186 106.661 83.5554 108.295 86.0213 108.425C86.1477 108.513 86.2529 108.63 86.3293 108.765C86.4057 108.901 86.4513 109.053 86.4626 109.209C86.474 109.365 86.451 109.522 86.3951 109.668C86.3392 109.813 86.252 109.945 86.1399 110.051V110.051Z" fill="#1A1A62"/>
<path id="Vector_170" d="M94.4387 124.801C94.17 121.799 91.1745 123.717 90.0601 122.252C93.2215 119.437 97.3472 121.759 100.754 120.205C99.8843 123.514 95.229 121.378 94.4387 124.801Z" fill="#8089DD"/>
<path id="Vector_171" d="M30.1348 109.841C27.7084 115.173 23.567 118.15 17.987 119.178C14.6833 118.296 15.442 115.86 15.9242 113.514C16.047 112.46 16.5258 111.483 17.2776 110.751C18.0295 110.02 19.0072 109.581 20.0419 109.509C21.8202 109.323 20.4371 108.166 21.0378 107.834C22.3419 106.896 23.5828 106.831 24.7604 108.037C26.0961 110.092 28.9177 107.462 30.1348 109.841Z" fill="#242143"/>
<path id="Vector_172" d="M17.4732 102.26C17.734 100.407 16.4062 97.2838 18.8484 97.0572C21.8913 96.7821 25.4638 93.6509 28.3328 97.6964C28.2854 97.9067 28.2459 98.1252 28.2063 98.3437C26.3253 101.313 23.6539 103.522 21.1879 105.925C20.2316 106.855 18.9354 108.401 17.6629 106.087C17.5523 104.816 18.0818 103.514 17.4732 102.26Z" fill="#240F69"/>
<path id="Vector_173" d="M24.7446 108.053C23.4485 108.053 22.0812 107.64 20.9588 108.684C19.1647 109.444 18.1293 109.21 19.6152 107.195C21.1011 105.18 23.1955 103.384 25.0133 101.531C26.2482 100.375 27.356 99.0832 28.3171 97.6802V97.7207C32.0792 99.711 30.7988 103.489 30.9331 106.499C31.0438 108.967 28.4277 107.753 26.9813 108.117C26.236 108.189 25.4848 108.168 24.7446 108.053V108.053Z" fill="#1D1245"/>
<path id="Vector_174" d="M7.25393 117.268C8.04429 115.189 5.30175 115.69 5.02513 113.7C4.17155 107.535 9.08756 105.326 11.8538 101.637L12.6916 102.341C13.6005 104.509 9.93325 106.904 12.9998 108.983C12.7761 109.592 12.39 110.125 11.8854 110.52C11.0303 110.981 10.3299 111.694 9.87482 112.567C9.41972 113.439 9.23082 114.432 9.33257 115.415C9.37999 116.621 9.60128 118.619 7.25393 117.268Z" fill="#BBAFE3"/>
<path id="Vector_175" d="M44.2665 91.5392C42.4645 94.3144 41.6268 95.973 40.457 97.3323C38.7024 99.3712 34.9797 98.8776 33.4938 96.6527C32.8536 95.6979 33.2489 95.3096 34.1104 95.0345C34.5372 94.8969 34.9877 94.7999 35.4145 94.6542L44.2665 91.5392Z" fill="#0F1029"/>
<path id="Vector_176" d="M12.6599 108.959C9.70402 106.734 11.3005 104.533 12.6599 102.341C14.2407 100.722 15.6474 100.035 16.422 103.053C16.4694 103.247 15.9399 105.14 17.2124 103.627C17.4574 103.328 17.3546 102.729 17.4179 102.26C18.5718 103.441 18.1292 104.889 18.0897 106.305C17.3388 109.363 15.8056 110.893 12.6599 108.959Z" fill="#361C9F"/>
<path id="Vector_177" d="M27.3211 83.5616C27.7637 78.966 32.0634 79.4272 34.6637 77.7443C34.4029 78.4482 34.2132 79.7428 33.8733 79.7832C29.7002 80.2687 30.4035 83.7235 30.0716 86.4825C28.4197 86.0294 30.4668 82.3804 27.3211 83.5616Z" fill="#5866C8"/>
<path id="Vector_178" d="M131.396 130.683L129.95 130.351C132.321 129.437 131.989 125.084 135.585 125.812C134.407 127.633 134.779 130.853 131.396 130.683Z" fill="#5A95DC"/>
<path id="Vector_179" d="M86.1399 110.051C86.1399 109.501 86.0608 108.959 86.0134 108.433L91.2615 109.242C89.5543 111.459 87.9024 111.071 86.1399 110.051Z" fill="#142659"/>
<path id="Vector_180" d="M136.462 138.054C136.96 136.864 135.838 135.238 137.403 134.332C137.308 137.641 140.627 136.452 141.931 137.924L136.399 137.989L136.462 138.054Z" fill="#183757"/>
<path id="Vector_181" d="M136.415 137.989C136.336 139.785 138.738 139.292 138.968 141.282C133.372 143.426 132.352 137.94 129.088 135.497C132.463 134.89 135.198 134.518 136.462 138.054L136.415 137.989Z" fill="#1B395D"/>
<path id="Vector_182" d="M7.25391 117.268C9.62498 117.673 8.04427 116.184 8.04427 115.464C7.96523 112.616 8.04426 109.889 11.8933 109.857C15.6475 108.053 16.264 111.071 17.2441 113.514C16.4537 115.545 15.8767 117.559 17.987 119.178C13.9562 121.217 10.4549 120.108 7.25391 117.268Z" fill="#361C9F"/>
<path id="Vector_183" d="M17.2519 113.514C15.3235 112.519 15.0705 108.951 11.9012 109.857L12.6915 108.959C15.1575 109.428 16.7461 108.02 18.1767 106.273C21.3381 106.224 21.9704 102.988 24.049 101.548C25.6298 100.455 26.4201 98.3598 28.3644 97.6559C27.2263 101.62 23.2587 103.15 21.2512 106.37C20.7928 107.106 19.2437 107.357 20.121 108.748C20.1684 108.829 20.4055 108.813 20.5477 108.805C20.698 108.776 20.846 108.735 20.9903 108.684C21.4428 108.684 21.892 108.763 22.3182 108.918C23.5433 109.63 22.4209 109.517 22.0258 109.727C20.2079 110.698 17.6313 110.626 17.2519 113.514Z" fill="#5866C8"/>
</g>
<defs>
<filter id="filter0_d_1:712" x="0.926941" y="0.19162" width="258.445" height="159.334" filterUnits="userSpaceOnUse" color-interpolation-filters="sRGB">
<feFlood flood-opacity="0" result="BackgroundImageFix"/>
<feColorMatrix in="SourceAlpha" type="matrix" values="0 0 0 0 0 0 0 0 0 0 0 0 0 0 0 0 0 0 127 0" result="hardAlpha"/>
<feOffset dy="4"/>
<feGaussianBlur stdDeviation="2"/>
<feComposite in2="hardAlpha" operator="out"/>
<feColorMatrix type="matrix" values="0 0 0 0 0 0 0 0 0 0 0 0 0 0 0 0 0 0 0.25 0"/>
<feBlend mode="normal" in2="BackgroundImageFix" result="effect1_dropShadow_1:712"/>
<feBlend mode="normal" in="SourceGraphic" in2="effect1_dropShadow_1:712" result="shape"/>
</filter>
</defs>
</svg>
